<svg width="400" height="400" viewBox="0 0 400 400" fill="none" xmlns="http://www.w3.org/2000/svg">
<rect width="400" height="400" rx="100" fill="#000C2E"/>
<rect x="212.12" y="111.17" width="8.07995" height="8.07996" fill="#7DB072"/>
<rect x="178.184" y="109.554" width="8.07996" height="8.07996" fill="#7DB072"/>
<path d="M142.632 119.25H150.712V127.33H142.632V119.25Z" fill="#B0D359"/>
<path d="M137.752 120.927H145.87V129.045H137.752V120.927Z" fill="#C1CA46"/>
<path d="M128.088 132.178H136.168V140.258H128.088V132.178Z" fill="#C1CA46"/>
<path d="M131.32 127.33H139.4V135.41H131.32V127.33Z" fill="#CCC53A"/>
<path d="M134.552 124.098H142.632V132.178H134.552V124.098Z" fill="#C1CA46"/>
<path d="M124.856 145.106H132.936V153.186H124.856V145.106Z" fill="#E2B921"/>
<path d="M126.473 138.642H134.553V146.722H126.473V138.642Z" fill="#CCC53A"/>
<path d="M123.241 151.57H131.321V159.65H123.241V151.57Z" fill="#E2B921"/>
<path d="M118.392 170.962H126.472V179.042H118.392V170.962Z" fill="#EDB314"/>
<path d="M120.009 164.498H128.089V172.578H120.009V164.498Z" fill="#E2B921"/>
<path d="M121.624 158.034H129.704V166.114H121.624V158.034Z" fill="#E2B921"/>
<path d="M116.776 177.426H124.856V185.506H116.776V177.426Z" fill="#FAA909"/>
<path d="M115.16 183.89H123.24V191.97H115.16V183.89Z" fill="#FAA909"/>
<path d="M113.544 190.354H121.624V198.434H113.544V190.354Z" fill="#FB9F0E"/>
<path d="M110.312 203.282H118.392V211.362H110.312V203.282Z" fill="#FC871A"/>
<path d="M111.929 196.818H120.009V204.898H111.929V196.818Z" fill="#FB9016"/>
<path d="M108.697 209.746H116.777V217.826H108.697V209.746Z" fill="#FC871A"/>
<path d="M107.08 216.21H115.16V224.29H107.08V216.21Z" fill="#FD7822"/>
<path d="M105.465 222.674H113.545V230.754H105.465V222.674Z" fill="#FE622D"/>
<path d="M103.848 229.138H111.928V237.218H103.848V229.138Z" fill="#FA5332"/>
<path d="M102.233 235.602H110.313V243.682H102.233V235.602Z" fill="#F24C31"/>
<path d="M100.616 240.45H108.696V248.53H100.616V240.45Z" fill="#E03D2E"/>
<path d="M99.0005 251.762H107.08V259.842H99.0005V251.762Z" fill="#E03D2E"/>
<path d="M99.0005 245.298H107.08V253.378H99.0005V245.298Z" fill="#F24C31"/>
<path d="M99.0005 258.226H107.08V266.306H99.0005V258.226Z" fill="#E03D2E"/>
<path d="M100.616 263.074H108.696V271.154H100.616V263.074Z" fill="#D6352C"/>
<path d="M103.849 269.538H111.929V277.618H103.849V269.538Z" fill="#D6352C"/>
<path d="M102.233 266.306H110.313V274.386H102.233V266.306Z" fill="#D6352C"/>
<path d="M105.465 272.77H113.545V280.85H105.465V272.77Z" fill="#D6352C"/>
<path d="M107.08 275.843H115.16V283.923H107.08V275.843Z" fill="#D6352C"/>
<path d="M108.697 277.618H116.777V285.698H108.697V277.618Z" fill="#D0302B"/>
<path d="M111.929 280.85H120.009V288.93H111.929V280.85Z" fill="#D0302B"/>
<path d="M115.266 284.082H123.346V292.162H115.266V284.082Z" fill="#D0302B"/>
<path d="M118.604 287.42H126.684V295.5H118.604V287.42Z" fill="#CB3430"/>
<path d="M121.624 290.546H129.704V298.626H121.624V290.546Z" fill="#CB3430"/>
<path d="M124.856 293.777H132.936V301.857H124.856V293.777Z" fill="#CB3430"/>
<path d="M128.088 297.01H136.168V305.089H128.088V297.01Z" fill="#CD2D2B"/>
<path d="M129.705 297.01H137.785V305.089H129.705V297.01Z" fill="#CD2D2B"/>
<path d="M134.552 303.474H142.632V311.554H134.552V303.474Z" fill="#CD2D2B"/>
<path d="M131.32 300.241H139.4V308.321H131.32V300.241Z" fill="#CD2D2B"/>
<path d="M141.017 309.938H149.097V318.017H141.017V309.938Z" fill="#CD2D2B"/>
<path d="M144.249 311.553H152.329V319.633H144.249V311.553Z" fill="#CD2D2B"/>
<path d="M157.176 311.553H165.256V319.633H157.176V311.553Z" fill="#CD2D2B"/>
<path d="M149.096 311.553H157.176V319.633H149.096V311.553Z" fill="#CD2D2B"/>
<path d="M162.024 309.938H170.104V318.017H162.024V309.938Z" fill="#CD2D2B"/>
<path d="M168.488 303.474H176.568V311.554H168.488V303.474Z" fill="#B53539"/>
<path d="M165.256 306.706H173.336V314.786H165.256V306.706Z" fill="#B53539"/>
<path d="M171.72 300.241H179.8V308.321H171.72V300.241Z" fill="#A03642"/>
<path d="M183.032 276.002H191.112V284.082H183.032V276.002Z" fill="#80394F"/>
<path d="M178.184 293.777H186.264V301.857H178.184V293.777Z" fill="#933747"/>
<path d="M181.416 290.546H189.496V298.626H181.416V290.546Z" fill="#933747"/>
<path d="M183.032 287.313H191.112V295.393H183.032V287.313Z" fill="#903849"/>
<path d="M183.032 284.082H191.112V292.162H183.032V284.082Z" fill="#80394F"/>
<path d="M181.416 272.77H189.496V280.85H181.416V272.77Z" fill="#80394F"/>
<path d="M178.184 269.538H186.264V277.618H178.184V269.538Z" fill="#773953"/>
<path d="M174.952 266.306H183.032V274.386H174.952V266.306Z" fill="#773953"/>
<path d="M171.72 263.074H179.8V271.154H171.72V263.074Z" fill="#773953"/>
<path d="M168.488 261.458H176.568V269.538H168.488V261.458Z" fill="#6B3A58"/>
<path d="M160.408 261.458H168.488V269.538H160.408V261.458Z" fill="#6B3A58"/>
<path d="M157.176 263.074H165.256V271.154H157.176V263.074Z" fill="#6B3A58"/>
<path d="M153.944 266.306H162.024V274.386H153.944V266.306Z" fill="#643A5B"/>
<path d="M150.712 269.538H158.792V277.618H150.712V269.538Z" fill="#643A5B"/>
<path d="M149.096 272.77H157.176V280.85H149.096V272.77Z" fill="#643A5B"/>
<path d="M149.096 279.234H157.176V287.314H149.096V279.234Z" fill="#643A5B"/>
<path d="M152.329 282.466H160.409V290.546H152.329V282.466Z" fill="#4C3C6D"/>
<path d="M157.176 285.698H165.256V293.777H157.176V285.698Z" fill="#4C3C6D"/>
<path d="M162.024 285.698H170.104V293.777H162.024V285.698Z" fill="#4C3C6D"/>
<path d="M165.256 282.466H173.336V290.546H165.256V282.466Z" fill="#3D3D6B"/>
<path d="M168.488 279.234H176.568V287.314H168.488V279.234Z" fill="#3D3D6B"/>
<path d="M165.256 276.002H173.336V284.082H165.256V276.002Z" fill="#3A4672"/>
<path d="M162.024 276.002H170.104V284.082H162.024V276.002Z" fill="#394974"/>
<path d="M155.561 200.05H163.641V208.13H155.561V200.05Z" fill="black"/>
<path d="M158.793 196.818H166.873V204.898H158.793V196.818Z" fill="#EDB314"/>
<path d="M152.329 204.898H160.409V212.978H152.329V204.898Z" fill="#EDB314"/>
<path d="M145.864 214.594H153.944V222.674H145.864V214.594Z" fill="#FB9F0E"/>
<path d="M139.4 224.29H147.48V232.37H139.4V224.29Z" fill="#FC871A"/>
<path d="M149.096 209.746H157.176V217.826H149.096V209.746Z" fill="#FAA909"/>
<path d="M142.632 219.442H150.712V227.522H142.632V219.442Z" fill="#FB9016"/>
<path d="M136.168 229.138H144.248V237.218H136.168V229.138Z" fill="#FE622D"/>
<path d="M132.936 233.986H141.016V242.066H132.936V233.986Z" fill="#FD7822"/>
<path d="M129.705 238.834H137.785V246.914H129.705V238.834Z" fill="#FD7822"/>
<path d="M123.241 248.53H131.321V256.61H123.241V248.53Z" fill="#FA5332"/>
<path d="M126.473 243.682H134.553V251.762H126.473V243.682Z" fill="#FE622D"/>
<path d="M120.009 253.378H128.089V261.458H120.009V253.378Z" fill="#F24C31"/>
<path d="M118.392 258.226H126.472V266.306H118.392V258.226Z" fill="#E03D2E"/>
<path d="M118.392 269.538H126.472V277.618H118.392V269.538Z" fill="#D6352C"/>
<path d="M120.009 272.77H128.089V280.85H120.009V272.77Z" fill="#D6352C"/>
<path d="M120.009 277.618H128.089V285.698H120.009V277.618Z" fill="#D0302B"/>
<path d="M126.473 290.546H134.553V298.626H126.473V290.546Z" fill="#CB3430"/>
<path d="M118.392 261.458H126.472V269.538H118.392V261.458Z" fill="#D6352C"/>
<path d="M121.624 280.85H129.704V288.93H121.624V280.85Z" fill="#D0302B"/>
<path d="M123.506 284.082H131.586V292.162H123.506V284.082Z" fill="#D0302B"/>
<path d="M124.856 287.313H132.936V295.393H124.856V287.313Z" fill="#CB3430"/>
<path d="M128.407 293.936H136.487V302.016H128.407V293.936Z" fill="#CB3430"/>
<path d="M137.785 306.706H145.865V314.786H137.785V306.706Z" fill="#CD2D2B"/>
<path d="M174.952 297.01H183.032V305.089H174.952V297.01Z" fill="#A03642"/>
<path d="M162.024 193.848H170.104V201.928H162.024V193.848Z" fill="#E2B921"/>
<path d="M166.873 190.354H174.953V198.434H166.873V190.354Z" fill="#D7BF2D"/>
<path d="M171.72 187.122H179.8V195.202H171.72V187.122Z" fill="#B0D359"/>
<path d="M176.569 183.89H184.649V191.97H176.569V183.89Z" fill="#C1CA46"/>
<path d="M181.416 180.658H189.496V188.738H181.416V180.658Z" fill="#C1CA46"/>
<path d="M186.264 177.426H194.344V185.506H186.264V177.426Z" fill="#B0D359"/>
<path d="M191.113 174.194H199.193V182.274H191.113V174.194Z" fill="#9CC463"/>
<path d="M195.96 170.962H204.04V179.042H195.96V170.962Z" fill="#B0D359"/>
<path d="M200.808 167.73H208.888V175.81H200.808V167.73Z" fill="#8CBA6A"/>
<path d="M210.504 161.266H218.584V169.346H210.504V161.266Z" fill="#8CBA6A"/>
<path d="M205.656 164.498H213.736V172.578H205.656V164.498Z" fill="#83B56F"/>
<path d="M215.352 158.034H223.432V166.114H215.352V158.034Z" fill="#83B56F"/>
<path d="M223.391 162.695H231.471V170.775H223.391V162.695Z" fill="#83B56F"/>
<path d="M227.58 167.147H235.66V175.227H227.58V167.147Z" fill="#83B56F"/>
<path d="M232.032 170.027H240.112V178.107H232.032V170.027Z" fill="#83B56F"/>
<path d="M235.961 172.646H244.041V180.726H235.961V172.646Z" fill="#8CBA6A"/>
<path d="M239.888 174.741H247.968V182.821H239.888V174.741Z" fill="#8CBA6A"/>
<path d="M243.816 176.836H251.896V184.916H243.816V176.836Z" fill="#8CBA6A"/>
<path d="M248.007 178.669H256.087V186.749H248.007V178.669Z" fill="#9CC463"/>
<path d="M252.196 179.978H260.276V188.058H252.196V179.978Z" fill="#B0D359"/>
<path d="M215.534 166.099H223.614V174.179H215.534V166.099Z" fill="#7DB072"/>
<path d="M219.724 170.551H227.804V178.631H219.724V170.551Z" fill="#8CBA6A"/>
<path d="M224.176 173.432H232.256V181.511H224.176V173.432Z" fill="#8CBA6A"/>
<path d="M228.104 176.05H236.184V184.13H228.104V176.05Z" fill="#8CBA6A"/>
<path d="M232.032 178.145H240.112V186.225H232.032V178.145Z" fill="#9CC463"/>
<path d="M235.961 180.24H244.041V188.32H235.961V180.24Z" fill="#9CC463"/>
<path d="M240.15 182.073H248.23V190.153H240.15V182.073Z" fill="#B0D359"/>
<path d="M244.34 183.383H252.42V191.463H244.34V183.383Z" fill="#9CC463"/>
<path d="M252.196 181.288H260.276V189.368H252.196V181.288Z" fill="#9CC463"/>
<path d="M207.678 169.241H215.758V177.321H207.678V169.241Z" fill="#8CBA6A"/>
<path d="M211.867 173.693H219.947V181.773H211.867V173.693Z" fill="#9CC463"/>
<path d="M216.319 176.574H224.399V184.654H216.319V176.574Z" fill="#9CC463"/>
<path d="M220.248 179.193H228.328V187.273H220.248V179.193Z" fill="#9CC463"/>
<path d="M224.176 181.288H232.256V189.368H224.176V181.288Z" fill="#9CC463"/>
<path d="M228.104 183.383H236.184V191.463H228.104V183.383Z" fill="#B0D359"/>
<path d="M232.294 185.216H240.374V193.296H232.294V185.216Z" fill="#B0D359"/>
<path d="M236.483 186.525H244.563V194.605H236.483V186.525Z" fill="#C1CA46"/>
<path d="M242.245 185.216H250.325V193.296H242.245V185.216Z" fill="#C1CA46"/>
<path d="M247.221 183.383H255.301V191.463H247.221V183.383Z" fill="#B0D359"/>
<path d="M174.944 195.167H183.024V203.247H174.944V195.167Z" fill="#CCC53A"/>
<path d="M179.133 199.619H187.213V207.699H179.133V199.619Z" fill="#CCC53A"/>
<path d="M183.585 202.499H191.665V210.579H183.585V202.499Z" fill="#D7BF2D"/>
<path d="M187.514 205.118H195.594V213.198H187.514V205.118Z" fill="#E2B921"/>
<path d="M191.442 207.213H199.522V215.293H191.442V207.213Z" fill="#EDB314"/>
<path d="M195.369 209.308H203.449V217.388H195.369V209.308Z" fill="#EDB314"/>
<path d="M199.56 211.141H207.64V219.221H199.56V211.141Z" fill="#FAA909"/>
<path d="M203.749 212.451H211.829V220.531H203.749V212.451Z" fill="#FB9F0E"/>
<path d="M167.087 198.309H175.167V206.389H167.087V198.309Z" fill="#D7BF2D"/>
<path d="M171.277 203.023H179.357V211.103H171.277V203.023Z" fill="#D7BF2D"/>
<path d="M175.729 205.904H183.809V213.984H175.729V205.904Z" fill="#E2B921"/>
<path d="M179.657 208.523H187.737V216.603H179.657V208.523Z" fill="#EDB314"/>
<path d="M183.585 210.617H191.665V218.697H183.585V210.617Z" fill="#FAA909"/>
<path d="M187.514 212.713H195.594V220.792H187.514V212.713Z" fill="#FAA909"/>
<path d="M191.703 214.546H199.783V222.625H191.703V214.546Z" fill="#FAA909"/>
<path d="M195.894 215.855H203.974V223.935H195.894V215.855Z" fill="#FB9F0E"/>
<path d="M203.749 213.76H211.829V221.84H203.749V213.76Z" fill="#FB9016"/>
<path d="M159.232 201.714H167.312V209.794H159.232V201.714Z" fill="#E2B921"/>
<path d="M163.421 206.166H171.501V214.246H163.421V206.166Z" fill="#E2B921"/>
<path d="M167.873 209.046H175.953V217.126H167.873V209.046Z" fill="#EDB314"/>
<path d="M171.802 211.665H179.882V219.745H171.802V211.665Z" fill="#FAA909"/>
<path d="M175.729 213.76H183.809V221.84H175.729V213.76Z" fill="#FAA909"/>
<path d="M179.657 215.855H187.737V223.935H179.657V215.855Z" fill="#FB9F0E"/>
<path d="M183.848 217.688H191.928V225.768H183.848V217.688Z" fill="#FB9016"/>
<path d="M188.037 218.997H196.117V227.077H188.037V218.997Z" fill="#FB9016"/>
<path d="M193.799 217.688H201.879V225.768H193.799V217.688Z" fill="#FB9016"/>
<path d="M198.774 215.855H206.854V223.935H198.774V215.855Z" fill="#FB9016"/>
<path d="M220.2 154.802H228.28V162.882H220.2V154.802Z" fill="black"/>
<path d="M225.048 151.57H233.128V159.65H225.048V151.57Z" fill="#7DB072"/>
<path d="M229.896 148.338H237.975V156.418H229.896V148.338Z" fill="#7DB072"/>
<path d="M234.744 145.106H242.824V153.186H234.744V145.106Z" fill="#7DB072"/>
<path d="M237.976 141.874H246.056V149.954H237.976V141.874Z" fill="#64A07E"/>
<path d="M241.207 137.026H249.287V145.106H241.207V137.026Z" fill="#64A07E"/>
<path d="M252.52 127.33H260.6V135.41H252.52V127.33Z" fill="#559786"/>
<path d="M247.672 130.562H255.752V138.642H247.672V130.562Z" fill="#559786"/>
<path d="M244.439 133.794H252.519V141.874H244.439V133.794Z" fill="#559786"/>
<path d="M195.96 86.9305H204.04V95.0105H195.96V86.9305Z" fill="#64A07E"/>
<path d="M192.728 90.1626H200.808V98.2426H192.728V90.1626Z" fill="#64A07E"/>
<path d="M194.344 88.5465H202.423V96.6265H194.344V88.5465Z" fill="#64A07E"/>
<path d="M192.728 91.7784H200.808V99.8584H192.728V91.7784Z" fill="black"/>
<path d="M208.887 107.938H216.967V116.018H208.887V107.938Z" fill="#64A07E"/>
<path d="M205.656 104.706H213.736V112.786H205.656V104.706Z" fill="black"/>
<path d="M202.424 101.474H210.504V109.554H202.424V101.474Z" fill="#64A07E"/>
<path d="M199.192 98.2424H207.272V106.322H199.192V98.2424Z" fill="#7DB072"/>
<path d="M194.344 95.0105H202.423V103.09H194.344V95.0105Z" fill="#64A07E"/>
<path d="M192.728 93.3945H200.808V101.474H192.728V93.3945Z" fill="#64A07E"/>
<path d="M191.113 91.7784H199.193V99.8584H191.113V91.7784Z" fill="#64A07E"/>
<path d="M197.575 98.2424H205.655V106.322H197.575V98.2424Z" fill="#64A07E"/>
<path d="M195.96 96.6265H204.04V104.706H195.96V96.6265Z" fill="#64A07E"/>
<path d="M200.808 85.3146H208.888V93.3945H200.808V85.3146Z" fill="#64A07E"/>
<path d="M210.504 82.0826H218.584V90.1626H210.504V82.0826Z" fill="#559786"/>
<path d="M205.656 83.6986H213.736V91.7786H205.656V83.6986Z" fill="#559786"/>
<path d="M228.28 96.6265H236.36V104.706H228.28V96.6265Z" fill="#468D8D"/>
<path d="M220.2 96.6265H228.28V104.706H220.2V96.6265Z" fill="#468D8D"/>
<path d="M212.12 96.6265H220.2V104.706H212.12V96.6265Z" fill="#559786"/>
<path d="M204.04 96.6265H212.12V104.706H204.04V96.6265Z" fill="#64A07E"/>
<path d="M236.36 96.6265H244.44V104.706H236.36V96.6265Z" fill="#468D8D"/>
<path d="M244.439 96.6265H252.519V104.706H244.439V96.6265Z" fill="#328097"/>
<path d="M252.52 96.6265H260.6V104.706H252.52V96.6265Z" fill="#328097"/>
<path d="M260.6 96.6265H268.68V104.706H260.6V96.6265Z" fill="#2E6E91"/>
<path d="M268.68 96.6265H276.76V104.706H268.68V96.6265Z" fill="#326388"/>
<path d="M226.664 88.5465H234.744V96.6265H226.664V88.5465Z" fill="#468D8D"/>
<path d="M226.664 86.9305H234.744V95.0105H226.664V86.9305Z" fill="#468D8D"/>
<path d="M223.431 86.9305H231.511V95.0105H223.431V86.9305Z" fill="#559786"/>
<path d="M218.584 88.5465H226.664V96.6265H218.584V88.5465Z" fill="#468D8D"/>
<path d="M210.504 88.5465H218.584V96.6265H210.504V88.5465Z" fill="#559786"/>
<path d="M202.424 88.5465H210.504V96.6265H202.424V88.5465Z" fill="#64A07E"/>
<path d="M234.744 88.5465H242.824V96.6265H234.744V88.5465Z" fill="#328097"/>
<path d="M242.824 88.5465H250.904V96.6265H242.824V88.5465Z" fill="#328097"/>
<path d="M250.904 88.5465H258.984V96.6265H250.904V88.5465Z" fill="#2E6E91"/>
<path d="M258.983 88.5465H267.063V96.6265H258.983V88.5465Z" fill="#2E6E91"/>
<path d="M267.064 88.5465H275.144V96.6265H267.064V88.5465Z" fill="#2E6E91"/>
<path d="M275.144 88.5465H283.224V96.6265H275.144V88.5465Z" fill="#36557E"/>
<path d="M283.224 88.5465H291.304V96.6265H283.224V88.5465Z" fill="#36557E"/>
<path d="M275.144 104.706H283.224V112.786H275.144V104.706Z" fill="#326388"/>
<path d="M278.376 104.706H286.456V112.786H278.376V104.706Z" fill="#36557E"/>
<path d="M276.759 96.6265H284.839V104.706H276.759V96.6265Z" fill="#36557E"/>
<path d="M284.84 96.6265H292.92V104.706H284.84V96.6265Z" fill="#36557E"/>
<path d="M291.303 98.2424H299.383V106.322H291.303V98.2424Z" fill="#3B4471"/>
<path d="M292.92 93.3945H301V101.474H292.92V93.3945Z" fill="#3B4471"/>
<path d="M291.303 90.1626H299.383V98.2426H291.303V90.1626Z" fill="#3B4471"/>
<path d="M267.064 104.706H275.144V112.786H267.064V104.706Z" fill="#2E6E91"/>
<path d="M262.215 109.554H270.295V117.634H262.215V109.554Z" fill="#328097"/>
<path d="M270.295 109.554H278.375V117.634H270.295V109.554Z" fill="#328097"/>
<path d="M258.983 104.706H267.063V112.786H258.983V104.706Z" fill="#328097"/>
<path d="M250.904 104.706H258.984V112.786H250.904V104.706Z" fill="#328097"/>
<path d="M242.824 104.706H250.904V112.786H242.824V104.706Z" fill="#468D8D"/>
<path d="M234.744 104.706H242.824V112.786H234.744V104.706Z" fill="#559786"/>
<path d="M226.664 104.706H234.744V112.786H226.664V104.706Z" fill="#559786"/>
<path d="M218.584 104.706H226.664V112.786H218.584V104.706Z" fill="#559786"/>
<path d="M254.136 112.786H262.216V120.866H254.136V112.786Z" fill="#468D8D"/>
<path d="M262.215 112.786H270.295V120.866H262.215V112.786Z" fill="#328097"/>
<path d="M246.056 112.786H254.136V120.866H246.056V112.786Z" fill="#468D8D"/>
<path d="M237.976 112.786H246.056V120.866H237.976V112.786Z" fill="#559786"/>
<path d="M229.896 112.786H237.975V120.866H229.896V112.786Z" fill="#559786"/>
<path d="M221.816 112.786H229.896V120.866H221.816V112.786Z" fill="#64A07E"/>
<path d="M250.904 120.866H258.984V128.946H250.904V120.866Z" fill="#559786"/>
<path d="M258.983 120.866H267.063V128.946H258.983V120.866Z" fill="#559786"/>
<path d="M242.824 120.866H250.904V128.946H242.824V120.866Z" fill="#559786"/>
<path d="M234.744 120.866H242.824V128.946H234.744V120.866Z" fill="#559786"/>
<path d="M244.439 128.947H252.519V137.027H244.439V128.947Z" fill="#559786"/>
<path d="M236.36 128.947H244.44V137.027H236.36V128.947Z" fill="#559786"/>
<path d="M226.664 120.866H234.744V128.946H226.664V120.866Z" fill="#64A07E"/>
<path d="M218.584 112.786H226.664V120.866H218.584V112.786Z" fill="#64A07E"/>
<path d="M210.504 104.706H218.584V112.786H210.504V104.706Z" fill="#64A07E"/>
<path d="M215.352 80.4666H223.432V88.5465H215.352V80.4666Z" fill="#468D8D"/>
<path d="M236.36 80.4666H244.44V88.5465H236.36V80.4666Z" fill="#328097"/>
<path d="M258.983 82.0826H267.063V90.1626H258.983V82.0826Z" fill="#2E6E91"/>
<path d="M267.064 83.6986H275.144V91.7786H267.064V83.6986Z" fill="#326388"/>
<path d="M275.144 83.6986H283.224V91.7786H275.144V83.6986Z" fill="#36557E"/>
<path d="M283.224 85.3146H291.304V93.3945H283.224V85.3146Z" fill="#36557E"/>
<path d="M288.071 86.9305H296.151V95.0105H288.071V86.9305Z" fill="#3A4974"/>
<path d="M220.2 80.4666H228.28V88.5465H220.2V80.4666Z" fill="#468D8D"/>
<path d="M228.28 80.4666H236.36V88.5465H228.28V80.4666Z" fill="#328097"/>
<path d="M244.439 80.4666H252.519V88.5465H244.439V80.4666Z" fill="#2E6E91"/>
<path d="M250.904 82.0826H258.984V90.1626H250.904V82.0826Z" fill="#2E6E91"/>
<path d="M288.071 101.474H296.151V109.554H288.071V101.474Z" fill="#3A4974"/>
<path d="M284.84 104.706H292.92V112.786H284.84V104.706Z" fill="#36557E"/>
<path d="M279.991 107.938H288.071V116.018H279.991V107.938Z" fill="#36557E"/>
<path d="M275.144 111.17H283.224V119.25H275.144V111.17Z" fill="#2E6E91"/>
<path d="M270.295 114.402H278.375V122.482H270.295V114.402Z" fill="#2E6E91"/>
<path d="M265.448 117.634H273.527V125.714H265.448V117.634Z" fill="#328097"/>
<path d="M260.6 120.866H268.68V128.946H260.6V120.866Z" fill="#468D8D"/>
<path d="M255.751 124.098H263.831V132.178H255.751V124.098Z" fill="#559786"/>
<path d="M237.976 137.026H246.056V145.106H237.976V137.026Z" fill="#7DB072"/>
<path d="M234.744 133.794H242.824V141.874H234.744V133.794Z" fill="#64A07E"/>
<path d="M231.512 130.562H239.592V138.642H231.512V130.562Z" fill="#64A07E"/>
<path d="M228.28 127.33H236.36V135.41H228.28V127.33Z" fill="#64A07E"/>
<path d="M225.048 124.098H233.128V132.178H225.048V124.098Z" fill="#64A07E"/>
<path d="M221.816 120.866H229.896V128.946H221.816V120.866Z" fill="#7DB072"/>
<path d="M218.584 117.634H226.664V125.714H218.584V117.634Z" fill="#7DB072"/>
<path d="M215.352 114.402H223.432V122.482H215.352V114.402Z" fill="#64A07E"/>
<path d="M207.272 114.402H215.352V122.482H207.272V114.402Z" fill="#7DB072"/>
<path d="M199.192 114.402H207.272V122.482H199.192V114.402Z" fill="#7DB072"/>
<path d="M191.113 114.402H199.193V122.482H191.113V114.402Z" fill="#7DB072"/>
<path d="M183.032 114.402H191.112V122.482H183.032V114.402Z" fill="#83B56F"/>
<path d="M174.952 114.402H183.032V122.482H174.952V114.402Z" fill="#83B56F"/>
<path d="M166.873 114.402H174.953V122.482H166.873V114.402Z" fill="#7DB072"/>
<path d="M191.113 122.482H199.193V130.562H191.113V122.482Z" fill="#7DB072"/>
<path d="M183.032 122.482H191.112V130.562H183.032V122.482Z" fill="#83B56F"/>
<path d="M174.952 122.482H183.032V130.562H174.952V122.482Z" fill="#83B56F"/>
<path d="M215.352 122.482H223.432V130.562H215.352V122.482Z" fill="#64A07E"/>
<path d="M223.431 122.482H231.511V130.562H223.431V122.482Z" fill="#64A07E"/>
<path d="M207.272 122.482H215.352V130.562H207.272V122.482Z" fill="#7DB072"/>
<path d="M199.192 122.482H207.272V130.562H199.192V122.482Z" fill="#7DB072"/>
<path d="M166.873 122.482H174.953V130.562H166.873V122.482Z" fill="#83B56F"/>
<path d="M158.793 122.482H166.873V130.562H158.793V122.482Z" fill="#8CBA6A"/>
<path d="M150.712 122.482H158.792V130.562H150.712V122.482Z" fill="#9CC463"/>
<path d="M142.632 122.482H150.712V130.562H142.632V122.482Z" fill="#B0D359"/>
<path d="M184.648 130.562H192.728V138.642H184.648V130.562Z" fill="#83B56F"/>
<path d="M176.569 130.562H184.649V138.642H176.569V130.562Z" fill="#83B56F"/>
<path d="M168.488 130.562H176.568V138.642H168.488V130.562Z" fill="#8CBA6A"/>
<path d="M160.408 130.562H168.488V138.642H160.408V130.562Z" fill="#8CBA6A"/>
<path d="M152.329 130.562H160.409V138.642H152.329V130.562Z" fill="#9CC463"/>
<path d="M225.048 130.562H233.128V138.642H225.048V130.562Z" fill="#64A07E"/>
<path d="M216.968 130.562H225.048V138.642H216.968V130.562Z" fill="#7DB072"/>
<path d="M208.887 130.562H216.967V138.642H208.887V130.562Z" fill="#7DB072"/>
<path d="M200.808 130.562H208.888V138.642H200.808V130.562Z" fill="#7DB072"/>
<path d="M192.728 130.562H200.808V138.642H192.728V130.562Z" fill="#83B56F"/>
<path d="M144.249 130.562H152.329V138.642H144.249V130.562Z" fill="#B0D359"/>
<path d="M136.168 130.562H144.248V138.642H136.168V130.562Z" fill="#C1CA46"/>
<path d="M183.032 138.642H191.112V146.722H183.032V138.642Z" fill="#83B56F"/>
<path d="M174.952 138.642H183.032V146.722H174.952V138.642Z" fill="#8CBA6A"/>
<path d="M166.873 138.642H174.953V146.722H166.873V138.642Z" fill="#8CBA6A"/>
<path d="M158.793 138.642H166.873V146.722H158.793V138.642Z" fill="#9CC463"/>
<path d="M150.712 138.642H158.792V146.722H150.712V138.642Z" fill="#B0D359"/>
<path d="M142.632 138.642H150.712V146.722H142.632V138.642Z" fill="#BDCC4A"/>
<path d="M134.552 138.642H142.632V146.722H134.552V138.642Z" fill="#C1CA46"/>
<path d="M231.512 138.642H239.592V146.722H231.512V138.642Z" fill="#64A07E"/>
<path d="M223.431 138.642H231.511V146.722H223.431V138.642Z" fill="#64A07E"/>
<path d="M215.352 138.642H223.432V146.722H215.352V138.642Z" fill="#7DB072"/>
<path d="M207.272 138.642H215.352V146.722H207.272V138.642Z" fill="#7DB072"/>
<path d="M199.192 138.642H207.272V146.722H199.192V138.642Z" fill="#83B56F"/>
<path d="M191.113 138.642H199.193V146.722H191.113V138.642Z" fill="#83B56F"/>
<path d="M181.416 146.722H189.496V154.802H181.416V146.722Z" fill="#8CBA6A"/>
<path d="M173.336 146.722H181.416V154.802H173.336V146.722Z" fill="#9CC463"/>
<path d="M165.256 146.722H173.336V154.802H165.256V146.722Z" fill="#9CC463"/>
<path d="M157.176 146.722H165.256V154.802H157.176V146.722Z" fill="#B0D359"/>
<path d="M149.096 146.722H157.176V154.802H149.096V146.722Z" fill="#BDCC4A"/>
<path d="M141.017 146.722H149.097V154.802H141.017V146.722Z" fill="#C1CA46"/>
<path d="M132.936 146.722H141.016V154.802H132.936V146.722Z" fill="#CCC53A"/>
<path d="M124.856 146.722H132.936V154.802H124.856V146.722Z" fill="#D7BF2D"/>
<path d="M221.816 146.722H229.896V154.802H221.816V146.722Z" fill="#7DB072"/>
<path d="M226.664 146.722H234.744V154.802H226.664V146.722Z" fill="#7DB072"/>
<path d="M213.736 146.722H221.816V154.802H213.736V146.722Z" fill="#7DB072"/>
<path d="M205.656 146.722H213.736V154.802H205.656V146.722Z" fill="#83B56F"/>
<path d="M197.575 146.722H205.655V154.802H197.575V146.722Z" fill="#83B56F"/>
<path d="M189.496 146.722H197.576V154.802H189.496V146.722Z" fill="#83B56F"/>
<path d="M179.8 154.802H187.88V162.882H179.8V154.802Z" fill="#9CC463"/>
<path d="M171.72 154.802H179.8V162.882H171.72V154.802Z" fill="#9CC463"/>
<path d="M163.64 154.802H171.72V162.882H163.64V154.802Z" fill="#B0D359"/>
<path d="M155.561 154.802H163.641V162.882H155.561V154.802Z" fill="#BDCC4A"/>
<path d="M147.48 154.802H155.56V162.882H147.48V154.802Z" fill="#C1CA46"/>
<path d="M139.4 154.802H147.48V162.882H139.4V154.802Z" fill="#CCC53A"/>
<path d="M131.32 154.802H139.4V162.882H131.32V154.802Z" fill="#D7BF2D"/>
<path d="M123.241 154.802H131.321V162.882H123.241V154.802Z" fill="#D7BF2D"/>
<path d="M176.569 162.882H184.649V170.962H176.569V162.882Z" fill="#9CC463"/>
<path d="M168.488 162.882H176.568V170.962H168.488V162.882Z" fill="#B0D359"/>
<path d="M160.408 162.882H168.488V170.962H160.408V162.882Z" fill="#BDCC4A"/>
<path d="M152.329 162.882H160.409V170.962H152.329V162.882Z" fill="#C1CA46"/>
<path d="M144.249 162.882H152.329V170.962H144.249V162.882Z" fill="#CCC53A"/>
<path d="M136.168 162.882H144.248V170.962H136.168V162.882Z" fill="#D7BF2D"/>
<path d="M128.088 162.882H136.168V170.962H128.088V162.882Z" fill="#D7BF2D"/>
<path d="M174.952 170.962H183.032V179.042H174.952V170.962Z" fill="#B0D359"/>
<path d="M166.873 170.962H174.953V179.042H166.873V170.962Z" fill="#BDCC4A"/>
<path d="M158.793 170.962H166.873V179.042H158.793V170.962Z" fill="#C1CA46"/>
<path d="M150.712 170.962H158.792V179.042H150.712V170.962Z" fill="#CCC53A"/>
<path d="M142.632 170.962H150.712V179.042H142.632V170.962Z" fill="#D7BF2D"/>
<path d="M134.552 170.962H142.632V179.042H134.552V170.962Z" fill="#D7BF2D"/>
<path d="M126.473 170.962H134.553V179.042H126.473V170.962Z" fill="#E2B921"/>
<path d="M171.72 179.042H179.8V187.122H171.72V179.042Z" fill="#C1CA46"/>
<path d="M184.648 162.882H192.728V170.962H184.648V162.882Z" fill="#9CC463"/>
<path d="M183.032 170.962H191.112V179.042H183.032V170.962Z" fill="#B0D359"/>
<path d="M192.728 162.882H200.808V170.962H192.728V162.882Z" fill="#8CBA6A"/>
<path d="M186.264 170.962H194.344V179.042H186.264V170.962Z" fill="#9CC463"/>
<path d="M200.808 162.882H208.888V170.962H200.808V162.882Z" fill="#8CBA6A"/>
<path d="M205.656 162.882H213.736V170.962H205.656V162.882Z" fill="#83B56F"/>
<path d="M194.344 170.962H202.423V179.042H194.344V170.962Z" fill="#9CC463"/>
<path d="M179.8 179.042H187.88V187.122H179.8V179.042Z" fill="#B0D359"/>
<path d="M163.64 179.042H171.72V187.122H163.64V179.042Z" fill="#C1CA46"/>
<path d="M155.561 179.042H163.641V187.122H155.561V179.042Z" fill="#CCC53A"/>
<path d="M147.48 179.042H155.56V187.122H147.48V179.042Z" fill="#D7BF2D"/>
<path d="M139.4 179.042H147.48V187.122H139.4V179.042Z" fill="#E2B921"/>
<path d="M131.32 179.042H139.4V187.122H131.32V179.042Z" fill="#E2B921"/>
<path d="M123.241 179.042H131.321V187.122H123.241V179.042Z" fill="#EDB314"/>
<path d="M170.104 187.122H178.184V195.202H170.104V187.122Z" fill="#CCC53A"/>
<path d="M162.024 187.122H170.104V195.202H162.024V187.122Z" fill="#CCC53A"/>
<path d="M153.944 187.122H162.024V195.202H153.944V187.122Z" fill="#D7BF2D"/>
<path d="M145.864 187.122H153.944V195.202H145.864V187.122Z" fill="#E2B921"/>
<path d="M137.785 187.122H145.865V195.202H137.785V187.122Z" fill="#EDB314"/>
<path d="M129.705 187.122H137.785V195.202H129.705V187.122Z" fill="#EDB314"/>
<path d="M121.624 187.122H129.704V195.202H121.624V187.122Z" fill="#FAA909"/>
<path d="M152.329 195.202H160.409V203.282H152.329V195.202Z" fill="#E2B921"/>
<path d="M158.793 195.202H166.873V203.282H158.793V195.202Z" fill="#D7BF2D"/>
<path d="M144.249 195.202H152.329V203.282H144.249V195.202Z" fill="#EDB314"/>
<path d="M136.168 195.202H144.248V203.282H136.168V195.202Z" fill="#FAA909"/>
<path d="M128.088 195.202H136.168V203.282H128.088V195.202Z" fill="#FAA909"/>
<path d="M120.009 195.202H128.089V203.282H120.009V195.202Z" fill="#FB9F0E"/>
<path d="M142.632 203.282H150.712V211.362H142.632V203.282Z" fill="#FAA909"/>
<path d="M134.552 203.282H142.632V211.362H134.552V203.282Z" fill="#FB9F0E"/>
<path d="M126.473 203.282H134.553V211.362H126.473V203.282Z" fill="#FB9F0E"/>
<path d="M118.392 203.282H126.472V211.362H118.392V203.282Z" fill="#FB9016"/>
<path d="M139.4 211.362H147.48V219.442H139.4V211.362Z" fill="#FB9F0E"/>
<path d="M150.712 203.282H158.792V211.362H150.712V203.282Z" fill="#EDB314"/>
<path d="M145.864 211.362H153.944V219.442H145.864V211.362Z" fill="#FAA909"/>
<path d="M131.32 211.362H139.4V219.442H131.32V211.362Z" fill="#FB9016"/>
<path d="M123.241 211.362H131.321V219.442H123.241V211.362Z" fill="#FB9016"/>
<path d="M115.16 211.362H123.24V219.442H115.16V211.362Z" fill="#FC871A"/>
<path d="M137.785 219.442H145.865V227.522H137.785V219.442Z" fill="#FB9016"/>
<path d="M129.705 219.442H137.785V227.522H129.705V219.442Z" fill="#FC871A"/>
<path d="M121.624 219.442H129.704V227.522H121.624V219.442Z" fill="#FC871A"/>
<path d="M113.544 219.442H121.624V227.522H113.544V219.442Z" fill="#FD7822"/>
<path d="M136.168 227.522H144.248V235.602H136.168V227.522Z" fill="#FC871A"/>
<path d="M128.088 227.522H136.168V235.602H128.088V227.522Z" fill="#FD7822"/>
<path d="M120.009 227.522H128.089V235.602H120.009V227.522Z" fill="#FD7822"/>
<path d="M111.929 227.522H120.009V235.602H111.929V227.522Z" fill="#FE622D"/>
<path d="M126.473 235.602H134.553V243.682H126.473V235.602Z" fill="#FE622D"/>
<path d="M118.392 235.602H126.472V243.682H118.392V235.602Z" fill="#FE622D"/>
<path d="M110.312 235.602H118.392V243.682H110.312V235.602Z" fill="#FA5332"/>
<path d="M102.233 243.682H110.313V251.762H102.233V243.682Z" fill="#F24C31"/>
<path d="M118.392 243.682H126.472V251.762H118.392V243.682Z" fill="#FA5332"/>
<path d="M110.312 243.682H118.392V251.762H110.312V243.682Z" fill="#FA5332"/>
<path d="M115.16 251.762H123.24V259.842H115.16V251.762Z" fill="#F24C31"/>
<path d="M107.08 251.762H115.16V259.842H107.08V251.762Z" fill="#F24C31"/>
<path d="M115.16 259.842H123.24V267.922H115.16V259.842Z" fill="#E03D2E"/>
<path d="M107.08 259.842H115.16V267.922H107.08V259.842Z" fill="#E03D2E"/>
<path d="M110.312 267.922H118.392V276.002H110.312V267.922Z" fill="#D6352C"/>
<path d="M111.929 276.002H120.009V284.082H111.929V276.002Z" fill="#D6352C"/>
<path d="M220.2 154.802H228.28V162.882H220.2V154.802Z" fill="#7DB072"/>
<path d="M212.12 154.802H220.2V162.882H212.12V154.802Z" fill="#83B56F"/>
<path d="M204.04 154.802H212.12V162.882H204.04V154.802Z" fill="#83B56F"/>
<path d="M195.96 154.802H204.04V162.882H195.96V154.802Z" fill="#8CBA6A"/>
<path d="M187.881 154.802H195.961V162.882H187.881V154.802Z" fill="#8CBA6A"/>
<rect x="147.48" y="117.634" width="8.07998" height="8.07995" fill="#9CC463"/>
<rect x="152.329" y="116.018" width="8.07996" height="8.07997" fill="#8CBA6A"/>
<rect x="158.793" y="114.402" width="8.07996" height="8.07997" fill="#8CBA6A"/>
<rect x="165.256" y="112.786" width="8.07998" height="8.07995" fill="#83B56F"/>
<rect x="171.72" y="111.17" width="8.07996" height="8.07996" fill="#83B56F"/>
<rect x="184.648" y="107.938" width="8.07996" height="8.07995" fill="#7DB072"/>
<rect x="191.113" y="106.322" width="8.07996" height="8.07995" fill="#7DB072"/>
<rect x="197.575" y="106.322" width="8.07995" height="8.07995" fill="#7DB072"/>
<rect x="202.424" y="106.322" width="8.07996" height="8.07995" fill="#64A07E"/>
<rect x="228.629" y="99.8584" width="3.65451" height="3.65452" fill="#FFC300"/>
<rect x="232.283" y="99.8584" width="3.65453" height="3.65452" fill="#FFC300"/>
<rect x="235.938" y="103.513" width="3.65452" height="3.65451" fill="#FFC300"/>
<rect x="235.938" y="107.167" width="3.65452" height="3.65451" fill="#FFC300"/>
<rect x="232.283" y="110.822" width="3.65453" height="3.65452" fill="#FFC300"/>
<rect x="228.629" y="110.822" width="3.65451" height="3.65452" fill="#FFC300"/>
<rect x="224.974" y="107.167" width="3.65453" height="3.65451" fill="#FFC300"/>
<rect x="224.974" y="103.513" width="3.65453" height="3.65451" fill="#FFC300"/>
<rect x="226.801" y="101.686" width="3.65452" height="3.65452" fill="#FFC300"/>
<rect x="230.456" y="103.513" width="3.65451" height="3.65451" fill="#FFC300"/>
<rect x="230.456" y="107.167" width="3.65451" height="3.65451" fill="#FFC300"/>
<rect x="232.283" y="105.34" width="3.65453" height="3.65452" fill="#FFC300"/>
<rect x="228.629" y="105.34" width="3.65451" height="3.65452" fill="#FFC300"/>
<rect x="234.11" y="101.686" width="3.65452" height="3.65452" fill="#FFC300"/>
<rect x="234.11" y="108.995" width="3.65452" height="3.65452" fill="#FFC300"/>
<rect x="226.801" y="108.995" width="3.65452" height="3.65452" fill="#FFC300"/>
<rect x="232.283" y="103.513" width="3.65451" height="3.65451" fill="black"/>
<rect x="230.455" y="101.686" width="3.65451" height="3.65452" fill="black"/>
<rect x="228.629" y="103.513" width="3.65453" height="3.65451" fill="black"/>
<rect x="230.455" y="105.34" width="3.65451" height="3.65452" fill="black"/>
<rect x="234.01" y="101.766" width="2.06121" height="2.06122" fill="white"/>
<rect x="199.192" y="106.323" width="1.616" height="3.23198" fill="black" fill-opacity="0.2"/>
<rect x="200.809" y="107.938" width="1.61598" height="3.23198" fill="black" fill-opacity="0.2"/>
<rect x="202.424" y="109.554" width="1.61598" height="3.23199" fill="black" fill-opacity="0.2"/>
<rect x="204.041" y="111.17" width="1.616" height="3.23198" fill="black" fill-opacity="0.2"/>
<rect x="205.656" y="112.786" width="1.616" height="3.23198" fill="black" fill-opacity="0.2"/>
<rect x="207.273" y="114.402" width="1.61598" height="3.23198" fill="black" fill-opacity="0.2"/>
<rect x="208.888" y="116.018" width="1.616" height="3.23198" fill="black" fill-opacity="0.2"/>
<rect x="210.505" y="117.634" width="1.61597" height="3.23198" fill="black" fill-opacity="0.2"/>
<rect x="212.121" y="119.25" width="1.61597" height="3.23199" fill="black" fill-opacity="0.2"/>
<rect x="213.736" y="120.866" width="1.616" height="3.23197" fill="black" fill-opacity="0.2"/>
<rect x="215.353" y="122.482" width="1.61598" height="3.23197" fill="black" fill-opacity="0.2"/>
<rect x="216.968" y="124.098" width="1.61598" height="3.23198" fill="black" fill-opacity="0.2"/>
<rect x="237.976" y="116.018" width="1.616" height="1.61598" fill="black" fill-opacity="0.2"/>
<rect x="236.361" y="116.018" width="1.61598" height="1.61598" fill="black" fill-opacity="0.2"/>
<rect x="242.825" y="111.17" width="1.61598" height="1.61598" fill="black" fill-opacity="0.2"/>
<rect x="241.208" y="112.786" width="1.61598" height="1.616" fill="black" fill-opacity="0.2"/>
<rect x="239.593" y="114.402" width="1.61598" height="1.616" fill="black" fill-opacity="0.2"/>
<rect x="242.825" y="109.554" width="1.61598" height="1.616" fill="black" fill-opacity="0.2"/>
<rect x="244.44" y="107.938" width="1.61598" height="1.616" fill="black" fill-opacity="0.2"/>
<rect x="244.44" y="104.706" width="1.61598" height="1.616" fill="black" fill-opacity="0.2"/>
<rect x="244.44" y="103.09" width="1.61598" height="1.616" fill="black" fill-opacity="0.2"/>
<rect x="242.825" y="101.474" width="1.61598" height="1.616" fill="black" fill-opacity="0.2"/>
<rect x="239.593" y="96.6265" width="1.61598" height="1.616" fill="black" fill-opacity="0.2"/>
<rect x="241.208" y="98.2424" width="1.61598" height="1.61598" fill="black" fill-opacity="0.2"/>
<rect x="242.825" y="99.8584" width="1.61598" height="1.616" fill="black" fill-opacity="0.2"/>
<rect x="237.976" y="95.0105" width="1.616" height="1.616" fill="black" fill-opacity="0.2"/>
<rect x="234.744" y="93.3944" width="1.61598" height="1.61599" fill="black" fill-opacity="0.2"/>
<rect x="236.361" y="95.0105" width="1.61598" height="1.616" fill="black" fill-opacity="0.2"/>
<rect x="231.512" y="93.3944" width="1.61598" height="1.61599" fill="black" fill-opacity="0.2"/>
<rect x="229.897" y="93.3944" width="1.61598" height="1.61599" fill="black" fill-opacity="0.2"/>
<rect x="228.281" y="95.0105" width="1.616" height="1.616" fill="black" fill-opacity="0.2"/>
<rect x="226.665" y="95.0105" width="1.61598" height="1.616" fill="black" fill-opacity="0.2"/>
<rect x="225.049" y="96.6265" width="1.61598" height="1.616" fill="black" fill-opacity="0.2"/>
<rect x="223.432" y="98.2424" width="1.61597" height="1.61598" fill="black" fill-opacity="0.2"/>
<rect x="233.129" y="93.3944" width="1.61598" height="1.61599" fill="black" fill-opacity="0.2"/>
<rect x="244.44" y="106.323" width="1.61598" height="1.61598" fill="black" fill-opacity="0.2"/>
<rect x="218.585" y="125.714" width="1.616" height="3.23197" fill="black" fill-opacity="0.2"/>
<rect x="220.2" y="127.33" width="1.61597" height="3.23198" fill="black" fill-opacity="0.2"/>
<rect x="221.817" y="128.946" width="1.61598" height="3.23198" fill="black" fill-opacity="0.2"/>
<rect x="223.432" y="130.562" width="1.61597" height="3.23198" fill="black" fill-opacity="0.2"/>
<rect x="225.049" y="132.178" width="1.61598" height="3.23198" fill="black" fill-opacity="0.2"/>
<rect x="226.665" y="133.794" width="1.61598" height="3.23198" fill="black" fill-opacity="0.2"/>
<rect x="228.281" y="135.41" width="1.616" height="3.23197" fill="black" fill-opacity="0.2"/>
<rect x="229.897" y="137.026" width="1.61598" height="3.23198" fill="black" fill-opacity="0.2"/>
<rect x="231.512" y="138.642" width="1.61598" height="3.23198" fill="black" fill-opacity="0.2"/>
<rect x="233.129" y="140.258" width="1.61598" height="1.61599" fill="black" fill-opacity="0.2"/>
<rect x="234.744" y="141.874" width="1.61598" height="1.616" fill="black" fill-opacity="0.2"/>
<rect x="236.361" y="141.874" width="1.61598" height="1.616" fill="black" fill-opacity="0.2"/>
<rect x="237.976" y="141.874" width="1.616" height="1.616" fill="black" fill-opacity="0.2"/>
<rect x="239.593" y="141.874" width="1.61598" height="1.616" fill="black" fill-opacity="0.2"/>
<rect x="241.208" y="141.874" width="1.61598" height="1.616" fill="black" fill-opacity="0.2"/>
<rect x="242.825" y="140.258" width="1.61598" height="1.61599" fill="black" fill-opacity="0.2"/>
<rect x="244.44" y="138.642" width="1.61598" height="3.23198" fill="black" fill-opacity="0.2"/>
<rect x="246.056" y="137.026" width="1.61601" height="3.23198" fill="black" fill-opacity="0.2"/>
<rect x="249.288" y="133.794" width="1.61601" height="3.23198" fill="black" fill-opacity="0.2"/>
<rect x="247.673" y="135.41" width="1.61598" height="3.23197" fill="black" fill-opacity="0.2"/>
<rect x="197.577" y="104.706" width="1.61601" height="3.23198" fill="black" fill-opacity="0.2"/>
<rect x="192.728" y="93.3945" width="1.61601" height="3.23198" fill="#7F745E"/>
<rect x="194.343" y="95.0105" width="1.61601" height="3.23198" fill="#7F745E"/>
<rect x="195.96" y="96.6265" width="1.61596" height="3.23198" fill="#7F745E"/>
<rect x="197.575" y="98.2423" width="1.61596" height="3.23198" fill="#7F745E"/>
<rect x="199.192" y="99.8584" width="1.61601" height="3.23198" fill="#7F745E"/>
<rect x="200.808" y="101.474" width="1.616" height="3.23198" fill="#7F745E"/>
<rect x="202.424" y="103.09" width="1.61598" height="3.23198" fill="#7F745E"/>
<rect x="204.04" y="104.706" width="1.61598" height="3.23198" fill="#7F745E"/>
<rect x="205.656" y="106.322" width="1.61597" height="3.23198" fill="#7F745E"/>
<rect x="207.272" y="107.938" width="1.61598" height="3.23198" fill="#7F745E"/>
<rect x="208.887" y="109.554" width="1.616" height="3.23199" fill="#7F745E"/>
<rect x="210.504" y="111.17" width="1.616" height="3.23198" fill="#7F745E"/>
<rect x="212.119" y="112.786" width="1.61597" height="3.23198" fill="#7F745E"/>
<rect x="213.736" y="114.402" width="1.616" height="3.23199" fill="#7F745E"/>
<rect x="215.351" y="116.018" width="1.61598" height="3.23198" fill="#7F745E"/>
<rect x="216.968" y="117.634" width="1.61597" height="3.23198" fill="#7F745E"/>
<rect x="218.584" y="119.25" width="1.616" height="1.616" fill="#7F745E"/>
<rect x="220.2" y="120.866" width="1.61598" height="1.61599" fill="#7F745E"/>
<rect x="221.816" y="120.866" width="1.61598" height="1.61599" fill="#7F745E"/>
<rect x="223.431" y="120.866" width="1.61598" height="1.61599" fill="#7F745E"/>
<rect x="225.048" y="119.25" width="1.61597" height="1.616" fill="#7F745E"/>
<rect x="226.663" y="119.25" width="1.61598" height="1.616" fill="#7F745E"/>
<rect x="226.663" y="117.634" width="1.61598" height="1.616" fill="#7F745E"/>
<rect x="191.113" y="91.7784" width="1.61601" height="3.23198" fill="#7F745E"/>
</svg>
