<svg width="40" height="40" viewBox="0 0 40 40" fill="none" xmlns="http://www.w3.org/2000/svg">
<g clip-path="url(#clip0)">
<rect width="40" height="40" rx="10" fill="#13131B"/>
<path d="M23.0261 32.1538C23.0875 31.9544 23.1658 31.7604 23.2107 31.5549C23.317 31.0678 23.3258 30.5906 23.0951 30.132C23.1565 30.104 23.2168 30.0744 23.2781 30.0476C23.5466 29.9309 23.8107 29.9906 24.0173 30.1994C24.1172 30.296 24.1933 30.4145 24.2396 30.5455C24.2859 30.6765 24.3012 30.8165 24.2841 30.9544C24.2628 31.178 24.2441 31.4015 24.2167 31.6245C24.1635 32.0927 24.1478 32.5643 24.1696 33.0349C24.1699 33.1546 24.1638 33.2742 24.1515 33.3932C24.1474 33.4533 24.1304 33.5118 24.1017 33.5648C24.0058 33.7401 23.8546 33.779 23.694 33.6617C23.4836 33.5078 23.3762 33.2891 23.3187 33.042C23.2715 32.8072 23.2091 32.5757 23.1318 32.3489C23.1091 32.2778 23.0732 32.2117 23.0261 32.1538ZM28.3761 10.1622C28.2038 10.0012 27.9971 9.88162 27.7717 9.8126C27.3035 9.65398 26.7941 9.66758 26.335 9.85096C25.6194 10.1457 25.1258 10.8208 24.4403 11.1802C23.7702 11.532 22.9494 11.5643 22.3352 12.0071C21.9713 12.2701 21.6957 12.6673 21.276 12.8268C20.9938 12.9336 20.6804 12.9177 20.3829 12.8684C19.5637 12.7314 18.7325 12.2849 18.4197 11.515C18.206 10.9901 18.2525 10.3693 17.9512 9.88876C17.7611 9.58631 17.4449 9.3633 17.3211 9.02797C17.1463 8.55346 17.4109 8.04334 17.5074 7.54692C17.5637 7.2599 17.5604 6.96437 17.4977 6.67868C17.435 6.39299 17.3143 6.12324 17.143 5.88614C16.9684 5.65129 16.7429 5.4591 16.4833 5.32404C16.2237 5.18899 15.9369 5.11459 15.6444 5.10644C15.6444 5.10644 15.223 5.06206 14.5781 5.41712C13.7782 5.96943 13.508 7.06858 13.6773 8.02581C13.8467 8.98304 14.3749 9.83452 14.9047 10.6493C15.4345 11.4641 15.9869 12.2931 16.2159 13.2382C16.2526 13.39 16.28 13.5544 16.2208 13.6991C16.1551 13.8612 15.9967 13.9626 15.8581 14.0695C14.6335 15.0157 14.5836 16.8573 13.6741 18.1093C13.3793 18.5148 12.9979 18.8518 12.7015 19.2567C12.3409 19.7493 12.1371 20.3832 12.4149 20.964C12.6423 21.4402 13.1552 21.7799 13.6872 21.7739C13.7086 21.7739 13.7299 21.7728 13.7508 21.7717C13.9688 21.758 14.1825 21.6917 14.4006 21.6884C14.6198 21.6846 14.8346 21.7432 15.0455 21.8013C15.9036 22.038 16.7638 22.2752 17.5906 22.6045C18.4553 22.9486 19.2832 23.3925 20.1813 23.6363C21.0793 23.8801 22.0886 23.9009 22.8886 23.427C23.5784 23.0182 24.0354 22.2719 24.1762 21.4829C24.317 20.6939 24.163 19.8693 23.8299 19.14C23.5883 18.6112 23.2546 18.1225 23.0776 17.5691C22.9006 17.0157 22.9121 16.3494 23.305 15.9209C23.5302 15.676 23.8469 15.5412 24.1362 15.3779C24.5645 15.1354 24.9465 14.8189 25.2644 14.4431C25.4359 14.2404 25.5893 14.0196 25.7882 13.8443C26.1581 13.5177 26.6506 13.3752 27.0851 13.1407C27.5997 12.8612 28.0335 12.4537 28.3448 11.9577C28.6478 11.4745 28.8878 10.8854 28.5394 10.3594C28.4918 10.2883 28.4371 10.2222 28.3761 10.1622Z" fill="#6395CE"/>
<path fill-rule="evenodd" clip-rule="evenodd" d="M23.0261 32.1538C22.9894 32.2097 22.9505 32.2645 22.916 32.3215C22.5193 32.9779 21.8064 33.2623 21.0634 33.0634C20.9099 33.0302 20.7624 32.9735 20.6262 32.8952C20.3747 32.7319 20.1314 32.7719 19.8799 32.8733C19.6355 32.9368 19.3912 33.0031 19.1457 33.0628C19.1292 33.0651 19.1133 33.0707 19.0989 33.0791C19.0845 33.0876 19.072 33.0988 19.062 33.1122C19.052 33.1255 19.0448 33.1408 19.0407 33.1569C19.0366 33.1731 19.0358 33.1899 19.0383 33.2064C19.0454 33.5763 18.9205 33.9067 18.7369 34.2201C18.7309 34.2245 18.7227 34.2272 18.7188 34.2327C18.1912 35.0233 17.0948 34.9083 16.5041 34.356C16.3238 34.1872 16.1578 34.0025 15.9836 33.8272C15.857 33.7001 15.731 33.5713 15.5978 33.4508C15.2923 33.1628 14.9448 32.923 14.5672 32.7396C13.8706 32.4247 13.2004 32.0545 12.5629 31.6328C12.0952 31.3186 11.6897 30.9207 11.3667 30.4591C10.8928 29.7813 10.7996 29.0405 10.998 28.2504C11.1274 27.7565 11.3439 27.2896 11.6374 26.8718C11.8993 26.4883 12.1558 26.0998 12.4401 25.7332C13.0171 24.9886 13.485 24.1793 13.896 23.3366C14.1491 22.8182 14.4127 22.3059 14.7042 21.8079C14.7305 21.7629 14.7507 21.7147 14.7738 21.6676C14.9567 21.4029 15.1103 21.119 15.2318 20.821C15.3579 20.5334 15.4735 20.2402 15.685 19.9997C15.7491 20.0506 15.8143 20.1016 15.8778 20.1537C16.3628 20.5504 16.8931 20.8709 17.4948 21.0523C18.3397 21.3065 19.1928 21.529 20.0766 21.6062C20.172 21.6144 20.2739 21.6046 20.3517 21.6802C20.3489 21.7095 20.3489 21.7391 20.3517 21.7684C20.4684 22.4111 20.5911 23.0527 20.6454 23.7042C20.6804 24.6001 20.4437 25.4401 20.1084 26.2576C19.9807 26.5693 19.8229 26.868 19.6881 27.1776C19.5354 27.5143 19.4844 27.8883 19.5413 28.2537C19.6336 28.7789 19.6364 29.316 19.5495 29.8421C19.5259 29.9725 19.5396 29.9731 19.6788 29.9676C20.2719 29.9487 20.8586 29.8391 21.4185 29.6427C21.59 29.5877 21.7683 29.5571 21.9483 29.5517C22.3976 29.5238 22.75 29.6969 23.0212 30.0498C23.0436 30.0788 23.0705 30.1051 23.0957 30.132C23.3258 30.5906 23.3171 31.0678 23.2108 31.555C23.1658 31.7604 23.0875 31.9544 23.0261 32.1538ZM15.6789 27.5644C15.5233 27.7145 15.4126 27.8241 15.2987 27.931C15.1896 28.0334 15.0735 28.1288 14.9677 28.234C14.7869 28.4126 14.7886 28.6202 14.9644 28.795C15.1239 28.9528 15.2817 29.1123 15.4417 29.2695C15.5891 29.4153 15.6181 29.4098 15.6965 29.2202C15.712 29.1868 15.7195 29.1502 15.7184 29.1134C15.6626 28.599 15.6494 28.0809 15.6789 27.5644V27.5644Z" fill="#173960"/>
<path d="M21.5046 11.8772C21.4981 11.8408 21.4814 11.807 21.4565 11.7796C21.4316 11.7523 21.3994 11.7325 21.3638 11.7227C21.3485 11.7188 21.3324 11.7189 21.3172 11.7232C21.2949 11.7332 21.2766 11.7504 21.2651 11.772C21.2142 11.8515 21.1764 11.9424 21.1024 12.001C21.0284 12.0597 20.8991 12.0629 20.8569 11.9786C20.8471 11.9599 20.8394 11.9347 20.8186 11.9309C20.8103 11.9308 20.8022 11.9325 20.7947 11.9359C20.7872 11.9393 20.7806 11.9443 20.7753 11.9506C20.5005 12.1971 20.1969 12.4094 19.8712 12.5829C19.8597 12.5895 19.846 12.5977 19.8454 12.6109C19.8449 12.6229 19.8548 12.6322 19.8624 12.641C19.903 12.6909 19.8816 12.7643 19.8569 12.8235C19.7835 12.9961 19.6712 13.1802 19.4876 13.2169C19.4586 13.2195 19.4305 13.2281 19.4049 13.2421C19.3824 13.2618 19.3665 13.2881 19.3594 13.3172C19.2586 13.6295 19.3737 13.9889 19.6065 14.2136C19.6681 14.2762 19.7428 14.3245 19.8252 14.3549C19.9076 14.3853 19.9957 14.3971 20.0832 14.3894C20.1943 14.3714 20.2986 14.3239 20.3852 14.2519C20.6109 14.0749 20.938 13.7363 20.7347 13.5478C20.3989 13.2366 20.6213 12.4931 21.0235 12.2903C21.0734 12.27 21.1257 12.2562 21.1791 12.2492C21.3062 12.2224 21.4344 12.1556 21.4898 12.0377C21.5122 11.9873 21.5174 11.9309 21.5046 11.8772Z" fill="#D77062"/>
<path d="M18.7368 34.2201C18.9204 33.9072 19.0453 33.5763 19.0382 33.2064C19.0356 33.1899 19.0364 33.1731 19.0405 33.1569C19.0445 33.1407 19.0517 33.1254 19.0617 33.1121C19.0717 33.0987 19.0843 33.0875 19.0987 33.079C19.1131 33.0706 19.129 33.0651 19.1456 33.0628C19.391 33.0031 19.6354 32.9374 19.8798 32.8738C20.105 33.0475 20.1598 33.2946 20.1477 33.5554C20.1312 33.8092 20.1016 34.062 20.059 34.3127C20.0179 34.5839 20.0294 34.8639 20.0266 35.14C20.0245 35.3192 20.0398 35.4984 20.0425 35.6776C20.051 35.7982 20.0184 35.9181 19.9499 36.0178C19.8568 36.1444 19.7286 36.1696 19.5982 36.0808C19.5057 36.0156 19.4272 35.9325 19.3673 35.8364C19.3075 35.7403 19.2675 35.6332 19.2497 35.5214C19.1658 35.0814 19.0343 34.6661 18.7576 34.3061C18.7452 34.279 18.7381 34.2498 18.7368 34.2201V34.2201Z" fill="#6395CE"/>
<path fill-rule="evenodd" clip-rule="evenodd" d="M21.127 17.1389C20.9993 17.5379 20.9174 17.95 20.8826 18.3674C20.8222 18.9706 20.8186 19.5782 20.8716 20.1821C20.8972 20.5647 20.8332 20.948 20.6848 21.3016C20.6262 21.4657 20.507 21.6012 20.3517 21.6802C20.2738 21.6046 20.1719 21.6144 20.0766 21.6062C19.1928 21.5289 18.3397 21.307 17.4948 21.0522C16.8931 20.8709 16.3627 20.5503 15.8778 20.1536C15.8433 20.1252 15.8077 20.0972 15.7726 20.0693C15.7628 20.0197 15.7564 19.9696 15.7535 19.9191C15.5737 19.689 15.5452 19.3411 15.6482 19.0583C15.7765 18.706 16.0592 18.4348 16.3436 18.1904C16.6279 17.946 16.9304 17.7082 17.1211 17.3855C17.5167 16.7159 17.3413 15.8732 17.3912 15.0974C17.404 14.9716 17.4573 14.8534 17.543 14.7604C17.5419 14.7566 17.5413 14.7533 17.5402 14.7494C17.5638 14.7297 17.5874 14.71 17.6109 14.6908C17.6309 14.6722 17.6517 14.6547 17.6734 14.6382C17.6753 14.6369 17.6772 14.6354 17.6789 14.6338C18.1109 14.2744 18.4962 13.8622 18.8257 13.407C19.0005 13.1599 19.1407 13.1254 19.3983 13.2361C19.2246 13.5413 19.3506 14.0607 19.7232 14.3018C19.8136 14.3639 19.9211 14.3962 20.0308 14.3942C20.1404 14.3921 20.2467 14.3558 20.3347 14.2903C20.4557 14.2074 20.5552 14.0967 20.6248 13.9676C20.6944 13.8384 20.732 13.6945 20.7347 13.5478C20.8541 13.5539 20.9741 13.5544 21.093 13.5665C21.3155 13.59 21.3971 13.6821 21.3889 13.9051C21.3807 14.1281 21.3538 14.35 21.3724 14.5763C21.3921 14.8912 21.4861 15.1969 21.647 15.4683C21.697 15.5431 21.7241 15.6309 21.7251 15.7209C21.7261 15.8109 21.7008 15.8993 21.6524 15.9751C21.4439 16.3471 21.2681 16.7365 21.127 17.1389V17.1389ZM16.5978 18.8896C16.4765 18.9728 16.3608 19.064 16.2515 19.1624C16.3041 19.1252 16.3551 19.0896 16.4022 19.0545C16.4707 19.0024 16.5359 18.9471 16.5978 18.8896Z" fill="#08192E"/>
<path d="M21.1714 11.6964C21.0146 12.4098 20.5275 12.9122 20.0848 12.8114C19.4525 12.6673 19.4092 12.0569 19.5659 11.3435C19.7226 10.6301 20.2086 10.1315 20.6519 10.2285C21.0952 10.3255 21.3281 10.983 21.1714 11.6964Z" fill="#D77062"/>
<path d="M20.0937 10.5605C19.9298 10.5074 19.7655 10.4564 19.6027 10.4011C18.8099 10.1337 18.2702 9.62412 18.1387 8.77428C18.0439 8.1606 18.2 7.60993 18.7019 7.20118C18.9759 6.97817 19.2921 6.8779 19.6466 6.95077C20.3676 7.09926 20.5545 7.69103 20.4816 8.18635C20.4407 8.42277 20.3712 8.65333 20.2745 8.87291C20.2459 8.9251 20.2335 8.9846 20.2389 9.04386C20.3172 9.51343 20.4898 9.92164 20.938 10.1611C21.0583 10.2224 21.1689 10.301 21.2662 10.3945C21.3228 10.4445 21.3648 10.5089 21.3878 10.5809C21.4108 10.6529 21.4138 10.7297 21.3966 10.8033C21.3747 10.9051 21.3775 11.0107 21.4049 11.1112C21.4564 11.326 21.3692 11.5232 21.298 11.7199C21.241 11.8158 21.1928 11.9183 21.1062 11.9923C21.0021 12.0821 20.9276 12.0739 20.8443 11.9616C20.7631 11.8526 20.7282 11.7159 20.7474 11.5813C20.7746 11.3812 20.8569 11.1927 20.9852 11.0367C21.0975 10.8942 21.0936 10.8805 20.9276 10.8C20.6635 10.6718 20.3764 10.6235 20.0937 10.5605Z" fill="#212443"/>
<path d="M21.5883 12.0306C21.4557 12.2936 21.23 12.4476 21.0848 12.3747C20.9396 12.3018 20.9286 12.0284 21.0612 11.7654C21.1938 11.5024 21.4196 11.3479 21.5648 11.4213C21.71 11.4947 21.7209 11.7676 21.5883 12.0306ZM19.7829 11.4252C19.818 11.6876 19.7281 11.9156 19.5818 11.9353C19.4355 11.955 19.2881 11.7588 19.2531 11.4964C19.218 11.2339 19.3079 11.006 19.4542 10.9868C19.6005 10.9676 19.7478 11.1632 19.7829 11.4252Z" fill="#D77062"/>
<path d="M29.0976 9.64385C29.0247 9.54631 28.622 9.89589 28.622 9.89589C28.622 9.89589 29.1179 9.40714 29.0757 9.32386C29.0088 9.19235 28.4538 9.75672 28.4538 9.75672C28.4538 9.75672 29.0423 9.12715 28.9113 9.0329C28.7803 8.93866 28.268 9.62741 28.268 9.62741C28.268 9.62741 28.7097 8.94962 28.5836 8.88825C28.4576 8.82688 27.9217 9.72384 27.9217 9.72384C27.9217 9.72384 27.8434 9.20167 27.736 9.21098C27.5546 9.22632 27.6752 10.343 27.6752 10.343L28.1502 10.7348C28.1502 10.7348 29.171 9.74083 29.0976 9.64385ZM14.0981 4.54866C14.1879 4.46647 14.5194 4.88399 14.5194 4.88399C14.5194 4.88399 14.1222 4.3125 14.1786 4.23853C14.2685 4.12128 14.7106 4.77824 14.7106 4.77824C14.7106 4.77824 14.2476 4.05114 14.3939 3.98265C14.5402 3.91416 14.9167 4.68509 14.9167 4.68509C14.9167 4.68509 14.6071 3.93772 14.7424 3.90101C14.8778 3.8643 15.2394 4.84345 15.2394 4.84345C15.2394 4.84345 15.4125 4.34483 15.5161 4.37332C15.6914 4.42209 15.3676 5.49712 15.3676 5.49712L14.829 5.7952C14.829 5.7952 14.0082 4.63085 14.0981 4.54866Z" fill="#D77062"/>
<path d="M27.4693 10.4296C27.7021 10.6734 27.9389 10.8504 28.2824 10.8904C28.4566 10.9112 28.455 10.6378 28.2824 10.6175C28.0167 10.5863 27.8391 10.4214 27.6621 10.2367C27.5405 10.109 27.3476 10.3025 27.4693 10.4296ZM15.6472 5.43082C15.4394 5.4207 15.2324 5.46231 15.0447 5.55192C14.8569 5.64153 14.6944 5.77633 14.5716 5.94423C14.4653 6.08395 14.7025 6.22039 14.8077 6.08176C14.9058 5.9546 15.0337 5.85361 15.1801 5.78775C15.3266 5.72189 15.487 5.69321 15.6472 5.70424C15.8225 5.713 15.822 5.43959 15.6472 5.43082ZM19.1106 12.7753C18.6352 13.7199 17.8491 14.4722 16.8844 14.9056C16.085 15.2661 15.0461 15.6037 14.9223 16.6151C14.9113 16.7023 15.0483 16.7017 15.0587 16.6151C15.1984 15.4771 16.6137 15.2601 17.4274 14.7801C18.2002 14.3199 18.8253 13.6482 19.229 12.8443C19.2684 12.7659 19.1506 12.6969 19.1106 12.7753V12.7753ZM14.9151 17.0392C14.8503 17.2703 14.7568 17.4923 14.6368 17.7C14.6285 17.7156 14.6265 17.7338 14.6313 17.7508C14.6361 17.7678 14.6473 17.7822 14.6625 17.7912C14.6778 17.8001 14.6958 17.8028 14.713 17.7986C14.7302 17.7945 14.7451 17.7839 14.7546 17.7691C14.8807 17.551 14.979 17.3179 15.0472 17.0754C15.0513 17.0581 15.0486 17.0399 15.0395 17.0246C15.0305 17.0092 15.0158 16.9981 14.9987 16.9934C14.9815 16.9887 14.9632 16.9908 14.9476 16.9994C14.932 17.0079 14.9204 17.0222 14.9151 17.0392V17.0392ZM21.3549 13.2865C21.4832 13.693 21.3308 14.0886 21.3341 14.5001C21.3369 14.8059 21.4278 15.0996 21.5445 15.379C21.7922 15.9752 22.1845 16.5527 22.1045 17.2266C22.0941 17.3137 22.2305 17.3127 22.2409 17.2266C22.3166 16.5894 21.9834 16.0321 21.7325 15.4716C21.5807 15.1335 21.4563 14.7801 21.4733 14.4042C21.4908 14.0103 21.6092 13.6382 21.487 13.2498C21.4607 13.1665 21.3286 13.2021 21.3549 13.2865V13.2865ZM22.2442 18.0085C22.2292 18.1841 22.2522 18.3609 22.3116 18.5269C22.3407 18.6091 22.4727 18.5734 22.4431 18.4902C22.3877 18.336 22.3664 18.1717 22.3807 18.0085C22.3878 17.9209 22.2514 17.9214 22.2442 18.0085V18.0085ZM21.0558 23.3552C21.7473 23.3437 22.5209 22.9497 22.7691 22.2763C23.0508 21.512 22.733 20.7224 22.4355 20.0167C22.4015 19.9361 22.2837 20.0057 22.3177 20.0857C22.5818 20.7115 22.8656 21.3991 22.6853 22.0873C22.5012 22.7892 21.7533 23.2067 21.0558 23.2188C21.0382 23.2195 21.0215 23.227 21.0093 23.2397C20.9971 23.2524 20.9902 23.2694 20.9902 23.287C20.9902 23.3046 20.9971 23.3216 21.0093 23.3343C21.0215 23.347 21.0382 23.3545 21.0558 23.3552V23.3552ZM14.3809 18.6315C13.8626 19.0025 13.445 19.5877 13.3793 20.2359C13.3514 20.5115 13.4215 20.8167 13.6681 20.9767C13.9716 21.1734 14.3595 20.9317 14.6499 21.1366C14.7217 21.1876 14.7902 21.0687 14.719 21.0188C14.5546 20.9027 14.3836 20.912 14.1897 20.9241C14.0012 20.9367 13.8023 20.9449 13.6598 20.7931C13.5113 20.6347 13.4944 20.4019 13.5229 20.1986C13.6061 19.6134 13.976 19.089 14.4499 18.7499C14.5212 18.6989 14.4527 18.5806 14.3809 18.6315ZM16.2904 13.795C16.8188 13.4379 17.2704 12.9786 17.6186 12.4443C17.9668 11.91 18.2045 11.3114 18.3178 10.6838C18.3331 10.5978 18.2016 10.5605 18.1863 10.6471C18.0776 11.2577 17.8478 11.8405 17.5103 12.3609C17.1728 12.8813 16.7346 13.3288 16.2214 13.6771C16.1491 13.7259 16.2176 13.8443 16.2904 13.795V13.795ZM22.4261 11.8575C22.2887 12.6508 22.3329 13.465 22.5555 14.2388C22.7187 14.8207 22.9143 15.4809 23.4765 15.7949C23.5538 15.8376 23.6223 15.7198 23.5456 15.6771C22.9905 15.367 22.8119 14.6744 22.659 14.1012C22.4646 13.3818 22.43 12.6285 22.5576 11.8942C22.573 11.8082 22.4409 11.7709 22.4261 11.8575V11.8575Z" fill="#4F7CA6"/>
<path d="M18.9255 13.5336C18.857 14.0656 19.1331 14.584 19.6433 14.7796C20.2175 14.9998 20.6158 14.6837 20.8838 14.1993C20.9265 14.1226 20.8087 14.0536 20.766 14.1308C20.6657 14.3116 20.5605 14.5105 20.378 14.6218C20.1512 14.7604 19.8531 14.7325 19.6213 14.6223C19.2005 14.4229 19.0044 13.9818 19.0625 13.5336C19.0734 13.4465 18.937 13.4476 18.9255 13.5336ZM15.7957 20.0024C15.6461 19.5537 16.2521 19.3098 16.5414 19.0983C17.2942 18.549 17.9091 17.8323 18.3376 17.0047C18.3786 16.9269 18.2608 16.8579 18.2197 16.9357C17.8666 17.614 17.3867 18.2183 16.8061 18.7159C16.5365 18.9455 16.2346 19.1186 15.9546 19.3312C15.7261 19.5055 15.5667 19.7465 15.6642 20.0386C15.6916 20.1219 15.8237 20.0863 15.7957 20.0024ZM18.4685 16.1225C18.4716 16.253 18.4335 16.3811 18.3595 16.4886C18.3102 16.5614 18.4285 16.6299 18.4773 16.5576C18.5637 16.4292 18.6082 16.2773 18.6049 16.1225C18.6042 16.1049 18.5967 16.0883 18.584 16.076C18.5713 16.0638 18.5544 16.057 18.5367 16.057C18.5191 16.057 18.5021 16.0638 18.4894 16.076C18.4767 16.0883 18.4692 16.1049 18.4685 16.1225V16.1225Z" fill="black"/>
<path d="M19.5621 21.3339C20.247 22.8292 19.8426 24.5113 19.035 25.8691C18.8931 26.108 18.6241 26.3748 18.612 26.6652C18.5983 26.9858 18.761 27.3447 18.8098 27.6625C18.932 28.4509 18.8509 29.3095 18.2504 29.8925C18.2421 29.901 18.2362 29.9115 18.2332 29.923C18.2302 29.9345 18.2302 29.9466 18.2332 29.958C18.2363 29.9695 18.2422 29.98 18.2505 29.9885C18.2588 29.997 18.2691 30.0032 18.2805 30.0065C18.4521 30.058 18.6002 30.168 18.6991 30.3173C18.798 30.4667 18.8414 30.6459 18.8219 30.824C18.822 30.8359 18.8252 30.8476 18.8313 30.8579C18.8373 30.8682 18.8459 30.8767 18.8563 30.8827C18.8667 30.8886 18.8784 30.8917 18.8903 30.8917C18.9022 30.8917 18.914 30.8886 18.9243 30.8826C19.2696 30.6832 19.6639 30.5846 20.0624 30.5982C20.4609 30.6118 20.8476 30.7369 21.1785 30.9593C21.1916 30.9667 21.2068 30.9696 21.2217 30.9676C21.2366 30.9656 21.2505 30.9589 21.2612 30.9484C21.5225 30.7256 21.8465 30.5894 22.1885 30.5588C22.5305 30.5282 22.8735 30.6046 23.1702 30.7774C23.1858 30.7857 23.204 30.7877 23.221 30.7829C23.2379 30.7781 23.2524 30.7669 23.2613 30.7517C23.2703 30.7365 23.2729 30.7184 23.2688 30.7012C23.2647 30.6841 23.2541 30.6692 23.2393 30.6596C22.908 30.4643 22.5224 30.3815 22.1401 30.4235C21.9702 30.442 21.8039 30.4844 21.6459 30.5495C21.4914 30.6136 21.2941 30.8169 21.1445 30.7741C20.9621 30.7221 20.7949 30.5939 20.6048 30.5407C20.4147 30.4879 20.2186 30.4597 20.0213 30.4569C19.6118 30.4517 19.2087 30.5581 18.8553 30.7648C18.8898 30.7846 18.9243 30.8043 18.9583 30.824C18.9779 30.6161 18.9247 30.4077 18.8078 30.2347C18.6908 30.0616 18.5174 29.9344 18.3172 29.875C18.3271 29.9128 18.3369 29.9512 18.3473 29.989C18.8558 29.4953 19.0312 28.7868 18.9934 28.0942C18.9709 27.6811 18.8684 27.2882 18.7851 26.8855C18.7276 26.6093 18.8328 26.4433 18.9758 26.2225C19.0892 26.0488 19.1957 25.8707 19.2953 25.6883C20.035 24.336 20.3424 22.7103 19.6799 21.2648C19.6432 21.1854 19.5254 21.2544 19.5621 21.3339Z" fill="#08192E"/>
<path d="M15.7348 27.4937C15.3875 27.091 15.0373 26.6598 15.0987 26.0938C15.108 26.0066 14.9716 26.0072 14.9623 26.0938C14.8971 26.6926 15.2691 27.1622 15.6384 27.5901C15.6959 27.657 15.7918 27.56 15.7348 27.4937ZM15.6718 27.5162C15.5244 28.7665 15.4384 30.0509 16.2258 31.1188C16.2773 31.1889 16.3962 31.1204 16.3436 31.0498C15.5699 30.001 15.6642 28.7419 15.8083 27.5162C15.8187 27.4291 15.6817 27.4296 15.6718 27.5162V27.5162ZM17.0307 31.9763C17.2241 32.1999 17.4236 32.4284 17.6822 32.5785C17.9562 32.7379 18.2783 32.8168 18.5808 32.904C18.8569 32.984 19.1517 33.0903 19.4438 33.0404C19.7435 32.9894 20.2558 32.6826 20.532 32.8985C20.5999 32.9516 20.6974 32.8557 20.6284 32.8015C20.4416 32.6557 20.2344 32.6963 20.0158 32.7429C19.6334 32.824 19.3402 32.9637 18.9408 32.8629C18.6136 32.7854 18.2919 32.6867 17.9775 32.5675C17.6203 32.4262 17.3732 32.1643 17.1277 31.8793C17.0696 31.813 16.9737 31.91 17.0307 31.9763V31.9763ZM15.1108 26.8378C14.6891 27.3789 14.2031 27.8667 13.6637 28.2904C13.653 28.3011 13.6462 28.315 13.6442 28.3299C13.6422 28.3449 13.6452 28.3601 13.6527 28.3731C13.9549 28.9508 14.0294 29.6209 13.8615 30.2509C13.8572 30.2681 13.8599 30.2864 13.8689 30.3017C13.8779 30.317 13.8925 30.3283 13.9096 30.333C13.9268 30.3377 13.9451 30.3355 13.9606 30.3269C13.9762 30.3184 13.9878 30.3041 13.993 30.287C14.0775 29.9749 14.1062 29.6503 14.0779 29.3282C14.0489 29.0186 13.9245 28.76 13.8511 28.4663C13.8209 28.3452 13.805 28.3742 13.9064 28.2707C13.9601 28.2159 14.0275 28.1704 14.0856 28.1205C14.2149 28.0082 14.3415 27.8926 14.4636 27.7726C14.7297 27.5098 14.978 27.2298 15.2072 26.9343C15.2609 26.8658 15.165 26.7683 15.1108 26.8378ZM13.9974 30.4427C16.0773 30.7451 16.5266 34.0935 18.8504 33.7395C18.9375 33.7264 18.9002 33.5949 18.8142 33.608C17.5967 33.7932 16.7765 32.6897 16.1233 31.8459C15.5864 31.1517 14.9486 30.4438 14.0335 30.3106C13.9475 30.2986 13.9102 30.4301 13.9974 30.4427ZM16.8954 20.8117C16.5956 20.2008 15.9491 19.5098 15.2192 19.4786C14.8861 19.4644 14.6291 19.6474 14.3771 19.8413C14.2258 19.957 14.0664 20.0874 13.8752 20.1263C13.5848 20.186 13.296 20.0353 13.0462 19.9104C12.8889 19.8315 12.7508 20.0671 12.9081 20.146C13.2275 20.3065 13.5809 20.472 13.9475 20.3898C14.2516 20.3219 14.4702 20.0928 14.719 19.9235C15.4817 19.4046 16.3398 20.2983 16.6592 20.9498C16.737 21.1076 16.9726 20.9695 16.8954 20.8117V20.8117ZM18.0553 21.032C18.0027 20.9729 17.938 20.9258 17.8657 20.8938C17.7933 20.8618 17.7149 20.8457 17.6358 20.8465C17.5567 20.8474 17.4787 20.8651 17.407 20.8986C17.3353 20.9321 17.2717 20.9806 17.2203 21.0408C16.8965 21.3969 16.8208 21.9087 16.5803 22.3136C16.4532 22.5273 16.2625 22.7443 16.0126 22.81C15.7458 22.8796 15.491 22.7256 15.2307 22.69C15.0544 22.6664 14.875 22.6982 14.7175 22.7809C14.5599 22.8637 14.432 22.9933 14.3513 23.1519C14.2686 23.3075 14.5047 23.4456 14.5869 23.29C14.6306 23.1977 14.6975 23.1183 14.7812 23.0598C14.8649 23.0013 14.9625 22.9656 15.0642 22.9563C15.291 22.9382 15.5047 23.0593 15.7261 23.0917C15.8623 23.1094 16.0007 23.0972 16.1318 23.0561C16.2628 23.0149 16.3833 22.9457 16.485 22.8533C16.7326 22.6429 16.88 22.3563 17.0028 22.0605C17.1101 21.8013 17.4367 20.7745 17.8619 21.2254C17.983 21.3531 18.1759 21.1597 18.0553 21.032Z" fill="#3F5F85"/>
<path d="M19.0328 21.1958C19.6498 22.5881 19.4142 24.2105 18.4991 25.411C18.2926 25.6817 18.1123 25.9518 18.1046 26.3036C18.0953 26.7222 18.206 27.148 18.2279 27.5671C18.2718 28.4087 18.1375 29.2904 17.5381 29.9249C17.5216 29.942 17.5099 29.963 17.5039 29.986C17.498 30.009 17.498 30.0331 17.5041 30.056C17.5101 30.079 17.522 30.1 17.5385 30.117C17.555 30.1341 17.5756 30.1466 17.5984 30.1533C17.8336 30.2247 18.0378 30.3736 18.1776 30.5757C18.3175 30.7779 18.3849 31.0214 18.3687 31.2667C18.3589 31.4426 18.6317 31.4421 18.6422 31.2667C18.6578 30.9617 18.5707 30.6601 18.3946 30.4105C18.2186 30.1608 17.9639 29.9775 17.6712 29.8898C17.691 29.966 17.7112 30.0421 17.7315 30.1183C18.2909 29.526 18.5013 28.7276 18.5096 27.9288C18.5145 27.4455 18.429 26.9765 18.3874 26.4976C18.3435 25.9968 18.6219 25.7239 18.8876 25.3425C19.7545 24.0993 19.8783 22.4341 19.269 21.0577C19.1978 20.8977 18.9621 21.0364 19.0328 21.1958ZM18.663 31.4185C19.1139 31.2471 19.6022 31.1978 20.0783 31.2755C20.5545 31.3533 21.0016 31.5553 21.3747 31.8612C21.5089 31.973 21.7034 31.7807 21.5681 31.6678C21.1608 31.3277 20.6709 31.1012 20.148 31.0112C19.625 30.9213 19.0876 30.971 18.5901 31.1555C18.4274 31.2169 18.498 31.481 18.663 31.4185V31.4185ZM21.6717 31.7785C21.7527 31.5358 22.0492 31.4777 22.2727 31.4415C22.6103 31.3867 22.9533 31.3725 23.2864 31.458C23.4568 31.5018 23.5297 31.2382 23.3587 31.1944C22.9401 31.087 22.4859 31.1078 22.0651 31.2032C21.773 31.2689 21.5078 31.4081 21.4081 31.7056C21.3522 31.8728 21.6158 31.9445 21.6717 31.7785V31.7785ZM23.7056 30.1533C23.8902 30.3884 23.8869 30.6854 23.8793 30.9698C23.871 31.2772 23.859 31.5845 23.8491 31.8919C23.8398 32.1812 23.8303 32.4705 23.8206 32.7599C23.8119 33.0179 23.8776 33.4535 23.6683 33.6437C23.6031 33.7028 23.7001 33.7993 23.7653 33.7401C23.9395 33.5817 23.9368 33.3593 23.9445 33.1396C23.9598 32.7237 23.9719 32.3078 23.9856 31.8919C23.9982 31.5155 24.0261 31.1363 24.0184 30.7599C24.0135 30.4996 23.9653 30.264 23.8026 30.0564C23.7483 29.9873 23.6519 30.0849 23.7056 30.1533V30.1533ZM19.7051 32.9752C19.9418 33.4826 19.7977 34.0245 19.7462 34.5538C19.6969 35.0579 19.8744 35.648 19.5495 36.0841C19.4969 36.1548 19.6158 36.2233 19.6679 36.1532C20.0114 35.6907 19.8301 35.0858 19.8827 34.5538C19.938 33.9932 20.0722 33.4409 19.8229 32.9061C19.7857 32.8267 19.6679 32.8957 19.7051 32.9752V32.9752Z" fill="#08192E"/>
</g>
<defs>
<clipPath id="clip0">
<rect width="40" height="40" rx="10" fill="white"/>
</clipPath>
</defs>
</svg>
