<svg width="42" height="42" viewBox="0 0 42 42" fill="none" xmlns="http://www.w3.org/2000/svg">
<rect width="42" height="42" rx="10" fill="url(#paint0_linear)"/>
<path d="M21.0414 32.6666C20.3215 32.6666 19.6029 32.6063 18.8932 32.4862C18.1906 32.367 17.4994 32.1885 16.827 31.9526C16.1574 31.7174 15.5094 31.4248 14.8902 31.078C14.269 30.7296 13.68 30.3268 13.1302 29.8742L10.9429 31.5104C10.8556 31.592 10.7405 31.6373 10.6209 31.6373C10.5014 31.6373 10.3863 31.592 10.299 31.5104C10.2306 31.4273 10.1958 31.3217 10.2013 31.2142C10.2043 31.1602 10.2177 31.1072 10.2408 31.0582C10.2662 31.0052 10.3016 30.9576 10.3451 30.9181L17.5918 25.1778C17.6814 25.0998 17.795 25.055 17.9137 25.0508H26.6529L26.7907 24.6277H25.6408C25.5054 24.6277 25.3901 24.5876 25.3073 24.5114C25.2263 24.4298 25.1809 24.3196 25.1809 24.2046C25.1809 24.0897 25.2263 23.9794 25.3073 23.8979C25.3901 23.8218 25.5055 23.7815 25.6408 23.7815H27.0666L27.2046 23.3585H26.1008C25.9654 23.3585 25.85 23.3183 25.7673 23.2421C25.6863 23.1606 25.6408 23.0503 25.6408 22.9354C25.6408 22.8205 25.6863 22.7102 25.7673 22.6286C25.85 22.5525 25.9655 22.5123 26.1008 22.5123H27.4806L27.5725 22.1315H26.5607C26.4253 22.1315 26.31 22.0913 26.2272 22.0151C26.1857 21.9758 26.1529 21.9282 26.1311 21.8753C26.1093 21.8224 26.099 21.7655 26.1009 21.7084C26.0989 21.6219 26.1237 21.537 26.1719 21.4653L24.491 23.8239C24.447 23.8671 24.3989 23.9061 24.3474 23.9402C24.2943 23.9744 24.2324 23.9927 24.1692 23.9931L22.3754 24.2469H22.3295C22.2592 24.2452 22.1903 24.2271 22.1282 24.1941C22.0676 24.1631 22.0115 24.1239 21.9615 24.0777C21.8998 24.0226 21.8592 23.9479 21.8466 23.8662C21.8366 23.7948 21.8445 23.7221 21.8696 23.6546L23.2491 19.9735H18.0517L9.37532 25.1052C9.32937 25.1475 9.2358 25.1475 9.14537 25.1475C9.06894 25.1458 8.99402 25.1259 8.92687 25.0894C8.86021 25.0579 8.80717 25.0035 8.77754 24.936C8.74376 24.8942 8.72031 24.845 8.7091 24.7925C8.69747 24.7388 8.69692 24.6833 8.70749 24.6293C8.71875 24.5715 8.74205 24.5166 8.7759 24.4683C8.81229 24.4167 8.86005 24.374 8.9155 24.3437L17.6837 19.1698C17.7099 19.1675 17.7359 19.1623 17.761 19.1542H17.7613C17.8107 19.1388 17.8619 19.1298 17.9137 19.1276H18.7416V18.0275C18.7405 17.9635 18.7543 17.9001 18.7818 17.8424C18.814 17.7786 18.8638 17.7254 18.9254 17.689L25.3648 13.2886C25.443 13.2384 25.5343 13.2127 25.6272 13.2148C25.7007 13.2147 25.7735 13.2285 25.8418 13.2556C25.9064 13.2802 25.9639 13.3207 26.0088 13.3733C26.0417 13.4164 26.0654 13.4659 26.0784 13.5186C26.0914 13.5712 26.0935 13.626 26.0844 13.6795C26.0764 13.7362 26.0578 13.7909 26.0297 13.8408C26.0019 13.8904 25.9634 13.9331 25.9168 13.9656L19.6615 18.2389V19.1274H23.571L24.215 17.2658C24.2533 17.1818 24.3159 17.1112 24.3948 17.0632C24.4747 17.0132 24.567 16.9863 24.6614 16.9854C24.713 16.9852 24.7643 16.9942 24.8129 17.0119C24.8743 17.0347 24.9304 17.0696 24.9779 17.1147C25.0235 17.1579 25.0599 17.2099 25.0849 17.2675C25.1058 17.3137 25.1169 17.3636 25.1176 17.4143C25.1182 17.4649 25.1085 17.5151 25.0889 17.5618L22.9271 23.2315L23.755 23.1046L27.9866 17.1812L28.0555 17.1177L28.0569 17.1164L28.1245 17.0542L31.7118 14.4403C31.7939 14.3943 31.8862 14.3698 31.9803 14.369C32.0545 14.3675 32.1279 14.385 32.1936 14.4197C32.2593 14.4543 32.3151 14.5051 32.3558 14.5673C32.3897 14.6161 32.4132 14.6714 32.4246 14.7297C32.436 14.7881 32.4352 14.8481 32.4222 14.9061C32.4093 14.9579 32.3854 15.0062 32.3521 15.0479C32.3152 15.0937 32.2696 15.1317 32.2178 15.1596L31.1942 15.8995C31.4737 16.3291 31.7236 16.7772 31.9421 17.2408C32.1637 17.7099 32.3538 18.1932 32.5111 18.6876C32.6671 19.1765 32.788 19.6759 32.8731 20.182C32.9559 20.6724 32.9984 21.1688 33 21.6661C33.0001 22.7756 32.8176 23.8776 32.46 24.9279C32.3431 25.2712 32.2084 25.6081 32.0563 25.9373C31.7514 26.5956 31.3809 27.2215 30.9504 27.8055C30.516 28.3943 30.026 28.9401 29.4871 29.4352C28.9397 29.9379 28.3465 30.3886 27.7154 30.7813C27.0712 31.1821 26.3913 31.5226 25.6846 31.7987C24.959 32.0818 24.2088 32.2971 23.4436 32.4421C23.0541 32.5159 22.6557 32.5722 22.2595 32.6095C21.8574 32.6474 21.4475 32.6666 21.0414 32.6666ZM18.0977 25.897L13.8661 29.3665C14.3623 29.7586 14.891 30.1078 15.4465 30.4103C16.0069 30.7152 16.5917 30.9728 17.195 31.1805C17.8067 31.3909 18.4349 31.5503 19.0729 31.6572C19.7234 31.7658 20.3818 31.8204 21.0414 31.8204C21.4163 31.8204 21.7946 31.8027 22.1659 31.7677C22.5316 31.7333 22.8993 31.6813 23.2588 31.6132C23.9652 31.4794 24.6577 31.2805 25.3275 31.0192C25.9799 30.7643 26.6074 30.45 27.2022 30.0801C27.7847 29.7176 28.3322 29.3016 28.8375 28.8376C29.335 28.3806 29.7873 27.8768 30.1883 27.3333C30.5857 26.7942 30.9277 26.2164 31.2092 25.6088C31.4911 24.999 31.7076 24.3611 31.8549 23.7058C32.0048 23.0362 32.0804 22.3521 32.0802 21.666C32.0789 21.2095 32.0433 20.7538 31.9739 20.3026C31.9026 19.8361 31.8002 19.3748 31.6673 18.922C31.5345 18.4673 31.3717 18.0219 31.1799 17.5888C30.9935 17.1667 30.7764 16.7588 30.5303 16.3684L28.7224 17.7313L27.7565 19.1275H28.8604C28.9293 19.1264 28.9977 19.139 29.0617 19.1645C29.1285 19.1922 29.1863 19.238 29.2284 19.2967C29.2722 19.3538 29.3053 19.4183 29.3261 19.4871C29.3444 19.5496 29.3424 19.6163 29.3203 19.6775L27.4806 25.6009C27.4335 25.6862 27.3664 25.7588 27.2851 25.8124C27.2071 25.8658 27.1152 25.8952 27.0206 25.897H26.5607V27.1663C26.5626 27.2235 26.5522 27.2804 26.5305 27.3333C26.5087 27.3862 26.4759 27.4338 26.4343 27.4731C26.3516 27.5492 26.2362 27.5894 26.1009 27.5894H19.2015C19.0661 27.5894 18.9508 27.5492 18.868 27.4731C18.8265 27.4338 18.7937 27.3862 18.7719 27.3333C18.7501 27.2804 18.7398 27.2235 18.7417 27.1663V25.897H18.0977ZM19.6615 25.897V26.7432H25.6408V25.897H19.6615V25.897ZM27.2046 20.0159L26.1781 21.4564C26.1927 21.4366 26.2091 21.4182 26.2272 21.4016C26.3099 21.3255 26.4254 21.2852 26.5607 21.2852H27.8945L28.3085 20.0159H27.2046V20.0159Z" fill="#252D51"/>
<path d="M28.358 12.1792C28.4487 12.1792 28.5395 12.1371 28.6302 12.095L31.8809 9.45202C32.0624 9.32573 32.1078 9.07314 31.9716 8.86269C31.8355 8.69429 31.5632 8.65207 31.3365 8.77836L28.0858 11.4215C27.9043 11.5478 27.8589 11.8004 27.9951 12.0109C28.0858 12.1372 28.2219 12.1792 28.358 12.1792Z" fill="#252D51"/>
<path d="M14.8037 13.1336C14.8886 13.1321 14.9702 13.1006 15.034 13.0446C16.8519 11.9391 18.9386 11.3538 21.0665 11.3522C23.0898 11.3505 25.0769 11.8886 26.8227 12.9108C27.053 13.0444 27.3293 12.9553 27.4674 12.7772C27.6056 12.5545 27.5134 12.2873 27.3293 12.1537C25.4412 11.0405 23.2769 10.4616 21.0665 10.4616C18.764 10.4616 16.5075 11.085 14.5735 12.332C14.3432 12.4656 14.2973 12.7328 14.4353 12.9554C14.5274 13.0445 14.6656 13.1336 14.8037 13.1336Z" fill="#252D51"/>
<path d="M9.57076 23.2489H9.61757C9.85097 23.2063 10.0377 22.9933 10.0377 22.7803C9.99103 22.3543 9.94433 21.9709 9.94433 21.5448C9.94433 18.9035 11.0646 16.3474 13.0718 14.4303C13.2585 14.2599 13.2585 14.0043 13.0718 13.8339C12.9829 13.7517 12.8662 13.7061 12.7451 13.7061C12.6239 13.7061 12.5072 13.7517 12.4183 13.8339C10.2244 15.9214 9.01074 18.6479 9.01074 21.5449C9.01074 21.9709 9.05741 22.4395 9.10411 22.8655C9.12666 22.973 9.18519 23.0695 9.27002 23.1392C9.35486 23.2089 9.46095 23.2476 9.57076 23.2489V23.2489Z" fill="#252D51"/>
<path d="M9.35754 31.8603L8.91196 32.3057C8.86973 32.3459 8.83611 32.3942 8.81314 32.4478C8.79017 32.5014 8.77832 32.5591 8.77832 32.6174C8.77832 32.6757 8.79017 32.7334 8.81314 32.787C8.83611 32.8405 8.86973 32.8889 8.91196 32.9291C8.95117 32.9726 8.99937 33.0071 9.05322 33.0302C9.10708 33.0533 9.16531 33.0644 9.22388 33.0627C9.28245 33.0644 9.34068 33.0533 9.39453 33.0302C9.44839 33.0071 9.49659 32.9726 9.53579 32.9291L9.98134 32.4838C10.0236 32.4436 10.0572 32.3952 10.0802 32.3416C10.1031 32.288 10.115 32.2304 10.115 32.1721C10.115 32.1138 10.1031 32.0561 10.0802 32.0025C10.0572 31.9489 10.0236 31.9005 9.98134 31.8603C9.94111 31.8181 9.89272 31.7845 9.8391 31.7616C9.78549 31.7386 9.72777 31.7268 9.66944 31.7268C9.61111 31.7268 9.55339 31.7386 9.49977 31.7616C9.44616 31.7845 9.39777 31.8181 9.35754 31.8603V31.8603Z" fill="#252D51"/>
<defs>
<linearGradient id="paint0_linear" x1="21" y1="-21" x2="-21" y2="21" gradientUnits="userSpaceOnUse">
<stop stop-color="#CDE4EF"/>
<stop offset="0.43175" stop-color="#BEE0EF"/>
<stop offset="1" stop-color="#ABD9EE"/>
</linearGradient>
</defs>
</svg>
