<svg width="40" height="40" viewBox="0 0 40 40" fill="none" xmlns="http://www.w3.org/2000/svg">
<rect width="40" height="40" rx="10" fill="#F0F3E9"/>
<g clip-path="url(#clip0)">
<path d="M9.34375 26.9995C9.34379 26.9995 9.34384 26.9996 9.34388 26.9996C14.2194 31.8751 22.1241 31.8751 26.9996 26.9996C31.8751 22.1241 31.8751 14.2194 26.9996 9.34388C26.9996 9.34384 26.9995 9.34379 26.9995 9.34375L9.34375 26.9995Z" fill="#98DB7C"/>
<path d="M26.9996 25.8395C22.319 30.52 14.8471 30.7063 9.94329 26.4L9.34375 26.9995C9.34379 26.9995 9.34384 26.9996 9.34388 26.9996C14.2194 31.8751 22.1241 31.8751 26.9996 26.9996C29.585 24.4143 30.7991 20.9772 30.6426 17.5916C30.504 20.5907 29.2898 23.5493 26.9996 25.8395Z" fill="#83C19B"/>
<path d="M10.7892 25.5541C10.7892 25.5542 10.7893 25.5542 10.7893 25.5543C14.8666 29.6315 21.4771 29.6315 25.5543 25.5543C29.6316 21.4771 29.6315 14.8665 25.5543 10.7893C25.5543 10.7892 25.5542 10.7892 25.5542 10.7891L10.7892 25.5541Z" fill="#DE5533"/>
<path d="M25.5543 24.3941C21.6723 28.2762 15.4938 28.4618 11.3919 24.9515L10.7892 25.5541C10.7892 25.5542 10.7893 25.5542 10.7893 25.5543C14.8666 29.6315 21.4771 29.6315 25.5543 25.5543C27.7405 23.3681 28.7539 20.4535 28.5956 17.5917C28.4587 20.0671 27.4453 22.5031 25.5543 24.3941V24.3941Z" fill="#FC2B3A"/>
<path d="M30.6046 14.9993C30.039 12.7709 28.8762 10.7291 27.2416 9.09453C27.1155 8.96846 26.9111 8.96846 26.785 9.09453L21.0321 14.8474C20.906 14.9735 20.906 15.178 21.0321 15.3041C21.1582 15.4301 21.3627 15.4301 21.4887 15.3041L25.5611 11.2317C27.3335 13.1178 28.3062 15.5681 28.3062 18.1682C28.3062 20.8762 27.2517 23.422 25.3369 25.3368C22.9743 27.6994 19.5997 28.7453 16.3102 28.1355C16.1372 28.1036 15.966 28.2211 15.9339 28.3941C15.9018 28.5671 16.0195 28.7384 16.1925 28.7704C16.8496 28.8923 17.5095 28.952 18.1652 28.952C21.0011 28.952 23.7524 27.8344 25.7934 25.7935C27.8302 23.7567 28.9519 21.0487 28.9519 18.1682C28.9519 15.3956 27.9122 12.7831 26.0179 10.7748L27.0102 9.78255C28.4442 11.2942 29.468 13.1462 29.9786 15.1582C30.5002 17.2134 30.4778 19.3796 29.9138 21.4227C29.8682 21.5878 29.9642 21.7648 30.1276 21.8165C30.2998 21.871 30.4883 21.7687 30.5363 21.5946C31.1302 19.4436 31.1538 17.1629 30.6046 14.9993V14.9993Z" fill="black"/>
<path d="M29.9353 22.4332C29.7692 22.3682 29.5819 22.4502 29.5169 22.6162C28.9038 24.1828 27.9847 25.5854 26.7851 26.785C24.4834 29.0867 21.4233 30.3542 18.1683 30.3542C15.0212 30.3542 12.056 29.1692 9.78257 27.0103L10.7746 26.0182C11.9498 27.1247 13.3692 27.9614 14.8985 28.4465C15.0732 28.5021 15.2632 28.396 15.3089 28.219C15.3512 28.0553 15.2548 27.8821 15.0938 27.831C13.641 27.3701 12.3432 26.6071 11.2314 25.5614L20.5754 16.2174C20.7015 16.0912 20.7015 15.8868 20.5754 15.7607C20.4493 15.6346 20.2449 15.6346 20.1188 15.7607L9.09464 26.7849C8.96853 26.911 8.96866 27.1155 9.09477 27.2417C11.5184 29.6653 14.7407 31 18.1682 31C21.5957 31 24.8181 29.6653 27.2417 27.2417C28.5047 25.9787 29.4725 24.5016 30.1183 22.8516C30.1832 22.6855 30.1013 22.4982 29.9353 22.4332V22.4332Z" fill="black"/>
<path d="M21.9436 22.5573C22.1075 22.5573 22.2617 22.4935 22.3776 22.3775C22.4936 22.2616 22.5574 22.1074 22.5574 21.9435C22.5574 21.7795 22.4936 21.6254 22.3776 21.5094C22.3776 21.5094 22.3776 21.5094 22.3776 21.5093C22.2903 21.4221 21.6307 20.9245 21.2777 21.2776C21.1717 21.3837 21.0792 21.5876 21.2409 21.957C21.3116 22.1186 21.4196 22.2876 21.5095 22.3775C21.6254 22.4934 21.7795 22.5573 21.9436 22.5573V22.5573Z" fill="black"/>
<path d="M18.7499 22.7815C18.2558 22.8545 18.2619 23.6804 18.2799 23.8026C18.3248 24.1073 18.5876 24.3271 18.8869 24.3271C19.1421 24.3271 19.3754 24.1635 19.4635 23.9243C19.5592 23.6647 19.447 23.3843 19.3172 23.1573C19.1171 22.8072 18.8983 22.7599 18.7499 22.7815V22.7815Z" fill="black"/>
<path d="M14.9378 23.704C14.8804 23.8576 14.8863 24.0244 14.9544 24.1736C15.0566 24.3975 15.2897 24.5417 15.5362 24.5324C15.7816 24.5231 16.0023 24.363 16.088 24.1333C16.1325 24.0141 16.1605 23.8156 16.1578 23.6393C16.1514 23.2361 15.9826 23.0889 15.8421 23.0365C15.3742 22.8618 14.9809 23.5884 14.9378 23.704V23.704Z" fill="black"/>
<path d="M22.7816 18.75C22.7088 19.2441 23.5015 19.4765 23.6236 19.4945C23.955 19.5431 24.2716 19.3077 24.3205 18.9767C24.3693 18.6455 24.1334 18.3286 23.8026 18.2799C23.6803 18.262 22.8544 18.2559 22.7816 18.75V18.75Z" fill="black"/>
<path d="M23.6393 16.1576C23.8026 16.1601 23.9791 16.1454 24.1333 16.0878C24.4465 15.971 24.611 15.6119 24.4938 15.2981C24.3769 14.9849 24.018 14.8205 23.7041 14.9376C23.5849 14.9821 23.4165 15.091 23.2851 15.2086C22.9846 15.4776 22.984 15.7015 23.0365 15.842C23.089 15.9825 23.2361 16.1512 23.6393 16.1576Z" fill="black"/>
</g>
<defs>
<clipPath id="clip0">
<rect width="22" height="22" fill="white" transform="translate(9 9)"/>
</clipPath>
</defs>
</svg>
