<svg width="40" height="40" viewBox="0 0 40 40" fill="none" xmlns="http://www.w3.org/2000/svg">
<rect width="40" height="40" rx="10" fill="#F0F8FF"/>
<path d="M19.6904 27.1295C19.7526 26.9587 19.8228 26.7852 19.8967 26.6138C19.9666 26.4419 20.0479 26.273 20.1269 26.1079C20.2023 25.9403 20.2936 25.7839 20.3755 25.6284C20.444 25.5073 20.512 25.3917 20.5811 25.2819C19.3427 23.3579 17.969 22.6851 17.969 22.6851C18.8152 24.0666 19.3925 25.59 19.6714 27.178C19.677 27.1621 19.6846 27.1458 19.6904 27.1295Z" fill="#332922"/>
<path d="M20.7826 25.5809C20.7811 25.5771 20.6796 25.7551 20.629 25.8516C20.4794 26.1604 20.3174 26.4925 20.1776 26.8324C20.104 27.0017 20.0323 27.171 19.9683 27.3403C19.9251 27.4565 19.8768 27.5701 19.8344 27.6806C20.0335 29.0028 19.9349 30.3517 19.5457 31.6326C19.5837 31.6006 19.6238 31.5672 19.6619 31.5333C19.8147 31.3857 19.9567 31.2277 20.0867 31.0603C20.2243 30.8868 20.3513 30.7054 20.4668 30.517C20.5286 30.4235 20.585 30.3266 20.6431 30.2317C20.7012 30.1369 20.7558 30.0379 20.8066 29.9395C20.9118 29.7448 21.0128 29.5517 21.1079 29.3617C21.199 29.1712 21.288 28.9845 21.3718 28.8104C21.4295 28.6834 21.485 28.5581 21.5377 28.4411C21.5578 28.396 21.5779 28.3509 21.5977 28.3077C21.6783 28.1276 21.7489 27.9653 21.8122 27.8248C21.8401 27.7613 21.8653 27.7039 21.8882 27.6499C21.7986 26.4241 22.0036 24.6294 23.6701 23.2267C23.596 23.2542 21.7183 23.9828 20.7826 25.5809Z" fill="#332922"/>
<path d="M22.2666 32.851H19.0642C19.1791 32.6155 19.2856 32.3676 19.3839 32.1056C19.5635 32.0159 19.7318 31.9059 19.8854 31.778C20.0627 31.629 20.2257 31.4645 20.3724 31.2864C20.5239 31.1045 20.6628 30.913 20.7882 30.713C20.8552 30.6167 20.9115 30.5124 20.9701 30.4121C21.0286 30.3118 21.0828 30.2093 21.1331 30.1069C21.2411 29.9041 21.3254 29.6953 21.4139 29.4967C21.5394 29.1956 21.6418 28.9069 21.7254 28.6406C21.7545 28.5507 21.7817 28.4646 21.8048 28.3808C21.8362 28.2749 21.8634 28.1719 21.8884 28.0777C21.8988 28.0354 21.91 27.9958 21.9198 27.9568C21.9414 28.1554 21.972 28.3357 21.999 28.4872C22.0022 28.4951 22.0044 28.5033 22.0053 28.5118C22.3412 29.9334 22.4295 31.4005 22.2666 32.851V32.851Z" fill="#332922"/>
<path d="M19.4879 18.7031C19.6722 19.2409 19.6481 19.8264 19.4203 20.3479C18.9184 20.0651 18.5399 19.6118 18.3564 19.0737C18.1729 18.5357 18.1971 17.9504 18.4246 17.4288C18.9267 17.7112 19.3052 18.1648 19.4879 18.7031V18.7031ZM16.115 18.888C16.1843 19.4512 16.4619 19.97 16.8954 20.3461C17.3288 20.7221 17.888 20.9293 18.4669 20.9285C18.3974 20.3653 18.1197 19.8467 17.6863 19.4707C17.2529 19.0947 16.6939 18.8874 16.115 18.888V18.888ZM14.8595 21.2834C15.207 21.7371 15.7123 22.0501 16.2795 22.1632C16.8468 22.2763 17.4367 22.1817 17.9375 21.8971C17.5898 21.4437 17.0846 21.1308 16.5174 21.0177C15.9502 20.9046 15.3604 20.9991 14.8595 21.2834V21.2834ZM20.3987 18.7031C20.2145 19.2409 20.2386 19.8264 20.4665 20.3479C20.9682 20.065 21.3467 19.6116 21.53 19.0736C21.7134 18.5356 21.6891 17.9504 21.4616 17.4288C20.9597 17.7113 20.5814 18.1649 20.3987 18.7031V18.7031ZM22.2004 19.4707C21.7664 19.8462 21.4885 20.3651 21.4199 20.9285C21.9988 20.9293 22.5579 20.7221 22.9914 20.3461C23.4248 19.97 23.7025 19.4512 23.7717 18.888C23.1928 18.8867 22.6335 19.0941 22.2004 19.4707V19.4707ZM23.3691 21.0182C22.8016 21.1307 22.2962 21.4439 21.9493 21.8982C22.4501 22.1827 23.04 22.2774 23.6072 22.1643C24.1745 22.0512 24.6798 21.7381 25.0273 21.2844C24.5267 20.9993 23.9365 20.9045 23.3691 21.0182V21.0182ZM8.68038 19.5877C9.03486 20.0362 9.54487 20.3417 10.1138 20.4464C10.6827 20.5511 11.2711 20.4477 11.7675 20.1558C11.4129 19.7074 10.9029 19.402 10.334 19.2973C9.76511 19.1927 9.17678 19.296 8.68038 19.5877V19.5877ZM11.5791 14.1348C11.6236 14.7004 11.8782 15.2305 12.2948 15.6244C12.7114 16.0184 13.261 16.2489 13.8394 16.2724C13.7947 15.7068 13.54 15.177 13.1235 14.7831C12.7069 14.3892 12.1575 14.1585 11.5791 14.1348V14.1348ZM16.7991 10.7833C16.5453 11.2932 16.4912 11.8765 16.647 12.4229C16.8028 12.9692 17.1577 13.4406 17.6444 13.7477C17.8979 13.2378 17.9518 12.6545 17.7961 12.1083C17.6403 11.562 17.2856 11.0906 16.7991 10.7833V10.7833ZM6.43456 16.403C6.47995 16.9686 6.73552 17.4982 7.15283 17.8915C7.57013 18.2848 8.12018 18.5145 8.69874 18.5369C8.65317 17.9714 8.39755 17.4418 7.98028 17.0486C7.56301 16.6553 7.01306 16.4256 6.43456 16.403V16.403ZM5.07947 18.7454C5.40747 19.2128 5.89902 19.5462 6.46103 19.6823C7.02304 19.8184 7.61649 19.7479 8.12897 19.484C7.80078 19.0168 7.30924 18.6836 6.7473 18.5475C6.18537 18.4114 5.59201 18.4818 5.07947 18.7454V18.7454ZM5.10107 21.4381C5.62362 21.6823 6.21942 21.7302 6.77561 21.5727C7.33179 21.4153 7.80971 21.0634 8.11882 20.5837C7.59621 20.3398 7.00052 20.2921 6.44442 20.4496C5.88833 20.607 5.41041 20.9587 5.10107 21.4381V21.4381ZM11.2409 10.2618C11.0047 10.7797 10.9706 11.3645 11.145 11.9054C11.3195 12.4463 11.6903 12.9057 12.1873 13.1966C12.4233 12.6787 12.4573 12.0939 12.2829 11.5531C12.1084 11.0123 11.7377 10.5528 11.2409 10.2618V10.2618ZM8.90717 11.683C8.96689 12.2471 9.23568 12.7702 9.66264 13.1532C10.0896 13.5362 10.6451 13.7525 11.2238 13.7611C11.1638 13.1969 10.8949 12.6738 10.4678 12.2909C10.0408 11.9079 9.48532 11.6917 8.90652 11.683H8.90717ZM7.61125 14.0578C7.95088 14.5172 8.45067 14.8385 9.01593 14.961C9.5812 15.0834 10.1727 14.9984 10.6783 14.7221C10.3384 14.263 9.83866 13.9418 9.27348 13.8193C8.70829 13.6969 8.11691 13.7817 7.61125 14.0578V14.0578ZM18.5609 7.19598C18.0819 7.51463 17.7388 7.9944 17.5967 8.54436C17.4546 9.09432 17.5233 9.67626 17.7898 10.1799C18.2685 9.86092 18.6112 9.38106 18.7532 8.83114C18.8951 8.28121 18.8264 7.69938 18.56 7.19577L18.5609 7.19598ZM15.8129 7.20254C15.5607 7.71323 15.5085 8.29683 15.6662 8.8427C15.8239 9.38858 16.1805 9.8588 16.6684 10.1642C16.9201 9.65347 16.9721 9.07001 16.8144 8.52425C16.6568 7.97848 16.3005 7.50826 15.8129 7.20254ZM13.437 8.55471C13.4793 9.1204 13.7318 9.65127 14.1467 10.0468C14.5617 10.4422 15.1102 10.6748 15.6885 10.7005C15.6459 10.1349 15.3932 9.60411 14.9782 9.20869C14.5631 8.81327 14.0146 8.58061 13.4364 8.55471H13.437ZM29.5677 19.2974C28.9985 19.4012 28.4881 19.7068 28.134 20.1558C28.6304 20.4477 29.2188 20.5511 29.7878 20.4464C30.3568 20.3417 30.8668 20.0362 31.2213 19.5877C30.725 19.2951 30.1362 19.1917 29.5671 19.2974H29.5677ZM26.7776 14.7837C26.3607 15.177 26.106 15.7069 26.0621 16.2724C26.6404 16.2488 27.1899 16.0182 27.6064 15.6243C28.0229 15.2303 28.2775 14.7004 28.3219 14.1348C27.7433 14.1579 27.1936 14.3889 26.7776 14.7837V14.7837ZM22.105 12.1081C21.9481 12.6543 22.0019 13.238 22.2562 13.7477C22.7432 13.4408 23.0984 12.9695 23.2544 12.4232C23.4105 11.8768 23.3567 11.2933 23.1031 10.7833C22.6155 11.0897 22.2602 11.5614 22.105 12.1081V12.1081ZM31.9209 17.0485C31.503 17.4413 31.2473 17.9712 31.2025 18.5369C31.781 18.5144 32.3309 18.2848 32.7482 17.8916C33.1654 17.4984 33.421 16.9689 33.4665 16.4034C32.8879 16.4251 32.3377 16.6547 31.9209 17.0485ZM33.1535 18.5475C32.5909 18.6826 32.0989 19.016 31.7712 19.484C32.2837 19.7479 32.8771 19.8184 33.4391 19.6823C34.001 19.5462 34.4925 19.2128 34.8205 18.7454C34.3085 18.4812 33.7151 18.4107 33.1535 18.5475V18.5475ZM33.4559 20.4495C32.8999 20.2912 32.3039 20.339 31.7816 20.5837C32.0907 21.0633 32.5685 21.4152 33.1247 21.5727C33.6808 21.7302 34.2766 21.6823 34.7991 21.4381C34.4905 20.9582 34.0126 20.6064 33.4563 20.4495H33.4559ZM27.6182 11.5528C27.443 12.0936 27.477 12.6786 27.7137 13.1964C28.2107 12.9055 28.5815 12.4462 28.7559 11.9053C28.9304 11.3644 28.8963 10.7797 28.6602 10.2618C28.1628 10.5522 27.792 11.0117 27.6182 11.5528V11.5528ZM29.4325 12.2912C29.0049 12.6737 28.7358 13.1971 28.6766 13.7615C29.2555 13.7531 29.8111 13.5369 30.2382 13.1539C30.6653 12.7709 30.9341 12.2477 30.9939 11.6834C30.4146 11.6909 29.8584 11.9071 29.4314 12.2908L29.4325 12.2912ZM30.6269 13.8197C30.0617 13.9416 29.562 14.2629 29.223 14.7225C29.7286 14.9988 30.3201 15.0838 30.8853 14.9614C31.4506 14.8389 31.9504 14.5176 32.29 14.0582C31.7844 13.7812 31.1924 13.6961 30.6269 13.8193V13.8197ZM21.1471 8.83132C21.288 9.3814 21.6306 9.86143 22.1095 10.1799C22.3762 9.67634 22.4451 9.09442 22.3031 8.54442C22.1612 7.99442 21.8182 7.51455 21.3393 7.19577C21.0724 7.69932 21.004 8.28151 21.1471 8.83132V8.83132ZM23.0866 8.52423C22.928 9.06991 22.98 9.65371 23.2326 10.1642C23.7204 9.8587 24.0769 9.38848 24.2346 8.84264C24.3923 8.2968 24.3402 7.71326 24.0882 7.20254C23.6 7.50764 23.2435 7.9781 23.0866 8.52423V8.52423ZM24.9225 9.20868C24.5068 9.60359 24.2539 10.1346 24.2121 10.7005C24.7905 10.675 25.3392 10.4424 25.7543 10.047C26.1694 9.65146 26.422 9.12051 26.4642 8.55471C25.886 8.5799 25.3374 8.81267 24.923 9.20868H24.9225ZM19.9201 8.55534C18.8515 9.73408 18.2613 11.2559 18.2613 12.8326C18.2613 14.4092 18.8515 15.9311 19.9201 17.1098C20.9879 15.9307 21.5776 14.409 21.5776 12.8326C21.5776 11.2562 20.9879 9.73445 19.9201 8.55534V8.55534ZM13.1496 10.6463C12.8258 12.1907 13.0913 13.7978 13.8959 15.1632C14.7004 16.5286 15.988 17.5574 17.5149 18.0548C17.838 16.5105 17.5723 14.9038 16.7679 13.5385C15.9636 12.1733 14.6764 11.1443 13.15 10.6463H13.1496ZM8.35381 15.7744C8.86141 17.2705 9.91138 18.5322 11.3048 19.3205C12.6982 20.1088 14.3383 20.369 15.9144 20.0516C15.4062 18.556 14.3561 17.2947 12.9628 16.5065C11.5696 15.7183 9.92982 15.4578 8.35381 15.7744V15.7744ZM6.81664 22.5653C8.01964 23.6123 9.57274 24.1905 11.1817 24.1905C12.7907 24.1905 14.3438 23.6123 15.5468 22.5653C14.3435 21.5188 12.7905 20.9409 11.1817 20.9409C9.5729 20.9409 8.0199 21.5188 6.81664 22.5653V22.5653ZM23.1836 13.5384C22.3772 14.9029 22.1112 16.5105 22.4365 18.0548C23.9634 17.5575 25.251 16.5286 26.0555 15.1632C26.86 13.7978 27.1255 12.1907 26.8016 10.6463C25.2741 11.1423 23.9863 12.1718 23.1836 13.5384V13.5384ZM26.9889 16.5065C25.5941 17.2929 24.5436 18.5549 24.0374 20.0516C25.6135 20.3689 27.2535 20.1087 28.647 19.3204C30.0404 18.5322 31.0904 17.2705 31.598 15.7744C30.022 15.4554 28.3813 15.716 26.9889 16.5065V16.5065ZM28.7701 20.941C27.1608 20.9388 25.607 21.517 24.4048 22.5653C25.6079 23.6122 27.161 24.1905 28.77 24.1905C30.379 24.1905 31.9321 23.6122 33.1352 22.5653C31.933 21.517 30.3793 20.9388 28.7701 20.941V20.941Z" fill="url(#paint0_linear)" fill-opacity="0.8"/>
<defs>
<linearGradient id="paint0_linear" x1="57.8566" y1="24.1905" x2="13.7861" y2="-12.9987" gradientUnits="userSpaceOnUse">
<stop stop-color="#CD410D"/>
<stop offset="1" stop-color="#FF9659"/>
</linearGradient>
</defs>
</svg>
