<svg width="400" height="400" viewBox="0 0 400 400" fill="none" xmlns="http://www.w3.org/2000/svg">
<rect width="400" height="400" rx="100" fill="#E0F2FF"/>
<g filter="url(#filter0_i)">
<path d="M193.41 200.185C193.41 234.62 170.527 260.835 144.205 260.835C117.883 260.835 95 234.62 95 200.185C95 165.75 117.883 139.534 144.205 139.534C170.527 139.534 193.41 165.75 193.41 200.185Z" stroke="#25334D" stroke-width="10" stroke-linecap="square" stroke-linejoin="round"/>
<path d="M100.014 87.9593H196.662V198.277M97.948 276.167C97.948 276.167 103.512 315.907 148.02 314C192.529 312.092 196.662 276.167 196.662 276.167V198.277M196.662 198.277L228.295 164.419M301.257 86.2108L228.295 164.419M228.295 164.419L310 263.928" stroke="#25334D" stroke-width="10" stroke-linecap="square" stroke-linejoin="round"/>
</g>
<defs>
<filter id="filter0_i" x="90" y="79.1439" width="231.037" height="243.922" filterUnits="userSpaceOnUse" color-interpolation-filters="sRGB">
<feFlood flood-opacity="0" result="BackgroundImageFix"/>
<feBlend mode="normal" in="SourceGraphic" in2="BackgroundImageFix" result="shape"/>
<feColorMatrix in="SourceAlpha" type="matrix" values="0 0 0 0 0 0 0 0 0 0 0 0 0 0 0 0 0 0 127 0" result="hardAlpha"/>
<feOffset dx="4" dy="4"/>
<feGaussianBlur stdDeviation="4"/>
<feComposite in2="hardAlpha" operator="arithmetic" k2="-1" k3="1"/>
<feColorMatrix type="matrix" values="0 0 0 0 0 0 0 0 0 0 0 0 0 0 0 0 0 0 1 0"/>
<feBlend mode="normal" in2="shape" result="effect1_innerShadow"/>
</filter>
</defs>
</svg>
