<svg width="40" height="40" viewBox="0 0 40 40" fill="none" xmlns="http://www.w3.org/2000/svg">
<g clip-path="url(#clip0)">
<rect width="40" height="40" rx="10" fill="#F3F0E9"/>
<path d="M30.2829 34.506H14.5258C11.53 34.506 9.10156 36.9309 9.10156 39.9219V40.7457C9.10156 41.8966 10.036 42.8299 11.1889 42.8299H30.2829V34.506Z" fill="#FFAF4C"/>
<path d="M20.3287 2.69531C14.4805 2.69531 9.73962 7.42892 9.73962 13.2678V31.809C9.73962 35.2412 12.5262 38.0237 15.9639 38.0237C16.7473 38.0237 21.582 38.0237 22.6953 38.0237C24.3554 38.0237 25.5041 38.5661 25.5041 40.084V41.3956C25.5041 42.8686 26.7001 44.0628 28.1754 44.0628H30.9175V27.4512V21.0465V13.2678C30.9175 7.42892 26.1768 2.69531 20.3287 2.69531Z" fill="#FF5960"/>
<path d="M11.1887 19.8736V22.9107C11.1887 27.913 15.2501 31.9681 20.2601 31.9681H26.2476C27.5106 31.9681 28.5753 32.6234 29.4683 33.5151V19.3684L11.1887 19.8736Z" fill="#DB464A"/>
<path d="M16.8584 31.3089C17.9091 31.7336 19.0572 31.968 20.2603 31.968H23.7991V26.2874H16.8584V31.3089Z" fill="#FFA772"/>
<path d="M16.8584 30.6923C17.9285 31.1312 19.1001 31.3739 20.3287 31.3739C21.5574 31.3739 22.729 31.1312 23.7991 30.6923V26.6079H16.8584V30.6923Z" fill="#FF986B"/>
<path d="M20.3287 30.4288C15.2809 30.4288 11.189 26.343 11.189 21.3031V13.8582C11.189 8.81803 15.2811 4.73243 20.3287 4.73243C25.3766 4.73243 29.4685 8.81827 29.4685 13.8582V21.3031C29.4685 26.343 25.3764 30.4288 20.3287 30.4288Z" fill="#FFA772"/>
<path d="M29.4685 21.3031V13.8581C29.4685 8.81803 25.3764 4.73243 20.3287 4.73243C15.2809 4.73243 11.189 8.81826 11.189 13.8581V21.3031C11.6278 21.3031 11.9847 20.9505 11.9892 20.5124L11.9916 20.2931C12.002 19.2943 12.3864 18.3358 13.0692 17.6058C13.9216 16.6945 15.091 16.1434 16.3374 16.0657C19.4312 15.8728 22.067 13.7535 22.9151 10.7767L22.9546 10.6375L23.9134 10.758C26.1224 11.0357 27.9511 12.6059 28.5568 14.7453C28.6801 15.1806 28.7495 15.6294 28.7632 16.0817L28.9069 20.7593C28.9161 21.0621 29.1649 21.3031 29.4685 21.3031Z" fill="#332425"/>
<path d="M20.5065 26.5954H20.1507C18.2168 26.5954 16.6487 25.03 16.6487 23.0987V22.7835C16.6487 22.5921 16.804 22.437 16.9957 22.437H23.6613C23.853 22.437 24.0083 22.5921 24.0083 22.7835V23.0987C24.0086 25.03 22.4407 26.5954 20.5065 26.5954Z" fill="#782A32"/>
<path d="M20.1507 26.5954H20.5065C21.4625 26.5954 22.3288 26.2128 22.9607 25.5927C22.6552 24.4676 21.6256 23.6397 20.4021 23.6397C19.1384 23.6397 18.0818 24.5226 17.8158 25.7043C18.4355 26.2584 19.2537 26.5954 20.1507 26.5954Z" fill="#DB3948"/>
<path d="M17.7104 18.1182H15.0169C14.9319 18.1182 14.8628 18.0494 14.8628 17.9644C14.8628 17.1597 15.5161 16.5072 16.3222 16.5072H16.4053C17.2112 16.5072 17.8647 17.1594 17.8647 17.9644C17.8643 18.0494 17.7954 18.1182 17.7104 18.1182Z" fill="#332425"/>
<path d="M25.6405 18.1182H22.9469C22.862 18.1182 22.7928 18.0494 22.7928 17.9644C22.7928 17.1597 23.4461 16.5072 24.2523 16.5072H24.3354C25.1413 16.5072 25.7948 17.1594 25.7948 17.9644C25.7945 18.0494 25.7257 18.1182 25.6405 18.1182Z" fill="#332425"/>
<path d="M18.8458 20.2508H13.7854C13.3186 20.2508 12.939 19.8717 12.939 19.4057V15.3411C12.939 14.8751 13.3186 14.496 13.7854 14.496H18.8458C19.3126 14.496 19.6922 14.8751 19.6922 15.3411V19.4057C19.6922 19.8717 19.3126 20.2508 18.8458 20.2508ZM13.7854 15.201C13.708 15.201 13.645 15.2639 13.645 15.3411V19.4057C13.645 19.483 13.708 19.5458 13.7854 19.5458H18.8458C18.9232 19.5458 18.9862 19.483 18.9862 19.4057V15.3411C18.9862 15.2639 18.9232 15.201 18.8458 15.201H13.7854Z" fill="#332425"/>
<path d="M27.2364 20.19H22.1762C21.7095 20.19 21.3298 19.8109 21.3298 19.3449V15.2803C21.3298 14.8143 21.7095 14.4352 22.1762 14.4352H27.2367C27.7034 14.4352 28.0831 14.8143 28.0831 15.2803V19.3449C28.0831 19.8109 27.7032 20.19 27.2364 20.19ZM22.1762 15.1402C22.0988 15.1402 22.0359 15.2031 22.0359 15.2803V19.3449C22.0359 19.4222 22.0988 19.4851 22.1762 19.4851H27.2367C27.3141 19.4851 27.377 19.4222 27.377 19.3449V15.2803C27.377 15.2031 27.3141 15.1402 27.2367 15.1402H22.1762Z" fill="#332425"/>
<path d="M21.6826 16.6914H19.3389V17.3964H21.6826V16.6914Z" fill="#332425"/>
<path d="M29.2459 16.6914H27.7299V17.3964H29.2459V16.6914Z" fill="#332425"/>
<path d="M13.2921 16.6914H11.3252V17.3964H13.2921V16.6914Z" fill="#332425"/>
</g>
<defs>
<clipPath id="clip0">
<rect width="40" height="40" rx="10" fill="white"/>
</clipPath>
</defs>
</svg>
