<svg width="40" height="40" viewBox="0 0 40 40" fill="none" xmlns="http://www.w3.org/2000/svg">
<rect x="0.1" y="0.1" width="39.8" height="39.8" rx="9.9" fill="white"/>
<path d="M11.4865 13.7363C11.4865 13.7363 11.0921 13.468 10.5154 13.6747C9.93859 13.8814 9.80889 14.6582 9.9512 15.2886C10.0935 15.9191 9.29907 18.0714 9.29907 18.0714C9.29907 18.0714 9.71184 18.6519 11.1545 18.4298C11.1545 18.4298 12.2302 16.475 12.1503 15.0716C12.0704 13.6682 11.4865 13.7363 11.4865 13.7363Z" fill="#0E3944"/>
<path d="M10.1891 30.4755H6.4551C6.38949 30.4755 6.3363 30.5287 6.3363 30.5943V30.6596C6.3363 30.7252 6.38949 30.7784 6.4551 30.7784H10.1891C10.2547 30.7784 10.3079 30.7252 10.3079 30.6596V30.5943C10.3079 30.5287 10.2547 30.4755 10.1891 30.4755Z" fill="#ADBEC4"/>
<path d="M33.8503 30.4755H32.8286C32.763 30.4755 32.7098 30.5287 32.7098 30.5943V30.6595C32.7098 30.7252 32.763 30.7783 32.8286 30.7783H33.8503C33.9159 30.7783 33.9691 30.7252 33.9691 30.6595V30.5943C33.9691 30.5287 33.9159 30.4755 33.8503 30.4755Z" fill="#ADBEC4"/>
<path d="M17.2164 30.4755H13.4823C13.4167 30.4755 13.3635 30.5287 13.3635 30.5943V30.6595C13.3635 30.7252 13.4167 30.7783 13.4823 30.7783H17.2164C17.282 30.7783 17.3352 30.7252 17.3352 30.6595V30.5943C17.3352 30.5287 17.282 30.4755 17.2164 30.4755Z" fill="#ADBEC4"/>
<path d="M22.6991 30.4755H18.9651C18.8995 30.4755 18.8463 30.5287 18.8463 30.5943V30.6595C18.8463 30.7252 18.8995 30.7783 18.9651 30.7783H22.6991C22.7647 30.7783 22.8179 30.7252 22.8179 30.6595V30.5943C22.8179 30.5287 22.7647 30.4755 22.6991 30.4755Z" fill="#ADBEC4"/>
<path d="M29.4142 30.4755H24.3239C24.2583 30.4755 24.2051 30.5287 24.2051 30.5943V30.6595C24.2051 30.7252 24.2583 30.7783 24.3239 30.7783H29.4142C29.4798 30.7783 29.5329 30.7252 29.5329 30.6595V30.5943C29.5329 30.5287 29.4798 30.4755 29.4142 30.4755Z" fill="#ADBEC4"/>
<path d="M11.8961 16.243C12.4383 16.0696 12.7703 16.5208 13.0807 17.3612C13.3911 18.2015 13.4958 18.2856 13.4958 18.2856L14.6948 19.0559L14.5952 19.5049C14.5952 19.5049 13.454 19.0581 13.1781 18.7739C12.9023 18.4897 12.1086 17.0502 12.1086 17.0502L11.8961 16.243Z" fill="#EF6E4B"/>
<path d="M9.2538 21.6708C9.2538 21.6708 9.01858 22.8621 9.05727 24.6553C9.05727 24.6553 8.13035 26.0222 8.89531 29.9221H9.29656C9.29656 29.9221 9.62435 26.604 9.87516 25.7049C10.126 24.8058 11.0521 24.53 11.1022 21.7962L9.2538 21.6708Z" fill="#FF8B66"/>
<path d="M7.41986 25.1737C7.18674 24.4053 6.58747 23.1183 5.05011 21.3739C5.01463 21.3603 4.97634 21.3558 4.93868 21.3608C4.90103 21.3657 4.86521 21.38 4.83447 21.4023C4.70361 21.4823 4.70361 21.5762 4.70361 21.5762C4.70361 21.5762 5.47453 23.2562 5.96612 24.4872C6.04677 24.6896 6.18629 24.8633 6.36665 24.9857C6.54701 25.1081 6.75992 25.1736 6.97788 25.1737H7.41986Z" fill="#FF8B66"/>
<path d="M10.2188 26.6596C10.2188 26.6596 10.224 27.2329 9.84785 27.2427C9.31669 27.257 9.29711 26.6784 8.6952 26.6972C8.09329 26.7161 6.85193 26.8667 6.45685 25.926C6.25294 25.4399 6.53207 24.8162 5.87405 24.346C5.21603 23.8757 5.53521 23.3491 5.87405 23.0669C6.21289 22.7848 5.72815 22.4774 6.08101 22.3334C6.15907 22.3022 6.24581 22.3006 6.32497 22.3288C6.37017 22.3449 6.41314 22.3666 6.45285 22.3935C6.57927 22.4858 6.68703 22.6012 6.77041 22.7336C7.76726 20.0032 9.54209 19.6428 9.54209 19.6428L11.8056 20.3101C11.8474 24.5581 10.2188 26.6596 10.2188 26.6596Z" fill="#164353"/>
<path d="M11.8961 16.243C11.573 16.3317 11.2344 16.3486 10.9041 16.2927C10.3213 16.2046 10.1322 15.8387 9.72275 16.0739C9.10803 16.4274 9.3957 17.6438 9.55001 18.2764C9.60761 18.5121 9.68053 19.1317 9.54167 19.643C9.54167 19.643 10.8688 20.3419 11.8055 20.3101L12.3128 19.1368C12.3128 19.1368 12.9196 17.8065 11.8961 16.243Z" fill="#CFD8DC"/>
<path d="M10.8993 15.2373C10.939 15.6071 10.8816 15.9798 10.7313 16.3282C10.7313 16.3282 11.084 16.7736 11.4207 16.4805C11.4663 16.0885 11.6055 15.7088 11.8297 15.3647C12.0829 14.9681 10.8993 15.2373 10.8993 15.2373Z" fill="#EF6E4B"/>
<path d="M10.3902 15.2423C10.3902 15.2423 10.1339 15.0801 10.1628 15.3304C10.1963 15.6203 10.4791 15.6768 10.5092 15.5755C10.5394 15.4741 10.3902 15.2423 10.3902 15.2423Z" fill="#FF8B66"/>
<path d="M11.8609 14.9285C11.8609 14.9285 12.0235 14.6724 12.1042 14.9111C12.1975 15.1876 11.9658 15.3593 11.8953 15.2805C11.8249 15.2017 11.8609 14.9285 11.8609 14.9285Z" fill="#FF8B66"/>
<path d="M11.3316 16.1088C10.8666 16.2129 10.5362 15.968 10.3322 15.0571C10.227 14.5872 10.4016 14.2454 10.9224 14.1287C11.4431 14.0119 11.727 14.2511 11.8323 14.721C12.0514 15.7 11.8119 16.0013 11.3316 16.1088Z" fill="#FF8B66"/>
<path d="M11.7509 15.0805C11.7644 15.0996 11.7716 15.1224 11.7716 15.1458C11.7715 15.1692 11.7642 15.192 11.7506 15.2111C11.7371 15.2301 11.7179 15.2445 11.6958 15.2522C11.6737 15.2599 11.6498 15.2606 11.6273 15.2541C11.6049 15.2476 11.585 15.2342 11.5704 15.216C11.5558 15.1977 11.5473 15.1753 11.546 15.1519C11.5446 15.1286 11.5506 15.1054 11.5631 15.0856C11.5755 15.0658 11.5938 15.0503 11.6154 15.0413C11.6386 15.0289 11.6658 15.026 11.6911 15.0334C11.7164 15.0407 11.7379 15.0576 11.7509 15.0805V15.0805Z" fill="#DB614D"/>
<path d="M10.8003 15.3201C10.8089 15.3418 10.8106 15.3657 10.8051 15.3885C10.7996 15.4112 10.7872 15.4316 10.7696 15.447C10.7519 15.4624 10.7299 15.4719 10.7067 15.4742C10.6834 15.4765 10.66 15.4715 10.6397 15.46C10.6193 15.4484 10.6031 15.4308 10.5932 15.4096C10.5833 15.3884 10.5803 15.3647 10.5845 15.3417C10.5887 15.3186 10.5999 15.2975 10.6167 15.2812C10.6334 15.2648 10.6548 15.2541 10.6779 15.2505C10.7034 15.2438 10.7304 15.2474 10.7533 15.2604C10.7761 15.2734 10.793 15.2948 10.8003 15.3201V15.3201Z" fill="#DB614D"/>
<path d="M11.4272 14.6561C11.4225 14.6561 11.4179 14.6547 11.4141 14.6521C11.3548 14.6204 11.2859 14.6116 11.2206 14.6275C11.2147 14.6287 11.2084 14.6276 11.2032 14.6243C11.198 14.6211 11.1943 14.616 11.1928 14.61C11.1912 14.6041 11.1921 14.5978 11.195 14.5925C11.198 14.5871 11.2029 14.5831 11.2088 14.5813C11.2872 14.562 11.37 14.5731 11.4405 14.6124C11.4447 14.6153 11.448 14.6195 11.4497 14.6243C11.4514 14.6291 11.4515 14.6344 11.4499 14.6393C11.4484 14.6442 11.4454 14.6485 11.4412 14.6515C11.4371 14.6545 11.4321 14.6561 11.4269 14.6561H11.4272Z" fill="#0E3944"/>
<path d="M10.5516 14.8522C10.5473 14.8521 10.5431 14.8509 10.5393 14.8487C10.5367 14.8471 10.5343 14.845 10.5325 14.8425C10.5306 14.8399 10.5293 14.8371 10.5285 14.8341C10.5278 14.831 10.5276 14.8279 10.5281 14.8248C10.5286 14.8217 10.5297 14.8187 10.5313 14.816C10.5783 14.7503 10.6486 14.705 10.7278 14.6891C10.734 14.6881 10.7403 14.6894 10.7455 14.693C10.7507 14.6965 10.7543 14.7019 10.7556 14.708C10.7568 14.7142 10.7554 14.7206 10.7519 14.7259C10.7484 14.7311 10.7429 14.7347 10.7367 14.7359C10.6709 14.7496 10.6124 14.7868 10.5722 14.8406C10.5701 14.8441 10.5671 14.8471 10.5635 14.8491C10.5599 14.8512 10.5558 14.8522 10.5516 14.8522V14.8522Z" fill="#0E3944"/>
<path d="M11.4476 14.9113C11.4605 14.969 11.445 15.0216 11.4129 15.0288C11.3809 15.0359 11.3444 14.9949 11.3316 14.9373C11.3189 14.8797 11.3342 14.8269 11.3663 14.8197C11.3984 14.8125 11.4347 14.8534 11.4476 14.9113Z" fill="#1A4850"/>
<path d="M10.8015 15.0502C10.8145 15.108 10.7989 15.1606 10.7668 15.1678C10.7348 15.175 10.6982 15.1339 10.6855 15.0762C10.6728 15.0186 10.6881 14.9659 10.7202 14.9587C10.7523 14.9515 10.7886 14.9925 10.8015 15.0502Z" fill="#1A4850"/>
<path d="M11.0104 15.5971C11.0104 15.5971 11.309 15.5728 11.4406 15.4616C11.4406 15.4616 11.4044 15.6949 11.2419 15.7111C11.1965 15.7165 11.1504 15.7086 11.1093 15.6884C11.0682 15.6682 11.0338 15.6365 11.0104 15.5971V15.5971Z" fill="#1A4850"/>
<path d="M11.2849 14.9175C11.2849 14.9175 11.2954 14.7658 11.3535 14.7635C11.4116 14.7612 11.4813 14.8736 11.4813 14.8736L11.554 14.8113L11.4739 14.8406C11.4739 14.8406 11.4025 14.7232 11.3472 14.7353C11.2685 14.7525 11.2849 14.9175 11.2849 14.9175Z" fill="#1A4850"/>
<path d="M10.8372 15.0361C10.8372 15.0361 10.7627 14.9033 10.7095 14.926C10.6563 14.9487 10.6408 15.0801 10.6408 15.0801L10.5485 15.0548L10.6334 15.0471C10.6334 15.0471 10.6479 14.9104 10.7032 14.898C10.7817 14.8798 10.8372 15.0361 10.8372 15.0361Z" fill="#1A4850"/>
<path d="M11.161 15.3277L11.1371 15.2823C11.1504 15.2775 11.1616 15.268 11.1685 15.2557C11.1755 15.2433 11.1778 15.2289 11.175 15.215C11.1731 15.2032 11.1679 15.1923 11.1601 15.1833C11.1523 15.1744 11.1421 15.1678 11.1307 15.1643C11.1214 15.1639 11.1134 15.1718 11.1072 15.1883L11.0591 15.1704C11.063 15.1535 11.0727 15.1386 11.0865 15.1281C11.1003 15.1176 11.1173 15.1123 11.1346 15.1131C11.1573 15.1173 11.1781 15.1283 11.1943 15.1446C11.2105 15.1609 11.2213 15.1818 11.2253 15.2045C11.2303 15.2293 11.2266 15.255 11.2149 15.2774C11.2032 15.2998 11.1842 15.3176 11.161 15.3277Z" fill="#DB614D"/>
<path d="M10.4272 15.4064C10.4272 15.4064 10.2838 14.8787 10.3689 14.5056C10.3689 14.5056 10.7734 13.9423 11.5541 14.221C11.7146 14.4997 11.8313 14.8014 11.9004 15.1155C11.9004 15.1155 11.9296 14.9281 11.8519 14.5106C11.7742 14.0932 11.4038 13.8338 10.896 13.9173C10.3881 14.0008 9.84435 14.5059 10.4272 15.4064Z" fill="#0E3944"/>
<path d="M11.2457 14.1036C11.2457 14.1036 11.2766 14.2414 11.1427 14.596C11.129 14.5821 11.1128 14.571 11.0948 14.5635C11.0768 14.5559 11.0576 14.552 11.0381 14.552C11.0186 14.552 10.9993 14.5559 10.9813 14.5635C10.9634 14.571 10.9471 14.5821 10.9335 14.596C10.8206 14.6967 10.5915 14.6631 10.5133 14.7175C10.4885 14.7403 10.4688 14.7679 10.4553 14.7987C10.4419 14.8295 10.435 14.8628 10.4351 14.8964C10.3946 14.7864 10.3946 14.6656 10.4351 14.5556C10.3432 14.6806 10.2966 14.8332 10.303 14.9882C10.303 14.9882 10.0965 14.9549 10.1059 14.6142C10.1153 14.2735 10.5996 13.7224 11.1427 13.7581C11.6859 13.7938 11.8153 14.654 11.8153 14.654C11.7968 14.6417 11.7759 14.6334 11.754 14.6297C11.7321 14.6259 11.7097 14.6269 11.6882 14.6324C11.6705 14.4877 11.625 14.3478 11.554 14.2205C11.5871 14.3329 11.5871 14.4524 11.554 14.5648C11.4709 14.5212 11.377 14.5022 11.2834 14.5102C11.2834 14.5102 11.3571 14.3664 11.2457 14.1036Z" fill="#0E3944"/>
<path d="M9.58482 16.1827C9.84911 15.9743 10.0551 16.2394 10.1055 16.606C10.156 16.9726 9.67793 19.1358 9.30927 19.0561C9.16696 19.0253 9.10889 18.4587 9.10889 18.4587C9.218 17.956 9.13079 17.4207 9.17967 16.9086C9.2229 16.4879 9.44698 16.2914 9.58482 16.1827Z" fill="#FF8B66"/>
<path d="M8.87217 18.7187C8.55105 18.3463 8.02579 17.1641 7.92033 16.5777L8.19974 16.4962C8.19974 16.4962 8.89554 17.7335 9.2361 18.0618C9.57666 18.39 9.67467 18.7279 9.4822 18.9902C9.28973 19.2525 8.93978 18.7971 8.87217 18.7187Z" fill="#FF8B66"/>
<path d="M8.10428 15.8418C8.04983 16.2062 8.33983 16.3222 8.17981 16.5904C8.16691 16.6135 8.14938 16.6337 8.12833 16.6497C8.10727 16.6657 8.08314 16.6773 8.05744 16.6836C8.0154 16.6926 7.97165 16.6897 7.93124 16.6749C7.89082 16.6602 7.8554 16.6344 7.82904 16.6004C7.69788 16.4474 7.54939 16.3102 7.38656 16.1915C7.26134 16.1019 7.33858 16.0884 7.33858 16.0884C7.32629 16.0811 7.31431 16.0748 7.30226 16.0685C7.21173 16.0196 7.13719 15.9972 7.21005 15.9618C7.29198 15.9213 7.55619 16.0483 7.55619 16.0483C7.22283 15.7759 7.12037 15.8242 7.19047 15.7802C7.28606 15.7198 7.60953 15.9119 7.61919 15.9175C7.44828 15.7209 7.3156 15.6672 7.39303 15.6476C7.47046 15.6281 7.81773 15.9344 7.94384 16.0489C7.97224 16.0746 7.98962 16.0911 7.98962 16.0911C8.0139 15.7914 8.10428 15.8418 8.10428 15.8418Z" fill="#FF8B66"/>
<path d="M7.94353 16.049C7.97192 16.0748 7.98931 16.0912 7.98931 16.0912C7.96681 16.1285 7.95448 16.171 7.95354 16.2146C7.9526 16.2582 7.96309 16.3012 7.98396 16.3395C7.9432 16.3042 7.91663 16.2552 7.9092 16.2018C7.90176 16.1484 7.91396 16.0941 7.94353 16.049V16.049Z" fill="#EF6E4B"/>
<path d="M7.61011 16.2287C7.58025 16.2082 7.41031 16.0893 7.33789 16.0883C7.32561 16.0809 7.31362 16.0747 7.30158 16.0684C7.35622 16.0097 7.57698 16.1992 7.61011 16.2287Z" fill="#EF6E4B"/>
<path d="M8.73739 21.8557C8.73738 21.87 8.73312 21.884 8.72516 21.8959C8.7172 21.9077 8.7059 21.917 8.69268 21.9225C8.67945 21.9279 8.66491 21.9293 8.65088 21.9265C8.63686 21.9237 8.62398 21.9168 8.61388 21.9067C8.60378 21.8965 8.59691 21.8836 8.59414 21.8696C8.59137 21.8556 8.59283 21.841 8.59832 21.8278C8.60382 21.8146 8.61311 21.8033 8.62502 21.7954C8.63692 21.7875 8.65091 21.7833 8.66522 21.7833C8.68438 21.7833 8.70275 21.791 8.71629 21.8046C8.72982 21.8181 8.73741 21.8365 8.73739 21.8557Z" fill="#6097B2"/>
<path d="M10.0273 22.3534C10.0273 22.3677 10.0231 22.3817 10.0152 22.3936C10.0072 22.4055 9.9959 22.4148 9.98267 22.4203C9.96944 22.4258 9.95489 22.4272 9.94084 22.4245C9.92679 22.4217 9.91389 22.4148 9.90377 22.4046C9.89364 22.3945 9.88675 22.3816 9.88396 22.3676C9.88117 22.3535 9.8826 22.339 9.88809 22.3257C9.89358 22.3125 9.90286 22.3012 9.91478 22.2933C9.92669 22.2853 9.94069 22.2811 9.95501 22.2811C9.97418 22.2811 9.99256 22.2887 10.0061 22.3023C10.0197 22.3158 10.0273 22.3342 10.0273 22.3534V22.3534Z" fill="#6097B2"/>
<path d="M11.1272 22.6203C11.1272 22.6346 11.1229 22.6486 11.115 22.6604C11.107 22.6723 11.0957 22.6816 11.0825 22.6871C11.0693 22.6926 11.0548 22.694 11.0407 22.6912C11.0267 22.6884 11.0138 22.6815 11.0037 22.6714C10.9936 22.6613 10.9867 22.6484 10.9839 22.6344C10.9811 22.6204 10.9826 22.6058 10.988 22.5926C10.9935 22.5794 11.0028 22.5681 11.0147 22.5602C11.0266 22.5522 11.0406 22.548 11.0549 22.548C11.074 22.548 11.0924 22.5556 11.106 22.5692C11.1195 22.5827 11.1271 22.6011 11.1272 22.6203V22.6203Z" fill="#6097B2"/>
<path d="M9.43783 20.9112C9.43783 20.9255 9.43359 20.9395 9.42565 20.9514C9.4177 20.9633 9.40641 20.9726 9.3932 20.978C9.37998 20.9835 9.36544 20.9849 9.35142 20.9822C9.33739 20.9794 9.32451 20.9725 9.31439 20.9624C9.30428 20.9522 9.29739 20.9394 9.2946 20.9253C9.29181 20.9113 9.29324 20.8968 9.29872 20.8836C9.30419 20.8703 9.31346 20.859 9.32535 20.8511C9.33724 20.8432 9.35122 20.8389 9.36552 20.8389C9.3847 20.8389 9.40308 20.8466 9.41663 20.8601C9.43019 20.8737 9.43782 20.8921 9.43783 20.9112Z" fill="#6097B2"/>
<path d="M9.60905 21.6707C9.64899 21.6707 9.68137 21.6383 9.68137 21.5984C9.68137 21.5585 9.64899 21.5261 9.60905 21.5261C9.56912 21.5261 9.53674 21.5585 9.53674 21.5984C9.53674 21.6383 9.56912 21.6707 9.60905 21.6707Z" fill="#6097B2"/>
<path d="M10.8255 21.9902C10.8255 22.0045 10.8213 22.0185 10.8134 22.0304C10.8054 22.0424 10.7941 22.0516 10.7809 22.0571C10.7677 22.0626 10.7531 22.064 10.7391 22.0613C10.725 22.0585 10.7121 22.0516 10.702 22.0414C10.6919 22.0313 10.685 22.0184 10.6822 22.0044C10.6794 21.9903 10.6808 21.9758 10.6863 21.9626C10.6918 21.9493 10.7011 21.938 10.713 21.9301C10.7249 21.9221 10.7389 21.9179 10.7532 21.9179C10.7724 21.9179 10.7908 21.9255 10.8043 21.9391C10.8179 21.9526 10.8255 21.971 10.8255 21.9902V21.9902Z" fill="#6097B2"/>
<path d="M10.9829 20.8047C10.9829 20.819 10.9787 20.833 10.9707 20.8449C10.9628 20.8568 10.9515 20.8661 10.9383 20.8716C10.925 20.8771 10.9105 20.8785 10.8964 20.8757C10.8824 20.873 10.8695 20.8661 10.8594 20.8559C10.8492 20.8458 10.8423 20.8329 10.8395 20.8189C10.8367 20.8049 10.8382 20.7903 10.8436 20.7771C10.8491 20.7638 10.8584 20.7525 10.8703 20.7446C10.8822 20.7366 10.8962 20.7324 10.9105 20.7324C10.9297 20.7324 10.9481 20.74 10.9617 20.7536C10.9752 20.7671 10.9829 20.7855 10.9829 20.8047V20.8047Z" fill="#6097B2"/>
<path d="M10.1604 20.6303C10.2004 20.6303 10.2327 20.5979 10.2327 20.558C10.2327 20.518 10.2004 20.4856 10.1604 20.4856C10.1205 20.4856 10.0881 20.518 10.0881 20.558C10.0881 20.5979 10.1205 20.6303 10.1604 20.6303Z" fill="#6097B2"/>
<path d="M8.09738 23.2665C8.09738 23.2808 8.09314 23.2947 8.0852 23.3066C8.07725 23.3185 8.06596 23.3278 8.05274 23.3333C8.03953 23.3387 8.02499 23.3402 8.01096 23.3374C7.99694 23.3346 7.98405 23.3277 7.97394 23.3176C7.96383 23.3075 7.95694 23.2946 7.95415 23.2806C7.95136 23.2665 7.95279 23.252 7.95826 23.2388C7.96374 23.2256 7.973 23.2143 7.9849 23.2064C7.99679 23.1984 8.01077 23.1942 8.02507 23.1942C8.04424 23.1942 8.06263 23.2018 8.07618 23.2154C8.08974 23.2289 8.09736 23.2473 8.09738 23.2665V23.2665Z" fill="#6097B2"/>
<path d="M7.06662 22.9589C7.06662 22.9732 7.06238 22.9872 7.05444 22.9991C7.04649 23.011 7.0352 23.0202 7.02199 23.0257C7.00879 23.0312 6.99425 23.0326 6.98022 23.0298C6.9662 23.0271 6.95332 23.0202 6.9432 23.0101C6.93308 23 6.92619 22.9871 6.92339 22.9731C6.9206 22.9591 6.92202 22.9445 6.92748 22.9313C6.93294 22.9181 6.9422 22.9068 6.95408 22.8988C6.96597 22.8909 6.97994 22.8866 6.99424 22.8866C7.01342 22.8866 7.03182 22.8942 7.04539 22.9078C7.05897 22.9214 7.0666 22.9397 7.06662 22.9589Z" fill="#6097B2"/>
<path d="M6.45228 22.3935C6.44363 22.4065 6.43107 22.4163 6.41643 22.4215C6.40179 22.4268 6.38585 22.4272 6.37095 22.4228C6.35605 22.4183 6.34297 22.4092 6.33364 22.3967C6.32431 22.3843 6.31922 22.3692 6.31911 22.3536C6.31889 22.345 6.3207 22.3365 6.3244 22.3288C6.36959 22.3449 6.41257 22.3666 6.45228 22.3935V22.3935Z" fill="#6097B2"/>
<path d="M8.39445 24.282C8.43438 24.282 8.46675 24.2496 8.46675 24.2097C8.46675 24.1698 8.43438 24.1374 8.39445 24.1374C8.35452 24.1374 8.32214 24.1698 8.32214 24.2097C8.32214 24.2496 8.35452 24.282 8.39445 24.282Z" fill="#6097B2"/>
<path d="M6.61678 25.2349C6.61676 25.2492 6.61251 25.2632 6.60456 25.275C6.59661 25.2869 6.58531 25.2962 6.5721 25.3016C6.55888 25.3071 6.54435 25.3085 6.53033 25.3057C6.5163 25.3029 6.50343 25.296 6.49332 25.2859C6.48322 25.2758 6.47634 25.2629 6.47355 25.2489C6.47077 25.2349 6.4722 25.2204 6.47768 25.2071C6.48315 25.1939 6.49242 25.1827 6.50431 25.1747C6.5162 25.1668 6.53018 25.1625 6.54447 25.1625C6.55397 25.1625 6.56338 25.1644 6.57216 25.168C6.58094 25.1717 6.58891 25.177 6.59562 25.1837C6.60234 25.1905 6.60766 25.1984 6.61129 25.2072C6.61492 25.216 6.61679 25.2254 6.61678 25.2349V25.2349Z" fill="#6097B2"/>
<path d="M7.30021 24.6858C7.34015 24.6858 7.37252 24.6534 7.37252 24.6135C7.37252 24.5735 7.34015 24.5412 7.30021 24.5412C7.26028 24.5412 7.22791 24.5735 7.22791 24.6135C7.22791 24.6534 7.26028 24.6858 7.30021 24.6858Z" fill="#6097B2"/>
<path d="M6.1746 24.136C6.21454 24.136 6.24691 24.1036 6.24691 24.0637C6.24691 24.0238 6.21454 23.9914 6.1746 23.9914C6.13467 23.9914 6.10229 24.0238 6.10229 24.0637C6.10229 24.1036 6.13467 24.136 6.1746 24.136Z" fill="#6097B2"/>
<path d="M7.15549 26.2288C7.1555 26.2431 7.15127 26.2571 7.14332 26.269C7.13537 26.2809 7.12407 26.2902 7.11084 26.2957C7.09762 26.3012 7.08306 26.3026 7.06901 26.2998C7.05497 26.297 7.04207 26.2901 7.03194 26.28C7.02181 26.2699 7.01492 26.257 7.01213 26.2429C7.00934 26.2289 7.01078 26.2143 7.01626 26.2011C7.02175 26.1879 7.03104 26.1766 7.04295 26.1686C7.05486 26.1607 7.06886 26.1564 7.08318 26.1565C7.10236 26.1565 7.12074 26.1641 7.13429 26.1777C7.14785 26.1912 7.15547 26.2096 7.15549 26.2288V26.2288Z" fill="#6097B2"/>
<path d="M7.8442 22.4257C7.84419 22.44 7.83994 22.454 7.83199 22.4659C7.82404 22.4778 7.81274 22.487 7.79953 22.4925C7.78632 22.4979 7.77179 22.4994 7.75777 22.4966C7.74375 22.4938 7.73087 22.4869 7.72076 22.4768C7.71066 22.4667 7.70377 22.4538 7.70098 22.4398C7.69819 22.4258 7.69961 22.4112 7.70508 22.398C7.71054 22.3848 7.7198 22.3735 7.73168 22.3656C7.74356 22.3576 7.75753 22.3534 7.77183 22.3534C7.79102 22.3534 7.80943 22.361 7.823 22.3746C7.83658 22.3881 7.8442 22.4065 7.8442 22.4257Z" fill="#6097B2"/>
<path d="M8.53903 21.2076C8.53905 21.222 8.53481 21.236 8.52686 21.2479C8.51892 21.2598 8.50761 21.2691 8.49439 21.2745C8.48116 21.28 8.4666 21.2815 8.45256 21.2787C8.43851 21.2759 8.42561 21.269 8.41548 21.2589C8.40536 21.2487 8.39846 21.2358 8.39567 21.2218C8.39288 21.2078 8.39432 21.1932 8.39981 21.18C8.4053 21.1668 8.41458 21.1554 8.42649 21.1475C8.43841 21.1396 8.45241 21.1353 8.46673 21.1353C8.4859 21.1354 8.50428 21.143 8.51784 21.1565C8.53139 21.1701 8.53902 21.1885 8.53903 21.2076Z" fill="#6097B2"/>
<path d="M9.32554 20.1939C9.32554 20.2082 9.32129 20.2222 9.31334 20.2341C9.30539 20.246 9.29408 20.2553 9.28086 20.2608C9.26763 20.2662 9.25308 20.2677 9.23904 20.2649C9.225 20.2621 9.21211 20.2552 9.20198 20.2451C9.19186 20.235 9.18497 20.2221 9.18218 20.208C9.17938 20.194 9.18082 20.1794 9.1863 20.1662C9.19177 20.153 9.20105 20.1417 9.21295 20.1337C9.22485 20.1258 9.23885 20.1215 9.25316 20.1215C9.26267 20.1215 9.27208 20.1234 9.28086 20.127C9.28964 20.1307 9.29762 20.136 9.30434 20.1427C9.31106 20.1495 9.31639 20.1574 9.32003 20.1662C9.32367 20.175 9.32554 20.1844 9.32554 20.1939Z" fill="#6097B2"/>
<path d="M7.73178 21.6708C7.73178 21.6851 7.72754 21.6991 7.71959 21.711C7.71165 21.7229 7.70035 21.7322 7.68714 21.7376C7.67393 21.7431 7.65939 21.7445 7.64536 21.7417C7.63133 21.739 7.61845 21.7321 7.60834 21.722C7.59822 21.7118 7.59134 21.699 7.58855 21.6849C7.58576 21.6709 7.58719 21.6564 7.59266 21.6432C7.59814 21.6299 7.6074 21.6187 7.61929 21.6107C7.63119 21.6028 7.64517 21.5985 7.65947 21.5985C7.67865 21.5985 7.69704 21.6061 7.7106 21.6197C7.72416 21.6333 7.73178 21.6517 7.73178 21.6708V21.6708Z" fill="#6097B2"/>
<path d="M8.61142 20.4856C8.61142 20.4999 8.60718 20.5139 8.59924 20.5258C8.59129 20.5377 8.58 20.5469 8.56679 20.5524C8.55359 20.5579 8.53905 20.5593 8.52503 20.5565C8.511 20.5538 8.49812 20.5469 8.488 20.5368C8.47788 20.5267 8.47099 20.5138 8.46819 20.4998C8.4654 20.4857 8.46682 20.4712 8.47228 20.458C8.47774 20.4448 8.487 20.4335 8.49888 20.4255C8.51077 20.4176 8.52474 20.4133 8.53904 20.4133C8.55822 20.4133 8.57662 20.4209 8.59019 20.4345C8.60377 20.448 8.6114 20.4664 8.61142 20.4856V20.4856Z" fill="#6097B2"/>
<path d="M7.22787 23.7424C7.22787 23.7567 7.22363 23.7707 7.21568 23.7826C7.20774 23.7945 7.19645 23.8038 7.18325 23.8092C7.17004 23.8147 7.1555 23.8161 7.14148 23.8134C7.12745 23.8106 7.11457 23.8037 7.10445 23.7936C7.09434 23.7835 7.08745 23.7706 7.08465 23.7566C7.08185 23.7426 7.08327 23.728 7.08874 23.7148C7.0942 23.7016 7.10346 23.6903 7.11534 23.6824C7.12722 23.6744 7.14119 23.6702 7.15549 23.6701C7.17467 23.6701 7.19307 23.6778 7.20664 23.6913C7.22021 23.7049 7.22785 23.7233 7.22787 23.7424Z" fill="#6097B2"/>
<path d="M6.3193 23.1037C6.3193 23.118 6.31506 23.132 6.30711 23.1438C6.29917 23.1557 6.28787 23.165 6.27466 23.1705C6.26145 23.1759 6.24691 23.1774 6.23288 23.1746C6.21886 23.1718 6.20597 23.1649 6.19586 23.1548C6.18575 23.1447 6.17886 23.1318 6.17607 23.1178C6.17328 23.1038 6.17471 23.0892 6.18019 23.076C6.18566 23.0628 6.19493 23.0515 6.20682 23.0435C6.21871 23.0356 6.23269 23.0314 6.24699 23.0314C6.26617 23.0314 6.28456 23.039 6.29812 23.0525C6.31168 23.0661 6.3193 23.0845 6.3193 23.1037V23.1037Z" fill="#6097B2"/>
<path d="M8.88212 22.959C8.92206 22.959 8.95443 22.9266 8.95443 22.8867C8.95443 22.8467 8.92206 22.8144 8.88212 22.8144C8.84219 22.8144 8.80981 22.8467 8.80981 22.8867C8.80981 22.9266 8.84219 22.959 8.88212 22.959Z" fill="#6097B2"/>
<path d="M10.3776 23.3388C10.4175 23.3388 10.4499 23.3064 10.4499 23.2665C10.4499 23.2265 10.4175 23.1942 10.3776 23.1942C10.3377 23.1942 10.3053 23.2265 10.3053 23.2665C10.3053 23.3064 10.3377 23.3388 10.3776 23.3388Z" fill="#6097B2"/>
<path d="M10.3775 21.2076C10.3776 21.222 10.3733 21.236 10.3654 21.2479C10.3574 21.2598 10.3461 21.2691 10.3329 21.2745C10.3197 21.28 10.3051 21.2815 10.2911 21.2787C10.277 21.2759 10.2641 21.269 10.254 21.2589C10.2439 21.2487 10.237 21.2358 10.2342 21.2218C10.2314 21.2078 10.2328 21.1932 10.2383 21.18C10.2438 21.1668 10.2531 21.1554 10.265 21.1475C10.2769 21.1396 10.2909 21.1353 10.3052 21.1353C10.3244 21.1354 10.3428 21.143 10.3563 21.1565C10.3699 21.1701 10.3775 21.1885 10.3775 21.2076Z" fill="#6097B2"/>
<path d="M11.2472 21.3593C11.2472 21.3737 11.2429 21.3877 11.235 21.3996C11.2271 21.4115 11.2157 21.4208 11.2025 21.4263C11.1893 21.4317 11.1747 21.4332 11.1607 21.4304C11.1466 21.4276 11.1337 21.4207 11.1236 21.4106C11.1135 21.4005 11.1066 21.3875 11.1038 21.3735C11.101 21.3595 11.1025 21.3449 11.1079 21.3317C11.1134 21.3184 11.1227 21.3071 11.1346 21.2992C11.1465 21.2912 11.1605 21.287 11.1749 21.287C11.194 21.287 11.2124 21.2946 11.226 21.3082C11.2396 21.3218 11.2472 21.3402 11.2472 21.3593Z" fill="#6097B2"/>
<path d="M9.51021 23.8148C9.5102 23.8291 9.50595 23.843 9.498 23.8549C9.49005 23.8668 9.47875 23.8761 9.46554 23.8815C9.45234 23.887 9.4378 23.8884 9.42378 23.8856C9.40976 23.8828 9.39689 23.8759 9.38678 23.8658C9.37667 23.8557 9.36979 23.8428 9.36699 23.8288C9.3642 23.8148 9.36563 23.8003 9.37109 23.7871C9.37656 23.7738 9.38581 23.7626 9.39769 23.7546C9.40957 23.7467 9.42354 23.7424 9.43784 23.7424C9.44734 23.7424 9.45676 23.7442 9.46554 23.7479C9.47433 23.7515 9.48231 23.7568 9.48903 23.7636C9.49576 23.7703 9.50109 23.7783 9.50472 23.7871C9.50835 23.7958 9.51022 23.8053 9.51021 23.8148V23.8148Z" fill="#6097B2"/>
<path d="M8.80973 25.1737C8.84967 25.1737 8.88204 25.1413 8.88204 25.1013C8.88204 25.0614 8.84967 25.029 8.80973 25.029C8.7698 25.029 8.73743 25.0614 8.73743 25.1013C8.73743 25.1413 8.7698 25.1737 8.80973 25.1737Z" fill="#6097B2"/>
<path d="M7.69951 25.3795C7.73944 25.3795 7.77181 25.3472 7.77181 25.3072C7.77181 25.2673 7.73944 25.2349 7.69951 25.2349C7.65957 25.2349 7.6272 25.2673 7.6272 25.3072C7.6272 25.3472 7.65957 25.3795 7.69951 25.3795Z" fill="#6097B2"/>
<path d="M10.7532 24.282C10.7931 24.282 10.8255 24.2496 10.8255 24.2097C10.8255 24.1698 10.7931 24.1374 10.7532 24.1374C10.7133 24.1374 10.6809 24.1698 10.6809 24.2097C10.6809 24.2496 10.7133 24.282 10.7532 24.282Z" fill="#6097B2"/>
<path d="M9.82615 24.7582C9.82615 24.7725 9.8219 24.7865 9.81394 24.7984C9.80599 24.8103 9.79468 24.8196 9.78145 24.8251C9.76822 24.8306 9.75367 24.832 9.73963 24.8292C9.72559 24.8264 9.71269 24.8195 9.70257 24.8094C9.69245 24.7992 9.68556 24.7863 9.68278 24.7723C9.67999 24.7583 9.68144 24.7437 9.68693 24.7305C9.69241 24.7173 9.7017 24.706 9.71361 24.698C9.72552 24.6901 9.73952 24.6858 9.75384 24.6858C9.76334 24.6858 9.77275 24.6877 9.78153 24.6914C9.7903 24.695 9.79828 24.7003 9.80499 24.707C9.81171 24.7138 9.81703 24.7217 9.82066 24.7305C9.82429 24.7393 9.82615 24.7487 9.82615 24.7582V24.7582Z" fill="#6097B2"/>
<path d="M8.32212 26.3733C8.32213 26.3876 8.3179 26.4016 8.30995 26.4135C8.302 26.4254 8.2907 26.4347 8.27747 26.4402C8.26424 26.4457 8.24969 26.4471 8.23564 26.4444C8.22159 26.4416 8.20869 26.4347 8.19857 26.4245C8.18844 26.4144 8.18155 26.4015 8.17876 26.3875C8.17597 26.3734 8.1774 26.3589 8.18289 26.3456C8.18838 26.3324 8.19766 26.3211 8.20958 26.3132C8.22149 26.3052 8.23549 26.301 8.24981 26.301C8.26899 26.301 8.28738 26.3086 8.30094 26.3222C8.3145 26.3357 8.32212 26.3541 8.32212 26.3733Z" fill="#6097B2"/>
<path d="M9.36552 26.069C9.40546 26.069 9.43783 26.0366 9.43783 25.9967C9.43783 25.9568 9.40546 25.9244 9.36552 25.9244C9.32559 25.9244 9.29321 25.9568 9.29321 25.9967C9.29321 26.0366 9.32559 26.069 9.36552 26.069Z" fill="#6097B2"/>
<path d="M10.4404 25.6429C10.4803 25.6429 10.5127 25.6105 10.5127 25.5705C10.5127 25.5306 10.4803 25.4982 10.4404 25.4982C10.4004 25.4982 10.368 25.5306 10.368 25.5705C10.368 25.6105 10.4004 25.6429 10.4404 25.6429Z" fill="#6097B2"/>
<path d="M10.0273 26.8149C10.0273 26.8292 10.0231 26.8432 10.0152 26.8552C10.0072 26.8671 9.9959 26.8764 9.98267 26.8818C9.96944 26.8873 9.95489 26.8888 9.94084 26.886C9.92679 26.8832 9.91389 26.8763 9.90377 26.8662C9.89364 26.856 9.88675 26.8431 9.88396 26.8291C9.88117 26.815 9.8826 26.8005 9.88809 26.7872C9.89358 26.774 9.90286 26.7627 9.91478 26.7548C9.92669 26.7468 9.94069 26.7426 9.95501 26.7426C9.97419 26.7426 9.99258 26.7502 10.0061 26.7638C10.0197 26.7773 10.0273 26.7957 10.0273 26.8149Z" fill="#6097B2"/>
<path d="M9.9486 30.6239H8.76058C8.68306 30.4027 8.82605 30.1807 8.80199 29.9859C8.76058 29.6563 8.95243 29.8384 8.95243 29.8384C8.98631 29.484 9.4844 29.417 9.47912 29.5751C9.47085 29.8075 9.51598 29.9512 9.58219 30.0475C9.7161 30.2409 9.9358 30.2394 9.97341 30.3778C9.9772 30.3914 9.98018 30.405 9.98242 30.4169C10.0193 30.59 9.9486 30.6239 9.9486 30.6239Z" fill="#164353"/>
<path d="M9.98234 30.4168C9.73634 30.474 9.16913 30.3996 9.1465 30.2566C9.12467 30.1182 9.4301 30.0533 9.58211 30.0474C9.71601 30.2408 9.93572 30.2393 9.97333 30.3777C9.97712 30.3914 9.97983 30.405 9.98234 30.4168Z" fill="#205260"/>
<path d="M5.06487 21.4214C4.93849 21.3062 4.73281 21.4967 4.73281 21.4967C4.73281 21.4967 4.84341 21.6607 4.77191 21.7271C4.70042 21.7935 4.61767 21.6421 4.47699 21.7083C4.46499 21.714 4.45342 21.7205 4.44236 21.7279C4.32329 21.8156 4.21673 21.9191 4.12562 22.0356C4.10684 22.0567 4.08875 22.0762 4.07221 22.0935C3.9646 22.2064 3.68696 22.2726 3.63505 21.9715C3.58314 21.6705 3.9217 21.3177 4.29341 20.9934C4.66511 20.6692 4.90542 20.8616 4.90542 20.8616C4.94828 20.9289 4.97694 21.0041 4.98965 21.0828C4.98965 21.1671 5.06487 21.2092 5.10702 21.2897C5.11778 21.313 5.11942 21.3394 5.11162 21.3638C5.10381 21.3882 5.08713 21.4087 5.06487 21.4214Z" fill="#164353"/>
<path d="M4.44263 21.7277C4.32356 21.8154 4.217 21.9189 4.12588 22.0354C3.98669 22.0686 3.86159 22.0587 3.84227 21.9278C3.79484 21.6118 4.42507 21.2101 4.37493 21.432C4.36617 21.4833 4.36764 21.5359 4.37926 21.5866C4.39088 21.6374 4.41241 21.6853 4.44263 21.7277V21.7277Z" fill="#205260"/>
<path d="M27.1257 30.1101C27.0564 30.0645 27.0008 30.0009 26.9646 29.9262C26.9402 29.7542 26.9402 29.5796 26.9646 29.4075C27.0065 29.1418 26.8907 28.9247 26.5145 28.8432C26.1486 28.7639 25.9317 28.9402 26.0162 29.6754C25.9606 29.9809 25.9491 30.3296 26.0759 30.6236H27.2018C27.2018 30.6236 27.3794 30.2433 27.1257 30.1101Z" fill="#CFD8DC"/>
<path d="M28.1137 26.1475C28.0908 26.6679 27.9493 27.1761 27.6998 27.6334C27.2784 28.3996 26.7579 29.4511 26.7579 29.4511C26.7579 29.4511 26.4108 29.7899 26.1902 29.2289C26.1902 29.2289 26.346 27.276 26.7032 26.5613C27.0604 25.8465 28.1137 26.1475 28.1137 26.1475Z" fill="#A8604F"/>
<path d="M33.5118 23.7583C33.5118 23.7583 34.1823 26.5781 34.6088 27.3219C34.6088 27.3219 34.5107 27.6331 34.0488 27.7272C34.0488 27.7272 32.5901 25.5829 32.496 24.68C32.402 23.7772 33.5118 23.7583 33.5118 23.7583Z" fill="#A8604F"/>
<path d="M33.8361 24.4211C33.6577 24.8508 32.2801 24.8741 32.2801 24.8741L32.1747 24.7191L32.1469 24.6784L31.9317 24.3609C31.9317 24.3609 29.649 22.1218 29.2043 22.3099H29.2036C29.1903 22.3159 29.1777 22.3232 29.166 22.3317C28.8605 22.5499 28.8319 23.7455 28.4707 25.7521C28.4302 25.9451 28.3735 26.1344 28.3013 26.3179C28.2945 26.3345 28.2886 26.3502 28.2825 26.3654C28.2494 26.4504 28.2261 26.5046 28.2261 26.5046C26.8327 27.0689 26.3729 25.9538 26.3729 25.9538C26.3729 25.9538 26.3895 25.9215 26.4136 25.8696C26.4189 25.8583 26.4249 25.8455 26.4309 25.8319C26.5039 25.6709 26.6206 25.3917 26.619 25.2443C26.6175 25.0826 26.6163 24.9268 26.6153 24.7771C26.6153 24.7635 26.6153 24.7507 26.6144 24.7379C26.6122 24.2557 26.613 23.8366 26.616 23.4724V23.4341C26.6175 23.2753 26.6197 23.1271 26.6228 22.9887V22.9496C26.6348 22.3153 26.6551 21.8916 26.677 21.6095C26.6777 21.5967 26.6792 21.5832 26.68 21.5712C26.7184 21.0964 26.759 21.0498 26.759 21.0498L26.4799 19.1093H29.5255C29.5255 19.1093 29.983 19.5676 30.5766 20.1724C30.5894 20.1845 30.6015 20.1965 30.6135 20.2093C30.8287 20.4283 31.0611 20.666 31.2944 20.9073C31.3042 20.9171 31.3132 20.9262 31.3215 20.9352L31.5961 21.2188C31.6074 21.2301 31.6179 21.2422 31.6292 21.2534C31.9347 21.5702 32.2311 21.8824 32.4847 22.1555C32.4937 22.1646 32.502 22.1736 32.5103 22.1826C32.8571 22.5581 33.1212 22.8583 33.2123 22.9982C33.4538 23.3677 33.6418 23.8484 33.7457 24.1456V24.1464C33.7509 24.1599 33.7555 24.1719 33.76 24.1847C33.809 24.3294 33.8361 24.4211 33.8361 24.4211Z" fill="#8B383E"/>
<path d="M27.2152 21.3401C27.0762 21.4944 26.8841 21.5906 26.6772 21.6094C26.678 21.5966 26.6795 21.5831 26.6802 21.5711C26.8751 21.5523 27.0558 21.461 27.1866 21.3153C27.3148 21.1491 27.377 20.9414 27.3611 20.7321L27.3987 20.7276C27.4166 20.9476 27.3511 21.1662 27.2152 21.3401Z" fill="#662C33"/>
<path d="M30.6136 20.2092C30.6016 20.21 30.5903 20.2107 30.5783 20.2107C30.2395 20.2107 29.8861 19.8406 29.868 19.8217L29.8951 19.7954C29.8996 19.8007 30.2517 20.1694 30.5768 20.1724C30.5896 20.1844 30.6016 20.1964 30.6136 20.2092Z" fill="#662C33"/>
<path d="M28.3016 26.3179C28.2948 26.3345 28.2888 26.3502 28.2828 26.3654C28.0842 26.4407 27.8737 26.4802 27.6613 26.482C27.0594 26.482 26.6425 26.1337 26.4138 25.8696C26.4191 25.8583 26.4251 25.8455 26.4311 25.8319C26.7238 26.1749 27.3491 26.6813 28.3016 26.3179Z" fill="#662C33"/>
<path d="M29.1194 21.611C29.1734 21.8401 29.2016 22.0745 29.2036 22.3099C29.1904 22.3159 29.1778 22.3232 29.166 22.3317C29.1645 21.1957 28.5069 20.3094 28.4994 20.2995L28.5295 20.277C28.8001 20.6697 28.9967 21.1085 29.1096 21.5719C29.1863 21.5226 29.2405 21.445 29.2601 21.3559C29.355 20.9572 28.9238 20.3055 28.92 20.2987L28.9509 20.2777C28.9689 20.3055 29.3947 20.9496 29.297 21.3642C29.2858 21.4153 29.2643 21.4635 29.2338 21.506C29.2032 21.5484 29.1643 21.5842 29.1194 21.611V21.611Z" fill="#662C33"/>
<path d="M32.5104 22.183C32.3984 22.305 32.293 22.4088 32.2832 22.4178L32.2629 22.4381L32.2531 22.411C32.1057 22.0247 31.1577 21.1884 31.1478 21.1801L31.1366 21.1696L31.2946 20.9077C31.3044 20.9175 31.3134 20.9266 31.3217 20.9356L31.1893 21.1553C31.3184 21.207 31.4575 21.2289 31.5963 21.2192C31.6076 21.2305 31.6181 21.2426 31.6294 21.2538C31.5968 21.2594 31.5638 21.2622 31.5308 21.2621C31.4317 21.2596 31.3336 21.2426 31.2394 21.2117C31.4546 21.4058 32.1234 22.0258 32.2769 22.3711C32.3364 22.3125 32.4116 22.2349 32.4846 22.1559C32.4939 22.1647 32.5022 22.1737 32.5104 22.183Z" fill="#662C33"/>
<path d="M27.3084 24.7703L27.2933 24.7732C27.1678 24.799 27.04 24.8121 26.9118 24.8124C26.8119 24.8139 26.7122 24.802 26.6154 24.777C26.6154 24.7635 26.6154 24.7507 26.6146 24.7379C26.8629 24.8094 27.1947 24.7545 27.27 24.7402L27.2068 23.1744C27.163 23.2893 27.0791 23.3845 26.9705 23.4423C26.9055 23.4742 26.8338 23.4902 26.7613 23.4889C26.7125 23.4887 26.6638 23.4831 26.6162 23.4724V23.434C26.728 23.4658 26.8475 23.4568 26.9533 23.4084C27.0126 23.3746 27.0646 23.3293 27.1062 23.2752C27.1478 23.2211 27.1781 23.1592 27.1955 23.0932C27.0698 23.112 26.816 23.048 26.623 22.9886V22.9495C26.8313 23.0126 27.1135 23.0856 27.215 23.0503L27.2392 23.042L27.3084 24.7703Z" fill="#662C33"/>
<path d="M33.7601 24.1849C33.5809 24.3607 33.3688 24.4995 33.1359 24.5932C32.903 24.6869 32.6538 24.7338 32.4028 24.7311C32.3266 24.7311 32.2506 24.7271 32.1748 24.7191L32.147 24.6784C32.9859 24.7747 33.5119 24.3813 33.7458 24.1465C33.7511 24.1601 33.7556 24.1721 33.7601 24.1849Z" fill="#662C33"/>
<path d="M30.0884 10.8591C30.0884 10.8591 30.0046 10.6665 29.6511 10.6663C29.3786 10.6663 29.2743 10.8169 29.2743 10.8169C29.1113 11.2934 28.9361 13.1179 28.8733 13.1828C28.8416 13.2157 26.8203 14.5771 26.8203 14.5771C27.9172 14.5974 28.6016 15.9497 28.6016 15.9497C28.637 15.5054 29.8756 13.7447 29.8892 13.5878C29.9142 13.292 30.4382 11.9693 30.0884 10.8591Z" fill="#CE364C"/>
<path d="M26.5794 20.3994C26.5794 20.3994 26.5693 20.7801 26.6924 20.8051C27.4534 20.9979 28.2573 20.9264 28.9724 20.6023C30.126 20.0779 30.3267 19.6891 29.9881 19.4007C29.6496 19.1124 26.5794 20.3994 26.5794 20.3994Z" fill="#CE364C"/>
<path d="M26.1171 14.8408C26.1171 14.8408 25.0674 14.7164 24.4655 14.9769C24.4655 14.9769 24.2977 15.7218 25.1246 17.3888C25.9515 19.0559 25.7597 20.1058 26.6923 20.501C27.5191 20.8514 29.9566 19.8087 30.0332 19.4629C30.2259 18.5923 28.7353 17.0644 28.6413 16.1792C28.5472 15.294 27.682 13.9629 26.1171 14.8408Z" fill="#F24052"/>
<path d="M24.4656 14.977C23.732 15.2375 22.9069 16.0613 22.9055 16.4581C22.9041 16.855 23.5938 17.0082 23.5938 17.0082L24.7243 16.4581C24.7243 16.4581 25.0476 16.2324 24.8418 15.5744C24.6359 14.9163 24.4656 14.977 24.4656 14.977Z" fill="#CE364C"/>
<path d="M27.4798 15.7113C27.2454 15.7083 27.0167 15.6393 26.8198 15.512C26.7397 15.464 26.682 15.3862 26.6592 15.2956C26.6178 15.035 26.8715 14.9025 26.8823 14.897L26.9166 14.964C26.9077 14.9686 26.7008 15.0776 26.7336 15.2838C26.7536 15.3542 26.8002 15.414 26.8635 15.4507C27.0789 15.5918 27.3366 15.6541 27.5927 15.6269C27.6295 15.6248 27.6653 15.6144 27.6976 15.5967C27.7299 15.579 27.7578 15.5543 27.7794 15.5244C27.7891 15.5035 27.7946 15.4808 27.7954 15.4578C27.7962 15.4348 27.7923 15.4118 27.784 15.3903L27.8532 15.3606C27.8659 15.3924 27.8719 15.4265 27.8706 15.4607C27.8694 15.495 27.861 15.5286 27.8459 15.5594C27.8194 15.5998 27.784 15.6336 27.7424 15.6582C27.7007 15.6827 27.654 15.6974 27.6058 15.701C27.5642 15.7081 27.522 15.7115 27.4798 15.7113V15.7113Z" fill="#CFD8DC"/>
<path d="M26.5495 16.5049C26.3868 16.5049 26.1177 16.4371 26.0799 16.1707C26.0659 16.0549 26.0672 15.9377 26.0839 15.8223C26.1 15.6754 26.1127 15.5593 26.0271 15.4202C25.8858 15.1907 25.6933 15.1752 25.6852 15.1747L25.6897 15.0996C25.6993 15.1001 25.9283 15.1163 26.0912 15.3808C26.1903 15.5419 26.1749 15.6821 26.1589 15.8305C26.1428 15.9397 26.1414 16.0506 26.1546 16.1602C26.1953 16.4476 26.5619 16.4297 26.5774 16.4289L26.5819 16.5039C26.5715 16.5046 26.5607 16.5049 26.5495 16.5049Z" fill="#CFD8DC"/>
<path d="M26.7779 15.1546C26.7779 15.1546 27.3328 14.7767 27.2011 14.3675C27.0694 13.9584 25.2824 13.9866 24.8216 14.476C24.3608 14.9653 25.8186 15.2897 25.8186 15.2897C25.9316 15.062 26.6524 15.0369 26.7779 15.1546Z" fill="#CE364C"/>
<path d="M25.7802 15.0906C25.5169 15.0012 25.3608 14.8112 25.4173 14.5917C25.4737 14.3723 26.6056 14.3664 26.8201 14.5418C27.0345 14.7172 26.7325 15.4139 25.7802 15.0906Z" fill="#A02E44"/>
<path d="M25.6549 14.4738C25.6549 14.4738 25.8878 14.8717 25.7802 15.0905C25.7802 15.0905 26.5794 15.3664 26.5794 14.9192C26.5794 14.9192 26.4288 14.5841 26.4855 14.3675L25.6549 14.4738Z" fill="#874538"/>
<path d="M25.2667 14.432C24.8038 14.0783 24.6537 13.2648 24.8228 13.0079C24.992 12.7509 24.7796 12.2328 25.0232 12.2328C25.2667 12.2328 25.0648 12.0104 25.1791 11.813C25.3394 11.5362 25.5354 11.7907 25.773 11.8616C26.0105 11.9324 26.248 11.813 26.248 11.813C26.248 11.813 26.5647 11.6809 26.6439 11.8863C26.7231 12.0918 27.0378 12.073 27.1586 12.2328C27.3029 12.4239 27.1778 12.607 27.2773 12.7908C27.4218 13.0575 27.5604 13.1034 27.5356 13.4061C27.5257 13.5263 27.3775 13.8053 27.3775 13.8053C27.3775 13.8053 27.1683 14.0829 27.0995 14.111C26.9712 14.1634 26.704 14.4069 26.5807 14.4618C26.5807 14.4618 25.753 14.8035 25.2667 14.432Z" fill="#1A4850"/>
<path d="M25.2219 13.5456C25.2219 13.5456 24.9962 13.3204 24.9684 13.5837C24.9362 13.8887 25.2132 14.0115 25.2674 13.9146C25.3216 13.8176 25.2219 13.5456 25.2219 13.5456Z" fill="#A8604F"/>
<path d="M26.8021 13.5615C26.8021 13.5615 27.0278 13.3363 27.0556 13.5995C27.0878 13.9045 26.8107 14.0274 26.7566 13.9304C26.7024 13.8333 26.8021 13.5615 26.8021 13.5615Z" fill="#A8604F"/>
<path d="M25.9883 14.6504C25.4875 14.6504 25.205 14.3233 25.205 13.3425C25.205 12.8366 25.4625 12.5262 26.0233 12.5262C26.584 12.5262 26.8204 12.8365 26.8204 13.3425C26.8204 14.3966 26.5056 14.6504 25.9883 14.6504Z" fill="#A8604F"/>
<path d="M26.6545 13.6922C26.6639 13.7149 26.6661 13.7399 26.6607 13.7639C26.6553 13.7879 26.6425 13.8096 26.6242 13.826C26.606 13.8424 26.583 13.8528 26.5586 13.8556C26.5342 13.8584 26.5095 13.8536 26.488 13.8418C26.4664 13.83 26.4491 13.8118 26.4383 13.7897C26.4276 13.7676 26.424 13.7427 26.428 13.7184C26.432 13.6942 26.4435 13.6718 26.4608 13.6543C26.4781 13.6369 26.5003 13.6252 26.5246 13.621C26.5512 13.6135 26.5797 13.6168 26.604 13.6301C26.6283 13.6435 26.6464 13.6657 26.6545 13.6922V13.6922Z" fill="#874538"/>
<path d="M25.6245 13.7196C25.6284 13.7439 25.6246 13.7688 25.6137 13.7908C25.6027 13.8128 25.5853 13.8309 25.5636 13.8426C25.542 13.8542 25.5172 13.8589 25.4929 13.8558C25.4685 13.8528 25.4456 13.8423 25.4274 13.8257C25.4093 13.8092 25.3967 13.7874 25.3915 13.7634C25.3863 13.7393 25.3886 13.7143 25.3983 13.6917C25.4079 13.6691 25.4243 13.65 25.4453 13.6371C25.4662 13.6242 25.4906 13.6182 25.5152 13.6198C25.5428 13.6189 25.5697 13.6288 25.5902 13.6475C25.6106 13.6661 25.6229 13.692 25.6245 13.7196Z" fill="#874538"/>
<path d="M26.434 13.1662C26.4307 13.1668 26.4273 13.1666 26.424 13.1658C26.4207 13.1649 26.4177 13.1634 26.415 13.1614C26.3551 13.1239 26.2834 13.1099 26.2138 13.1221C26.2072 13.1232 26.2005 13.1217 26.195 13.1179C26.1896 13.114 26.1859 13.1083 26.1846 13.1017C26.184 13.0985 26.1841 13.0951 26.1848 13.0919C26.1854 13.0886 26.1868 13.0856 26.1887 13.0829C26.1906 13.0801 26.193 13.0778 26.1958 13.076C26.1986 13.0743 26.2017 13.0731 26.205 13.0725C26.2885 13.0576 26.3746 13.0751 26.4457 13.1214C26.4496 13.1244 26.4525 13.1284 26.4541 13.133C26.4557 13.1377 26.4559 13.1427 26.4547 13.1474C26.4535 13.1521 26.4509 13.1564 26.4473 13.1597C26.4437 13.163 26.4392 13.1651 26.4344 13.1659L26.434 13.1662Z" fill="#1A4850"/>
<path d="M25.4756 13.1697C25.4693 13.169 25.4634 13.1658 25.4594 13.1608C25.4552 13.1556 25.4532 13.149 25.4539 13.1424C25.4545 13.1358 25.4577 13.1298 25.4628 13.1255C25.5325 13.0771 25.618 13.0571 25.702 13.0694C25.7085 13.0704 25.7144 13.074 25.7183 13.0793C25.7222 13.0847 25.7239 13.0913 25.7229 13.0979C25.7217 13.1044 25.7181 13.1102 25.7128 13.1141C25.7075 13.118 25.7008 13.1197 25.6943 13.1188C25.6244 13.109 25.5534 13.1252 25.4946 13.1643C25.492 13.1664 25.4889 13.168 25.4857 13.1689C25.4824 13.1699 25.479 13.1701 25.4756 13.1697V13.1697Z" fill="#1A4850"/>
<path d="M26.3822 13.4489C26.3822 13.5111 26.3542 13.5615 26.3196 13.5615C26.2851 13.5615 26.2571 13.5111 26.2571 13.4489C26.2571 13.3868 26.2851 13.3363 26.3196 13.3363C26.3542 13.3363 26.3822 13.3869 26.3822 13.4489Z" fill="#1A4850"/>
<path d="M25.7135 13.4489C25.7135 13.5111 25.6855 13.5615 25.6509 13.5615C25.6164 13.5615 25.5884 13.5111 25.5884 13.4489C25.5884 13.3868 25.6164 13.3363 25.6509 13.3363C25.6855 13.3363 25.7135 13.3869 25.7135 13.4489Z" fill="#1A4850"/>
<path d="M25.3585 12.6347C25.7783 12.7647 26.2193 12.8124 26.6572 12.7751C26.6572 12.7751 26.8203 12.9784 26.8005 13.6959C26.8005 13.6959 27.3165 12.4029 26.0087 12.4029C24.701 12.4029 25.2224 13.6672 25.2224 13.6672C25.2224 13.6672 25.1152 12.8768 25.3585 12.6347Z" fill="#1A4850"/>
<path d="M26.0198 13.7833L25.9823 13.7456L26.0813 13.6472C25.9853 13.5116 25.9858 13.1971 25.9859 13.1831L26.0391 13.1834C26.0391 13.1868 26.0385 13.5248 26.1366 13.6311L26.154 13.6499L26.0198 13.7833Z" fill="#874538"/>
<path d="M25.6876 13.9471C25.6876 13.9471 26.1804 13.9679 26.4293 13.902C26.436 13.9497 26.4322 13.9983 26.4182 14.0444C26.4041 14.0905 26.3801 14.133 26.3479 14.1688C26.3157 14.2047 26.2761 14.2331 26.2317 14.252C26.1874 14.2709 26.1395 14.2798 26.0913 14.2782C25.6876 14.297 25.6876 13.9471 25.6876 13.9471Z" fill="#1A4850"/>
<path d="M27.7935 15.3019C27.8875 15.2845 27.8781 15.5306 27.7935 15.4592C27.7089 15.3879 27.6994 15.3194 27.7935 15.3019Z" fill="#CFD8DC"/>
<path d="M26.6594 16.4946C26.645 16.5891 26.4154 16.4996 26.5108 16.443C26.6061 16.3865 26.6737 16.4 26.6594 16.4946Z" fill="#CFD8DC"/>
<path d="M25.6498 17.0082C25.6498 17.0082 25.5007 17.3911 25.509 17.6075C25.5173 17.8239 25.5883 17.7956 25.5883 17.7956C25.5538 17.8109 25.5236 17.8343 25.5001 17.8638C25.4767 17.8933 25.4607 17.928 25.4536 17.965C25.4321 18.0897 25.747 18.1813 25.7686 18.1813C25.7902 18.1813 26.0126 18.0967 26.0126 18.0967L26.0591 17.389L25.8626 17.2655L25.6498 17.0082Z" fill="#874538"/>
<path d="M25.7689 16.9583C25.9013 17.0396 26.0274 17.1308 26.1461 17.231C26.2514 17.3345 26.1913 18.1339 26.1461 18.1715C26.1009 18.2091 25.7543 18.2867 25.6878 18.2432C25.6213 18.1997 25.7137 17.9646 25.7137 17.9646C25.7137 17.9646 25.8878 17.927 25.8628 17.9928C25.8479 18.0321 25.8479 18.0755 25.8628 18.1148L25.9343 18.0865C25.9148 17.984 25.9148 17.8787 25.9343 17.7762C25.9693 17.6445 25.6892 17.5056 25.6552 17.2647C25.6213 17.0238 25.7689 16.9583 25.7689 16.9583Z" fill="#A8604F"/>
<path d="M22.9508 16.5691C22.8637 16.1932 23.2367 16.0602 23.7558 16.1244C24.3577 16.1989 25.5938 16.3561 25.8625 17.0082C25.8625 17.0082 25.9503 17.2657 25.7231 17.3889C25.0882 17.7342 23.1142 17.2752 22.9508 16.5691Z" fill="#CE364C"/>
<path d="M24.8339 16.3201C24.8339 16.3201 24.1165 16.0219 23.7591 15.9919C23.4018 15.9619 24.2532 16.2738 24.8339 16.3201Z" fill="#A02E44"/>
<path d="M30.211 9.86169C30.1528 9.95701 30.1046 10.0581 30.0673 10.1634C30.0297 10.365 30.0078 10.4763 29.9371 10.5689C29.8663 10.6615 29.904 10.8247 29.904 10.8247C29.904 10.8247 29.6301 10.9654 29.3999 10.7916C29.3999 10.7916 29.424 10.6298 29.3999 10.584C29.3525 10.4922 29.2005 10.4433 29.1486 10.2582C29.1 10.1173 29.0299 9.98472 28.9409 9.86515C28.9409 9.86515 28.9854 9.76885 29.0666 9.82753C29.1479 9.88622 29.2005 10.0352 29.2449 10.0502C29.2537 10.0533 29.2628 10.0554 29.272 10.0562C29.2728 10.0563 29.2736 10.0566 29.2743 10.057C29.29 10.0599 29.3061 10.0593 29.3216 10.0553C29.3371 10.0512 29.3515 10.0439 29.3638 10.0337C29.3659 10.0327 29.3677 10.0311 29.3691 10.0292C29.4436 9.94267 29.4608 9.68834 29.4578 9.57469C29.4533 9.41673 29.4593 9.19852 29.5556 9.23538C29.6519 9.27225 29.5639 9.36028 29.6384 9.70867L29.6745 9.71314C29.6813 9.73801 29.7475 9.50178 29.7633 9.27977C29.7746 9.12709 29.8747 9.18347 29.8965 9.23166C29.9183 9.27984 29.8852 9.43177 29.8784 9.54237C29.8732 9.61535 29.8672 9.69146 29.8634 9.73652L29.9055 9.75983C30.0575 9.495 30.0056 9.38515 30.0944 9.37986C30.1832 9.37458 30.1508 9.59807 30.1034 9.68305C30.0775 9.7436 30.0588 9.80699 30.0477 9.87192C30.2036 9.69207 30.1861 9.59807 30.2578 9.60932C30.3314 9.62166 30.2652 9.79995 30.211 9.86169Z" fill="#A8604F"/>
<path d="M29.5383 10.2764C29.4857 10.1311 29.2976 10.0649 29.274 10.0574C29.2898 10.0603 29.3059 10.0597 29.3214 10.0557C29.3369 10.0517 29.3513 10.0443 29.3636 10.0341C29.4137 10.0521 29.4573 10.0849 29.4885 10.1282C29.5196 10.1714 29.537 10.2231 29.5383 10.2764V10.2764Z" fill="#874538"/>
<path d="M26.2699 29.5203C26.2699 29.5203 26.1658 29.3079 26.2586 29.2166C26.3515 29.1253 26.4607 29.2946 26.6192 29.2573C26.7777 29.2199 26.8145 29.107 26.8557 29.2604C26.8969 29.4139 26.8467 29.8965 26.2699 29.5203Z" fill="#CFD8DC"/>
<path d="M26.8667 29.5109C26.8667 29.5109 26.4409 29.6617 26.2201 29.5109L26.2762 29.6952C26.2762 29.6952 26.7391 29.7442 26.8029 29.6274L26.8667 29.5109Z" fill="#ADBEC4"/>
<path d="M26.861 29.7399C26.861 29.7399 26.4711 29.6857 26.283 29.7826V29.874C26.283 29.874 26.7912 29.7554 26.9556 29.874L26.861 29.7399Z" fill="#ADBEC4"/>
<path d="M26.2643 30.0638C26.2933 30.0053 26.3378 29.956 26.393 29.9211C26.4482 29.8863 26.5119 29.8673 26.5771 29.8663C26.7191 29.8586 26.8594 29.9001 26.9744 29.9837C26.9744 29.9837 26.5982 29.8287 26.2643 30.0638Z" fill="#ADBEC4"/>
<path d="M36.3 27.5037C35.8664 28.0932 35.2418 28.5141 34.5326 28.6947C34.2369 28.4584 34.2294 28.1786 34.2294 28.1786C34.2294 28.1786 33.9442 27.9243 33.9066 27.8024C33.869 27.6805 34.1512 27.3133 34.3205 27.351C34.3665 27.3634 34.4094 27.3852 34.4464 27.4151C34.4835 27.445 34.5139 27.4824 34.5356 27.5248C34.3957 27.2095 34.5078 27.0997 34.7064 27.1268C34.9134 27.1546 34.7177 27.2035 34.8659 27.3698C34.8764 27.3814 34.8883 27.3918 34.9013 27.4006C34.9303 27.4202 34.9631 27.4333 34.9976 27.439C35.0326 27.445 35.0683 27.4468 35.1037 27.4442C35.1239 27.4433 35.144 27.4413 35.1639 27.4382C35.2039 27.4317 35.2434 27.4221 35.282 27.4096C35.348 27.3886 35.4118 27.3611 35.4724 27.3276C35.7312 27.1862 35.8403 27.1379 36.0374 27.1884C36.2346 27.239 36.2308 27.3871 36.2308 27.3871L36.3 27.5037Z" fill="#CFD8DC"/>
<path d="M36.3001 27.5037C35.8665 28.0932 35.2419 28.5142 34.5327 28.6948C35.0526 28.4712 35.5304 28.1786 35.8569 27.8182C36.1834 27.4578 36.3001 27.5037 36.3001 27.5037Z" fill="#ADBEC4"/>
<path d="M34.9014 27.4006C34.9304 27.4202 34.9632 27.4333 34.9977 27.4391C34.9437 27.4474 34.8938 27.4731 34.8555 27.5122C34.8173 27.5513 34.7927 27.6017 34.7855 27.6559L34.7013 27.6288C34.7193 27.4164 34.8871 27.4012 34.9014 27.4006Z" fill="#ADBEC4"/>
<path d="M35.0346 27.6768L34.9465 27.6798C34.9317 27.6389 34.9287 27.5947 34.9377 27.5522C34.9467 27.5096 34.9675 27.4704 34.9977 27.4391C35.0327 27.4451 35.0684 27.4468 35.1038 27.4443C35.0736 27.4741 35.0513 27.511 35.0392 27.5517C35.0271 27.5923 35.0255 27.6354 35.0346 27.6768V27.6768Z" fill="#ADBEC4"/>
<path d="M35.252 27.6286L35.1647 27.6399C35.1502 27.6083 35.1426 27.574 35.1425 27.5392C35.1423 27.5044 35.1497 27.47 35.164 27.4383C35.204 27.4317 35.2435 27.4222 35.2821 27.4097C35.2611 27.4416 35.2474 27.4778 35.2422 27.5157C35.237 27.5536 35.2404 27.5922 35.252 27.6286V27.6286Z" fill="#ADBEC4"/>
<path d="M26.8745 18.3506C26.8745 18.3506 27.0677 19.3933 26.677 19.8087C26.2863 20.2242 26.5447 19.8828 26.6613 19.3471C26.7778 18.8114 26.6891 18.2471 26.8745 18.3506Z" fill="#CE364C"/>
<path d="M28.6776 17.8852C28.6776 17.8852 29.2935 18.0876 29.6156 18.6564C29.6156 18.6564 29.1855 17.7302 28.6776 17.8852Z" fill="#CE364C"/>
<path d="M11.9976 10.1386C12.1073 10.1594 12.2146 10.1916 12.3177 10.2346C12.4924 10.3421 12.5896 10.4007 12.7057 10.4104C12.8217 10.4201 12.8683 10.6192 12.8683 10.6192C12.8683 10.6192 13.324 10.7189 13.3494 10.4316C13.3494 10.4316 13.0946 10.071 13.0768 10.0223C13.0406 9.92557 13.1064 9.78014 13.004 9.61737C12.9324 9.48677 12.8812 9.34593 12.8524 9.19979C12.8524 9.19979 12.7512 9.16807 12.7401 9.26755C12.7292 9.36826 12.8041 9.50623 12.7855 9.54919C12.782 9.55775 12.7774 9.56585 12.7719 9.57332C12.7714 9.57396 12.7711 9.5747 12.7709 9.57549C12.7625 9.58907 12.7512 9.60065 12.7378 9.60941C12.7245 9.61816 12.7093 9.62389 12.6935 9.62618C12.6914 9.62703 12.689 9.62733 12.6867 9.62706C12.5726 9.62421 12.3725 9.46631 12.2903 9.38777C12.1763 9.2784 12.0105 9.13636 11.9732 9.23245C11.9358 9.32854 12.0602 9.32244 12.2684 9.61154L12.2475 9.64136C12.261 9.66304 12.0417 9.55326 11.8666 9.41617C11.7459 9.32204 11.7205 9.43406 11.7415 9.48258C11.7625 9.5311 11.8974 9.60856 11.984 9.67782C12.0416 9.72288 12.102 9.76944 12.138 9.79695L12.1269 9.84385C11.8287 9.77865 11.7821 9.66643 11.7186 9.72864C11.6551 9.79085 11.8424 9.91697 11.9372 9.93872C11.9995 9.96016 12.059 9.98887 12.1146 10.0242C11.8767 10.019 11.8186 9.94292 11.779 10.0035C11.7389 10.0667 11.9156 10.1373 11.9976 10.1386Z" fill="#FF8B66"/>
<path d="M12.7565 9.91841C12.6841 9.78186 12.7614 9.598 12.7714 9.57564C12.763 9.58923 12.7517 9.6008 12.7384 9.60956C12.725 9.61832 12.7099 9.62404 12.694 9.62633C12.6738 9.67563 12.6689 9.72991 12.68 9.78203C12.6912 9.83416 12.7178 9.8817 12.7565 9.91841V9.91841Z" fill="#EF6E4B"/>
<path d="M25.4059 10.1386C25.2961 10.1594 25.1888 10.1916 25.0857 10.2346C24.911 10.3421 24.8139 10.4007 24.6978 10.4104C24.5818 10.4201 24.5352 10.6192 24.5352 10.6192C24.5352 10.6192 24.0795 10.7189 24.0537 10.4316C24.0537 10.4316 24.3085 10.071 24.3263 10.0223C24.3625 9.92558 24.2968 9.78015 24.3991 9.61737C24.4708 9.48677 24.5219 9.34593 24.5508 9.19979C24.5508 9.19979 24.652 9.16807 24.663 9.26755C24.674 9.36826 24.599 9.50623 24.6177 9.54919C24.6212 9.55775 24.6258 9.56585 24.6312 9.57332C24.6317 9.57396 24.632 9.5747 24.6322 9.57549C24.6406 9.58907 24.6519 9.60064 24.6653 9.6094C24.6786 9.61815 24.6937 9.62388 24.7096 9.62618C24.7117 9.62702 24.714 9.62732 24.7163 9.62706C24.8305 9.62421 25.0306 9.46632 25.1128 9.38777C25.2268 9.2784 25.3926 9.13636 25.4299 9.23245C25.4673 9.32854 25.3429 9.32245 25.1347 9.61154L25.1556 9.64136C25.1421 9.66304 25.3613 9.55326 25.5364 9.41617C25.6572 9.32204 25.6826 9.43406 25.6615 9.48258C25.6404 9.5311 25.5056 9.60856 25.4191 9.67782C25.3615 9.72288 25.3011 9.76944 25.2651 9.79695L25.2761 9.84385C25.5743 9.77866 25.621 9.66643 25.6845 9.72864C25.748 9.79085 25.5607 9.91697 25.4658 9.93872C25.4036 9.96015 25.344 9.98886 25.2885 10.0242C25.5264 10.019 25.5844 9.94292 25.624 10.0035C25.6645 10.0667 25.4879 10.1373 25.4059 10.1386Z" fill="#FF8B66"/>
<path d="M24.647 9.91841C24.7193 9.78186 24.6421 9.598 24.632 9.57564C24.6404 9.58922 24.6517 9.60079 24.665 9.60955C24.6784 9.6183 24.6935 9.62403 24.7094 9.62633C24.7296 9.67563 24.7345 9.7299 24.7234 9.78202C24.7123 9.83415 24.6856 9.88169 24.647 9.91841V9.91841Z" fill="#EF6E4B"/>
<path d="M21.4009 23.9527L20.5254 18.5319L18.7724 18.7277L17.0194 18.5319L16.1439 23.9527L15.7234 29.2101C15.7234 29.2101 15.8571 29.6457 16.7316 29.3448C16.7316 29.3448 17.3804 24.4684 17.4807 24.361C17.5811 24.2537 18.6113 21.0685 18.6113 21.0685H18.9335C18.9335 21.0685 19.9636 24.2536 20.0641 24.361C20.1646 24.4685 20.8132 29.3448 20.8132 29.3448C21.6874 29.6457 21.8214 29.2101 21.8214 29.2101L21.4009 23.9527Z" fill="#0E3944"/>
<path d="M18.22 13.2825C18.3308 13.3902 18.8756 13.5846 19.1632 13.2825L19.3583 13.4741C19.3583 13.4741 19.1359 13.9971 18.7456 14.0154C18.3552 14.0337 18.0731 13.5501 18.0731 13.5501L18.22 13.2825Z" fill="#0C476B"/>
<path d="M19.7629 13.2234C20.415 12.9427 22.5217 12.1965 22.5217 12.1965C22.5217 12.1965 23.938 10.4222 24.2267 10.1588C24.2267 10.1588 24.5402 10.2153 24.6319 10.6056C24.6319 10.6056 23.72 12.5582 23.2243 13.1172C22.7286 13.6762 20.218 14.8853 20.218 14.8853L19.7629 13.2234Z" fill="#0C476B"/>
<path d="M17.4807 13.1832C17.6747 13.0605 18.6486 13.7118 18.6486 13.7118C18.6486 13.7118 19.9148 13.0394 20.212 13.1696C20.212 13.1696 20.4797 13.528 20.5873 14.4492C20.6949 15.3704 20.7021 19.1615 20.7021 19.1615C20.0539 19.3641 19.3784 19.4657 18.6993 19.4626C17.3867 19.4626 16.6805 19.0862 16.6805 19.0862C16.6805 19.0862 16.4462 13.8375 17.4807 13.1832Z" fill="#FFB878"/>
<path d="M18.2715 13.0846C18.2715 13.0846 18.4117 13.5257 18.2715 13.6957C18.2715 13.6957 18.4171 14.0013 18.6789 14.0148C18.9813 14.0304 19.0863 13.6957 19.0863 13.6957C19.0863 13.6957 18.9263 13.2696 19.0863 13.1197L18.2715 13.0846Z" fill="#EF6E4B"/>
<path d="M17.9219 12.6505C17.9219 12.6505 17.6268 12.0825 17.6853 11.4755C17.7438 10.8685 18.6583 10.7292 19.2747 11.0275C19.2747 11.0275 19.0917 10.8486 19.1633 10.7988C19.2349 10.7491 19.3584 11.0672 19.3584 11.0672C19.3584 11.0672 19.5531 11.0076 19.5829 11.0672C19.6127 11.1269 19.3834 11.1595 19.3834 11.1595C19.3834 11.1595 19.7812 11.3801 19.4096 12.5541L17.9219 12.6505Z" fill="#8B383E"/>
<path d="M17.8775 12.2908C17.8775 12.2908 17.6574 12.0712 17.6303 12.3279C17.599 12.6253 17.8691 12.7451 17.9217 12.6505C17.9744 12.5559 17.8775 12.2908 17.8775 12.2908Z" fill="#FF8B66"/>
<path d="M19.4183 12.3063C19.4183 12.3063 19.6384 12.0867 19.6655 12.3434C19.6968 12.6408 19.4267 12.7607 19.3741 12.6661C19.3214 12.5714 19.4183 12.3063 19.4183 12.3063Z" fill="#FF8B66"/>
<path d="M18.6248 13.368C18.1365 13.368 17.861 13.0491 17.861 12.0926C17.861 11.5992 18.1117 11.2965 18.6589 11.2965C19.206 11.2965 19.4361 11.5992 19.4361 12.0926C19.4361 13.1204 19.1292 13.368 18.6248 13.368Z" fill="#FF8B66"/>
<path d="M19.2742 12.4338C19.2834 12.4559 19.2855 12.4803 19.2802 12.5037C19.2749 12.527 19.2625 12.5482 19.2447 12.5642C19.2269 12.5802 19.2045 12.5902 19.1807 12.593C19.1569 12.5957 19.1328 12.591 19.1118 12.5795C19.0908 12.5679 19.0739 12.5502 19.0635 12.5286C19.053 12.507 19.0495 12.4828 19.0534 12.4591C19.0574 12.4355 19.0686 12.4137 19.0854 12.3967C19.1023 12.3797 19.1241 12.3683 19.1477 12.3642C19.1737 12.357 19.2015 12.3602 19.2251 12.3732C19.2488 12.3862 19.2664 12.4079 19.2742 12.4338V12.4338Z" fill="#DB614D"/>
<path d="M18.2701 12.4605C18.2738 12.4841 18.2701 12.5084 18.2595 12.5298C18.2488 12.5513 18.2318 12.5689 18.2107 12.5803C18.1896 12.5916 18.1655 12.5961 18.1417 12.5932C18.1179 12.5903 18.0957 12.58 18.078 12.5639C18.0603 12.5477 18.048 12.5265 18.0429 12.5031C18.0378 12.4797 18.0401 12.4553 18.0495 12.4332C18.0589 12.4112 18.0749 12.3926 18.0953 12.38C18.1157 12.3675 18.1395 12.3616 18.1634 12.3631C18.1903 12.3622 18.2166 12.3719 18.2365 12.3901C18.2565 12.4083 18.2685 12.4335 18.2701 12.4605V12.4605Z" fill="#DB614D"/>
<path d="M19.0511 11.9374C19.0478 11.9374 19.0446 11.9367 19.0415 11.9354C19.0385 11.9341 19.0358 11.9323 19.0335 11.9299C18.9814 11.8849 18.9144 11.8607 18.8456 11.8621C18.8392 11.8622 18.8329 11.8598 18.8282 11.8554C18.8235 11.851 18.8207 11.8449 18.8205 11.8384C18.8203 11.8352 18.8209 11.8321 18.822 11.829C18.8231 11.826 18.8248 11.8233 18.827 11.821C18.8292 11.8186 18.8318 11.8167 18.8348 11.8154C18.8377 11.8141 18.8408 11.8134 18.844 11.8133C18.9268 11.8114 19.0071 11.8411 19.0687 11.8963C19.0721 11.8998 19.0743 11.9041 19.0751 11.9088C19.076 11.9135 19.0755 11.9184 19.0736 11.9228C19.0717 11.9272 19.0686 11.9309 19.0646 11.9335C19.0606 11.9361 19.0559 11.9375 19.0511 11.9375V11.9374Z" fill="#8B383E"/>
<path d="M18.1318 11.9374C18.1255 11.9374 18.1195 11.935 18.115 11.9306C18.1103 11.9262 18.1076 11.92 18.1074 11.9136C18.1073 11.9071 18.1097 11.9008 18.1141 11.8961C18.1758 11.8409 18.2561 11.8112 18.3388 11.8131C18.342 11.8132 18.3452 11.8139 18.3481 11.8152C18.351 11.8166 18.3536 11.8184 18.3558 11.8208C18.358 11.8231 18.3597 11.8259 18.3609 11.8289C18.362 11.8319 18.3625 11.835 18.3624 11.8383C18.3621 11.8447 18.3593 11.8507 18.3546 11.8551C18.3499 11.8595 18.3437 11.862 18.3373 11.8619C18.2685 11.8608 18.2017 11.8849 18.1495 11.9297C18.1472 11.9321 18.1445 11.934 18.1414 11.9353C18.1384 11.9367 18.1351 11.9374 18.1318 11.9374V11.9374Z" fill="#8B383E"/>
<path d="M19.0088 12.1368C19.0088 12.1978 18.9817 12.2466 18.9478 12.2466C18.9139 12.2466 18.8868 12.1974 18.8868 12.1368C18.8868 12.0761 18.9139 12.027 18.9478 12.027C18.9817 12.027 19.0088 12.0761 19.0088 12.1368Z" fill="#1A4850"/>
<path d="M18.3568 12.1368C18.3568 12.1978 18.3297 12.2466 18.2959 12.2466C18.262 12.2466 18.2349 12.1974 18.2349 12.1368C18.2349 12.0761 18.262 12.027 18.2959 12.027C18.3297 12.027 18.3568 12.0761 18.3568 12.1368Z" fill="#1A4850"/>
<path d="M18.3568 12.8452C18.3568 12.8452 18.7873 12.9006 19.0088 12.7943C19.0088 12.7943 18.8836 13.0875 18.6484 13.0611C18.5842 13.057 18.5225 13.0344 18.4708 12.9961C18.419 12.9578 18.3795 12.9054 18.3568 12.8452V12.8452Z" fill="#1A4850"/>
<path d="M19.3852 12.4146C19.3852 12.4146 19.3699 11.8836 19.1632 11.4754C19.1632 11.4754 18.7987 11.6438 18.7185 11.6042C18.6384 11.5646 18.795 11.4754 18.795 11.4754C18.795 11.4754 18.1936 11.6737 18.1575 11.6339C18.1214 11.5941 18.3568 11.4754 18.3568 11.4754L17.9822 11.6042C17.9822 11.6042 17.867 12.082 17.9144 12.4148C17.9144 12.4148 17.7534 12.1369 17.7335 11.9451C17.7137 11.7534 17.7979 11.2065 18.3622 11.1668C18.9265 11.127 19.2432 11.2549 19.3832 11.5141C19.5232 11.7734 19.5057 12.0918 19.3852 12.4146Z" fill="#8B383E"/>
<path d="M18.7099 12.6918C18.6726 12.691 18.6355 12.6855 18.5996 12.6755L18.6135 12.6256C18.6647 12.6396 18.745 12.6481 18.7626 12.6274C18.7686 12.6202 18.7662 12.6035 18.7558 12.5817C18.6853 12.4316 18.6706 12.0516 18.67 12.0356L18.7219 12.0336C18.7219 12.0375 18.7367 12.4191 18.8028 12.5595C18.8128 12.5745 18.8182 12.5922 18.8181 12.6103C18.818 12.6284 18.8124 12.646 18.8022 12.6609C18.7898 12.6722 18.7752 12.6809 18.7593 12.6862C18.7434 12.6916 18.7266 12.6935 18.7099 12.6918V12.6918Z" fill="#DB614D"/>
<path d="M19.2501 13.4222C19.2501 13.4222 20.1338 16.1655 20.218 18.3975C20.218 18.3975 20.5369 18.4853 20.896 17.9963C21.2552 17.5072 21.0415 13.6335 20.3535 12.9882C20.3535 12.9885 20.0414 12.9173 19.2501 13.4222Z" fill="#105E99"/>
<path d="M19.3942 13.9019C19.3942 13.9019 19.5524 13.5344 19.4823 13.2824C19.4123 13.0303 19.1638 13.2824 19.1638 13.2824C19.1638 13.2824 19.2638 13.6951 19.3942 13.9019Z" fill="#0C476B"/>
<path d="M17.6204 13.2234C16.9685 12.9427 14.8617 12.1965 14.8617 12.1965C14.8617 12.1965 13.442 10.3705 13.1532 10.1071C13.0456 10.1737 12.955 10.2645 12.8888 10.3722C12.8225 10.48 12.7823 10.6018 12.7715 10.7278C12.7715 10.7278 13.6634 12.5582 14.1591 13.1172C14.6547 13.6762 17.1655 14.8853 17.1655 14.8853L17.6204 13.2234Z" fill="#0C476B"/>
<path d="M18.1333 13.4222C18.1333 13.4222 17.2496 16.1655 17.1654 18.3975C17.1654 18.3975 16.8465 18.4853 16.4874 17.9963C16.1283 17.5072 16.3419 13.6335 17.0295 12.9882C17.0298 12.9885 17.342 12.9173 18.1333 13.4222Z" fill="#105E99"/>
<path d="M17.9892 13.9019C17.9892 13.9019 17.831 13.5344 17.9011 13.2824C17.9712 13.0303 18.2196 13.2824 18.2196 13.2824C18.2196 13.2824 18.1197 13.6951 17.9892 13.9019Z" fill="#0C476B"/>
<path d="M22.6008 30.6239H20.8462C20.7236 29.9264 20.9192 29.2279 20.9192 29.2279L21.7213 29.0902C21.7942 29.5311 21.8823 29.7049 22.0041 29.7944H22.0049C22.0936 29.8591 22.1998 29.8801 22.3322 29.9261C22.3936 29.9447 22.4499 29.977 22.4969 30.0207C22.5439 30.0644 22.5803 30.1182 22.6033 30.1781C22.6479 30.3235 22.647 30.479 22.6008 30.6239V30.6239Z" fill="#662C33"/>
<path d="M22.603 30.1785C22.1704 30.2327 21.2201 30.3252 21.278 30.0747C21.3262 29.8655 21.7272 29.8091 22.0041 29.7948H22.0049C22.0936 29.8595 22.1998 29.8805 22.3322 29.9265C22.3935 29.9451 22.4498 29.9775 22.4968 30.0211C22.5437 30.0648 22.5801 30.1186 22.603 30.1785Z" fill="#8B383E"/>
<path d="M16.7247 30.6239H14.9701C14.9365 30.5146 14.9262 30.3995 14.94 30.2861C14.9492 30.2035 14.9824 30.1254 15.0355 30.0615C15.0886 29.9976 15.1592 29.9506 15.2387 29.9264C15.3907 29.8737 15.5074 29.8542 15.6029 29.7646C15.7067 29.6668 15.7842 29.4863 15.8497 29.0905L16.6518 29.2282C16.6518 29.2282 16.8466 29.9264 16.7247 30.6239Z" fill="#662C33"/>
<path d="M14.9401 30.2861C14.9492 30.2035 14.9824 30.1254 15.0355 30.0615C15.0886 29.9976 15.1593 29.9506 15.2388 29.9264C15.3908 29.8737 15.5074 29.8542 15.603 29.7646C15.8249 29.8331 16.1356 29.9588 16.2319 30.1491C16.3659 30.41 15.3404 30.3688 14.9401 30.2861Z" fill="#8B383E"/>
<path d="M29.3212 30.4981C29.3214 30.5401 29.3189 30.582 29.3136 30.6237H27.1821C27.1821 30.5816 27.1829 30.5394 27.1851 30.4981C27.2043 30.1435 27.2717 29.7932 27.3853 29.4568L27.9179 29.2281C27.9441 29.4498 28.0562 29.6524 28.2302 29.7923C28.2683 29.8222 28.3091 29.8484 28.3522 29.8706C28.3718 29.8811 28.3914 29.8909 28.4116 29.8999C28.4558 29.9199 28.5013 29.9367 28.5478 29.9503C28.7158 29.9934 28.8869 30.0234 29.0595 30.0398C29.2868 30.0753 29.3212 30.3379 29.3212 30.4981Z" fill="#164353"/>
<path d="M29.3212 30.4982C29.3214 30.5402 29.3189 30.5821 29.3136 30.6238H27.1821C27.1821 30.5816 27.1829 30.5395 27.1851 30.4982H29.3212Z" fill="#225866"/>
<path d="M28.3521 29.8708L28.0564 29.9656L27.994 29.8572L28.2303 29.7925C28.2683 29.8224 28.3091 29.8486 28.3521 29.8708V29.8708Z" fill="#225866"/>
<path d="M28.5477 29.9505L28.3484 30.0829L28.2257 30.0347L28.4115 29.9001C28.4557 29.9201 28.5012 29.9369 28.5477 29.9505V29.9505Z" fill="#225866"/>
<path d="M21.1773 30.4981C21.1744 30.5408 21.1663 30.583 21.1532 30.6237H19.7335C19.7159 30.5833 19.7025 30.5412 19.6936 30.4981C19.5537 29.8187 20.4972 28.9873 20.4972 28.9873L20.7967 29.3871C20.7967 29.3871 20.762 30.0266 21.0155 30.1597C21.0742 30.1924 21.1213 30.2425 21.1503 30.3031C21.1793 30.3637 21.1887 30.4319 21.1773 30.4981V30.4981Z" fill="#164353"/>
<path d="M19.6936 30.4981H21.1773C21.1744 30.5408 21.1663 30.583 21.1532 30.6238H19.7335C19.7159 30.5834 19.7025 30.5413 19.6936 30.4981V30.4981Z" fill="#225866"/>
<path d="M20.9507 30.1088C20.9507 30.1088 20.3525 29.9723 20.0798 30.1489V30.0502C20.0798 30.0502 20.5829 29.8057 20.9507 30.1088Z" fill="#225866"/>
<path d="M20.8322 29.9571C20.8322 29.9571 20.4502 29.7824 20.08 29.9571L20.1222 29.8574C20.1222 29.8574 20.5646 29.6901 20.8322 29.9571Z" fill="#225866"/>
<path d="M28.678 24.458C28.6787 25.0291 28.1716 29.6849 28.1716 29.6849C27.8663 29.7153 27.5582 29.698 27.2582 29.6338C27.119 27.2742 27.1054 25.2451 27.1054 25.2451L24.6752 23.4232L24.6692 23.4187C24.6692 23.4187 24.6602 23.4601 24.6436 23.5339C24.5232 24.0682 24.0139 26.3056 23.8017 26.8182C23.5602 27.402 20.9195 29.8573 20.9195 29.8573C20.4289 29.7895 20.0127 29.4343 20.0127 29.4343C20.9607 27.8621 22.2533 26.2847 22.2533 26.2847C22.3541 25.7182 22.4264 24.4579 22.4693 23.5159C22.47 23.5016 22.4707 23.4866 22.4715 23.4723C22.5001 22.8343 22.5144 22.3527 22.5144 22.3527L22.069 21.4393L24.8987 20.3995L25.5329 21.2114C25.5329 21.2114 25.6782 21.346 25.9069 21.5612L25.9385 21.5905C26.7879 22.392 28.678 24.2025 28.678 24.458Z" fill="#8BBDDB"/>
<path d="M22.4695 23.5161C22.4702 23.5018 22.471 23.4868 22.4717 23.4725C23.0676 23.1489 22.9675 22.6328 22.966 22.6275L23.0029 22.62C23.0041 22.6252 23.111 23.1798 22.4695 23.5161Z" fill="#6097B2"/>
<path d="M24.6313 23.0586C24.6528 23.1793 24.6673 23.3012 24.6749 23.4235L24.6689 23.4191C24.6689 23.4191 24.6599 23.4604 24.6433 23.5343C24.617 22.6495 24.2521 22.1265 24.2476 22.1206L24.2784 22.0987C24.2822 22.1032 24.5124 22.4358 24.624 23.0159C25.0544 22.6336 24.633 21.8503 24.6286 21.8429L24.6616 21.8248C24.6662 21.833 25.1124 22.6621 24.6313 23.0586Z" fill="#6097B2"/>
<path d="M25.9384 21.5907C25.9376 21.5915 25.9361 21.5915 25.9354 21.5923C25.9166 21.5991 25.8967 21.6024 25.8767 21.602C25.6683 21.602 25.3184 21.3101 25.3019 21.2958L25.3267 21.2672C25.4403 21.3635 25.7571 21.5945 25.9068 21.5614L25.9384 21.5907Z" fill="#6097B2"/>
<path d="M22.2671 16.5691C22.2671 16.5691 23.1277 16.4306 23.5591 16.7056C23.9905 16.9806 24.5567 17.6981 24.5567 17.6981C24.5567 17.6981 23.8843 17.7869 23.8082 18.2435C23.8082 18.2435 23.3199 17.0802 22.2671 16.5691Z" fill="#ADBEC4"/>
<path d="M20.9719 17.0181C20.6078 17.2146 19.9991 17.9539 19.9717 18.4085C19.9446 18.8517 20.2732 19.2594 20.4946 19.606C21.1853 20.6875 21.9126 21.6431 22.2216 22.9115C22.2236 22.9196 23.8016 23.5458 25.6536 21.3196C25.6536 21.3196 24.6072 19.9116 24.2456 18.7129C24.0984 18.2249 23.9487 17.7066 23.6661 17.2762C23.5177 17.0437 23.3095 16.8553 23.0633 16.7308C22.8172 16.6064 22.5421 16.5504 22.2668 16.5688C21.7978 16.6072 21.3311 16.8241 20.9719 17.0181Z" fill="#CFD8DC"/>
<path d="M20.8193 16.5644C20.8193 16.5644 21.0523 16.9623 20.9446 17.1811C20.9446 17.1811 21.7438 17.457 21.7438 17.0099C21.7438 17.0099 21.5932 16.6747 21.6499 16.458L20.8193 16.5644Z" fill="#FFAB90"/>
<path d="M22.5951 19.2894C22.5951 19.2894 22.1506 19.4157 22.0384 19.5731C21.9262 19.7304 21.8264 20.0834 21.8264 20.0834H22.5951L22.7396 19.8175L22.9091 19.463L22.5951 19.2894Z" fill="#FFA386"/>
<path d="M21.8603 16.1207C21.8603 16.1207 22.1725 15.9898 21.9705 15.0511C21.8367 14.4292 21.6441 14.3364 21.5195 14.331C21.5195 14.331 21.3672 14.1014 20.8388 14.2113C20.6561 14.2429 20.4861 14.3256 20.3485 14.4497C20.2109 14.5739 20.1112 14.7345 20.061 14.913C19.9283 15.3375 20.1937 16.2475 20.5432 16.338L21.8603 16.1207Z" fill="#164353"/>
<path d="M21.9341 15.4864C21.9341 15.4864 22.1307 15.2126 22.2052 15.4824C22.2913 15.7951 22.0234 15.9709 21.9502 15.879C21.8771 15.7871 21.9341 15.4864 21.9341 15.4864Z" fill="#FFAB91"/>
<path d="M20.2884 15.7748C20.2884 15.7748 20.0142 15.5788 20.0309 15.8582C20.0498 16.1818 20.3599 16.2623 20.3997 16.1518C20.4395 16.0413 20.2884 15.7748 20.2884 15.7748Z" fill="#FFAB91"/>
<path d="M21.3248 16.7706C21.8471 16.6845 22.0856 16.2947 21.9168 15.2713C21.8297 14.7435 21.5078 14.4641 20.9227 14.5606C20.3377 14.6571 20.1446 15.0214 20.2315 15.5494C20.4131 16.6489 20.7852 16.8596 21.3248 16.7706Z" fill="#FFAB91"/>
<path d="M20.4649 15.8858C20.4589 15.9111 20.461 15.9377 20.4707 15.9617C20.4805 15.9858 20.4975 16.0063 20.5194 16.0203C20.5413 16.0343 20.5671 16.0412 20.593 16.0399C20.619 16.0386 20.6439 16.0294 20.6644 16.0133C20.6848 15.9973 20.6998 15.9752 20.7072 15.9503C20.7146 15.9254 20.7141 15.8988 20.7057 15.8742C20.6973 15.8496 20.6815 15.8282 20.6604 15.8129C20.6394 15.7977 20.6141 15.7894 20.5881 15.7892C20.559 15.786 20.5299 15.7944 20.5068 15.8124C20.4838 15.8305 20.4688 15.8568 20.4649 15.8858V15.8858Z" fill="#DB614D" fill-opacity="0.48"/>
<path d="M21.5441 15.7372C21.5443 15.7632 21.5525 15.7884 21.5677 15.8095C21.5829 15.8306 21.6042 15.8465 21.6288 15.8549C21.6534 15.8633 21.68 15.8639 21.7049 15.8565C21.7298 15.8492 21.7519 15.8343 21.7679 15.8139C21.784 15.7934 21.7934 15.7686 21.7947 15.7426C21.796 15.7167 21.7892 15.6909 21.7753 15.669C21.7613 15.6471 21.7409 15.63 21.7169 15.6202C21.6928 15.6104 21.6663 15.6083 21.641 15.6142C21.612 15.618 21.5856 15.633 21.5675 15.6559C21.5494 15.6789 21.541 15.7081 21.5441 15.7372Z" fill="#DB614D" fill-opacity="0.48"/>
<path d="M20.612 15.3158C20.6072 15.3158 20.6025 15.3145 20.5984 15.312C20.5943 15.3095 20.5909 15.306 20.5887 15.3017C20.5864 15.2975 20.5854 15.2927 20.5856 15.2879C20.5859 15.2831 20.5874 15.2785 20.5901 15.2745C20.6464 15.2045 20.7271 15.1585 20.816 15.1457C20.8194 15.1452 20.8229 15.1454 20.8263 15.1463C20.8297 15.1472 20.8328 15.1488 20.8356 15.1509C20.8384 15.153 20.8407 15.1557 20.8424 15.1587C20.8441 15.1617 20.8452 15.165 20.8457 15.1685C20.8466 15.1754 20.8447 15.1825 20.8404 15.188C20.8362 15.1936 20.8299 15.1973 20.823 15.1982C20.7491 15.2091 20.6818 15.2468 20.6339 15.304C20.6315 15.3077 20.6282 15.3106 20.6244 15.3127C20.6206 15.3147 20.6163 15.3158 20.612 15.3158V15.3158Z" fill="#1A4850"/>
<path d="M21.5953 15.1536C21.5896 15.1536 21.584 15.1517 21.5794 15.1482C21.5157 15.1094 21.44 15.0953 21.3666 15.1087C21.3632 15.1094 21.3596 15.1095 21.3562 15.1088C21.3528 15.1082 21.3495 15.1068 21.3466 15.1049C21.3437 15.1029 21.3412 15.1004 21.3393 15.0975C21.3374 15.0946 21.3361 15.0913 21.3355 15.0879C21.3341 15.081 21.3355 15.0739 21.3394 15.0681C21.3433 15.0622 21.3494 15.0582 21.3563 15.0568C21.4444 15.0403 21.5356 15.0579 21.6113 15.106C21.6157 15.1094 21.6189 15.114 21.6205 15.1193C21.6221 15.1245 21.622 15.1302 21.6203 15.1354C21.6185 15.1407 21.6152 15.1452 21.6107 15.1484C21.6062 15.1517 21.6009 15.1534 21.5953 15.1534V15.1536Z" fill="#1A4850"/>
<path d="M20.7072 15.5851C20.7179 15.65 20.7558 15.6978 20.7918 15.6918C20.8277 15.6858 20.8483 15.6285 20.8376 15.5635C20.8269 15.4986 20.789 15.451 20.7531 15.4569C20.7171 15.4628 20.6965 15.5202 20.7072 15.5851Z" fill="#1A4850"/>
<path d="M21.4047 15.4701C21.4154 15.5349 21.4533 15.5827 21.4893 15.5768C21.5254 15.5709 21.5459 15.5134 21.5352 15.4486C21.5245 15.3837 21.4866 15.3359 21.4506 15.3419C21.4145 15.3478 21.394 15.4052 21.4047 15.4701Z" fill="#1A4850"/>
<path d="M21.6006 16.059C21.6006 16.059 21.1474 16.1806 20.8961 16.1323C20.8961 16.1323 21.0698 16.3511 21.3178 16.2881C21.5657 16.2252 21.6006 16.059 21.6006 16.059Z" fill="#1A4850"/>
<path d="M21.622 14.7964C21.622 14.7964 21.0325 15.2233 20.2924 15.2558L20.3134 15.9146C20.3134 15.9146 19.6234 14.6437 20.9878 14.4186C22.3522 14.1935 21.9546 15.6131 21.9546 15.6131C21.9546 15.6131 21.9126 15.0009 21.622 14.7964Z" fill="#0E3944"/>
<path d="M21.1398 15.882L21.136 15.825C21.1368 15.825 21.2155 15.8189 21.2359 15.7702C21.2444 15.7498 21.2109 15.6861 21.1812 15.6297C21.13 15.5409 21.0916 15.4452 21.0674 15.3455L21.1234 15.3342C21.1466 15.4286 21.1831 15.5191 21.2318 15.6032C21.2756 15.6869 21.3074 15.7474 21.2885 15.7922C21.2732 15.8184 21.2515 15.8403 21.2255 15.856C21.1996 15.8717 21.1701 15.8806 21.1398 15.882V15.882Z" fill="#DB614D" fill-opacity="0.48"/>
<path d="M21.9418 14.798C20.9501 14.3677 20.0142 15.26 20.0142 15.26C20.0142 15.26 19.9051 14.537 20.0962 14.3677C20.1456 14.3238 20.1987 14.2843 20.2549 14.2496C20.6928 13.9734 21.2752 13.9785 21.5425 14.0734C21.5873 14.087 21.6287 14.1101 21.6637 14.1412C21.8214 14.3052 21.9418 14.798 21.9418 14.798Z" fill="#CE364C"/>
<path d="M21.8214 14.6371C21.2604 14.5551 20.6887 14.6791 20.212 14.9862C20.212 14.9862 20.1624 14.5197 20.2549 14.2496C20.6928 13.9735 21.2752 13.9785 21.5425 14.0734C21.698 14.2511 21.8214 14.6371 21.8214 14.6371Z" fill="#CFD8DC"/>
<path d="M20.0962 15.175C20.0962 15.175 20.2282 14.6143 20.4061 14.4563C20.702 14.1936 21.5335 14.1033 21.9705 14.2613C22.4075 14.4192 21.9705 14.8967 21.9705 14.8967C21.9705 14.8967 21.274 14.3978 20.0962 15.175Z" fill="#A02E44"/>
<path d="M21.3823 18.9013C21.6217 19.2465 21.9362 19.5329 22.3024 19.7388C22.3024 19.7388 23.0275 19.1093 23.9678 19.166C23.9678 19.166 23.1885 20.572 22.5193 20.7277C22.1677 20.8095 20.8961 19.9675 20.8961 19.9675C20.8961 19.9675 21.15 19.0726 21.3823 18.9013Z" fill="#FFAB90"/>
<path d="M20.1287 17.9455C20.4404 17.4384 21.1588 18.1881 21.4034 18.7234C21.6481 19.2588 21.8264 19.3724 21.8264 19.3724C21.8264 19.3724 21.1081 19.6723 21.1135 20.2105C21.1135 20.2105 19.4489 19.0522 20.1287 17.9455Z" fill="#ADBEC4"/>
<path d="M22.3022 19.5072C22.3022 19.5072 22.7396 19.0781 24.1778 18.5178L23.992 17.9336C24.157 17.7167 24.4604 17.7167 24.4604 17.7167C24.4604 17.7167 25.1972 18.7573 25.0703 19.068C24.9911 19.2623 23.4542 19.4656 22.3022 19.5072Z" fill="#FFA386"/>
<path d="M23.8773 18.6582C23.8896 18.6089 23.9115 18.5625 23.9418 18.5217C23.995 18.4467 23.9806 18.3101 23.9996 18.2678C24.0187 18.2254 24.1319 18.0525 24.2069 18.0189C24.282 17.9852 24.3806 17.9302 24.4015 18.0256C24.4225 18.1211 24.267 18.0939 24.1972 18.231C24.2857 18.2032 24.3794 18.1961 24.471 18.2103C24.5922 18.239 24.6266 18.3498 24.4769 18.3458C24.381 18.3533 24.2878 18.3814 24.2037 18.428C24.2037 18.428 24.3596 18.4513 24.3341 18.5228C24.2992 18.6224 24.1095 18.5613 23.8773 18.6582Z" fill="#FFAB90"/>
<path d="M13.2408 20.6171C13.3696 20.9462 13.896 21.5105 13.896 21.5105C13.896 21.5105 15.1825 20.7393 15.776 21.0638C16.3695 21.3883 16.8411 21.5862 17.2262 21.4449C17.6113 21.3036 15.9606 18.3019 15.9606 18.3019L13.8205 17.4852C13.8205 17.4852 13.7739 18.0265 13.5291 18.1226C13.2844 18.2188 13.0239 19.112 13.0412 19.2815C13.0585 19.4509 13.2408 20.6171 13.2408 20.6171Z" fill="#3E6575"/>
<path d="M15.6486 21.5302C15.6486 21.5302 15.0968 22.6119 13.9575 23.9969C13.9575 23.9969 13.8407 25.6442 10.8281 28.2361L10.5127 27.9881C10.5127 27.9881 12.3068 25.1777 12.6657 24.316C13.0245 23.4543 12.4673 22.6649 14.1182 20.4854L15.6486 21.5302Z" fill="#A66550"/>
<path d="M13.8923 19.6161C13.4172 20.526 13.2578 21.6893 13.2578 21.6893L13.0415 22.235C13.5627 22.5016 14.1196 22.6917 14.695 22.7993L15.0504 21.8587L13.8923 19.6161Z" fill="#662C33"/>
<path d="M16.3698 21.445C16.3698 21.445 16.605 22.6363 16.5663 24.4294C16.5663 24.4294 17.4932 25.7963 16.7283 29.6962H16.327C16.327 29.6962 15.9992 26.3782 15.7484 25.479C15.4976 24.5799 14.5715 24.3041 14.5214 21.5703L16.3698 21.445Z" fill="#BF745C"/>
<path d="M16.605 22.7237C16.605 22.7237 15.8504 22.8592 14.5209 22.7967L14.4999 22.6469L14.4946 22.6086L14.3569 21.6395C14.2576 21.5095 14.1706 21.3704 14.0973 21.2241C14.0815 21.1941 14.0665 21.1632 14.0514 21.1309C13.8724 20.7494 13.7136 20.1949 13.8919 19.6163L14.1726 19.6291L14.2117 19.6313L15.1506 19.6742L15.1905 19.6765L15.4989 19.6908L15.5471 19.6931L15.7472 19.7021C15.7472 19.7021 16.7645 20.6178 16.5832 22.3107L16.596 22.5462L16.5975 22.5845L16.605 22.7237Z" fill="#8B383E"/>
<path d="M14.2117 19.6314C14.1854 19.7089 14.0078 20.2837 14.0973 21.2239C14.0815 21.1938 14.0665 21.1629 14.0514 21.1307C13.9845 20.2707 14.1387 19.7342 14.1726 19.6289C14.1771 19.6161 14.1794 19.6101 14.1794 19.6093L14.2147 19.6221C14.2147 19.6231 14.2132 19.6262 14.2117 19.6314Z" fill="#662C33"/>
<path d="M16.5975 22.5846C16.3304 22.653 15.8775 22.6718 15.4471 22.6718C15.0608 22.6718 14.6949 22.6561 14.4998 22.647L14.4946 22.6086C14.8324 22.6252 15.7218 22.6598 16.2951 22.5974L16.2582 21.9917C16.2589 21.3918 16.1181 20.8002 15.8474 20.265C15.3253 20.1701 15.1815 19.7834 15.1507 19.6743C15.1461 19.657 15.1439 19.6465 15.1439 19.6457L15.1808 19.6397C15.1808 19.6404 15.1838 19.654 15.1905 19.6766C15.236 19.8172 15.3193 19.9424 15.4313 20.0387C15.5434 20.1349 15.6798 20.1984 15.8256 20.2221C15.7317 20.0362 15.6225 19.8585 15.499 19.6908C15.4825 19.6683 15.4719 19.6555 15.4712 19.6547L15.4998 19.6307C15.5013 19.6322 15.5186 19.6532 15.5473 19.6931C15.7218 19.9303 16.3109 20.8217 16.2959 21.9904L16.3328 22.5931C16.4215 22.5835 16.5095 22.5679 16.5961 22.5465L16.5975 22.5846Z" fill="#662C33"/>
<path d="M14.675 15.5341C14.3756 15.3691 12.2177 16.2154 12.2177 16.2154C12.2177 16.2154 11.8984 16.7847 12.0974 17.0083C12.2964 17.2319 13.0025 17.1331 13.2188 17.0083C13.4351 16.8835 14.0081 16.789 14.0081 16.789L14.675 15.5341Z" fill="#8BBDDB"/>
<path d="M16.5833 13.7376C16.7272 13.8029 16.8557 13.8977 16.9606 14.0158C17.0654 14.1339 17.1444 14.2727 17.1922 14.4232C17.3552 14.9368 16.8678 16.2369 17.0363 16.8345C17.2048 17.4322 17.1786 18.5608 16.6525 18.799C16.1263 19.0373 15.0473 18.6109 14.816 17.9587C14.5846 17.3065 14.6843 14.8363 15.1296 13.9962C15.5749 13.156 16.4761 13.5793 16.5833 13.7376Z" fill="#8B383E"/>
<path d="M16.0712 15.9534C16.1888 16.0801 16.4913 15.8542 16.4913 15.8542C16.4913 15.8542 16.4852 16.9748 16.1593 17.0605C15.8334 17.1461 15.0034 16.178 15.0375 15.9146C15.0717 15.6512 15.8105 15.6723 16.0712 15.9534Z" fill="#8BBDDB"/>
<path d="M14.8157 15.673C15.0831 15.8748 15.3915 16.0157 15.7191 16.0858C16.2931 16.2189 16.6041 15.9491 16.8977 16.3191C17.3382 16.8748 16.6215 17.8987 16.2443 18.4293C16.1037 18.6272 15.807 19.1759 15.7471 19.7023C15.7471 19.7023 14.7509 19.9916 13.8923 19.616L13.8282 18.3942C13.8282 18.3942 13.287 16.7477 14.8157 15.673Z" fill="#0E3944"/>
<path d="M15.8453 16.8617C15.8453 16.8617 16.3004 15.7774 16.4321 15.708C16.5639 15.6386 16.8981 15.805 16.9653 15.9533C17.0324 16.1017 16.9653 16.4253 16.9653 16.4253C16.9653 16.4253 16.6064 16.0156 15.8453 16.8617Z" fill="#8BBDDB"/>
<path d="M18.0248 21.4447C17.8179 21.8683 17.31 21.9902 17.31 21.9902C17.31 21.9902 17.2717 21.9315 17.2069 21.8261C17.2002 21.8156 17.1927 21.8035 17.1859 21.7915C16.786 21.1437 15.5652 19.0709 15.5893 17.9927C15.5943 17.6191 15.6737 17.2503 15.8227 16.9077C15.9718 16.5651 16.1876 16.2557 16.4576 15.9974C16.8842 16.099 17.0189 16.2156 17.0189 16.2156C17.1058 16.75 17.1098 17.2946 17.0309 17.8302C16.8992 18.7112 16.66 18.9445 16.7802 19.0107C16.9003 19.0769 16.7802 19.2079 16.7802 19.2079C16.7802 19.2079 17.4882 20.1942 17.6205 20.5012C17.7062 20.7013 17.8522 21.0414 17.9432 21.2534C17.9492 21.2685 17.9552 21.2836 17.9613 21.297C18 21.3868 18.0248 21.4447 18.0248 21.4447Z" fill="#6097B2"/>
<path d="M16.795 16.2154C16.795 16.2154 16.288 16.5911 16.5834 17.1653L17.9885 18.6199C17.2173 19.4417 17.1408 19.7787 16.5834 20.1579L16.795 20.4856C16.795 20.4856 18.7474 18.9851 18.7503 18.6199C18.7515 18.4636 17.5577 16.5723 16.795 16.2154Z" fill="#BF745C"/>
<path d="M16.5526 20.158C16.406 20.1743 16.2603 20.1983 16.1161 20.2299C15.9474 20.2721 15.7226 20.3142 15.7156 20.3493C15.7085 20.3844 16.0883 20.3493 16.0883 20.3493C16.0883 20.3493 15.7791 20.4764 15.7721 20.5255C15.765 20.5747 16.1656 20.4901 16.1656 20.4901C16.1656 20.4901 15.9126 20.6447 15.9266 20.6866C15.9407 20.7286 16.2523 20.6233 16.2523 20.6233C16.2223 20.7006 16.1827 20.7739 16.1343 20.8412C16.1343 20.8412 16.1947 20.8743 16.3173 20.7383C16.4398 20.6023 16.6354 20.646 16.7901 20.5253C16.9449 20.4046 16.6936 20.1399 16.5526 20.158Z" fill="#BF745C"/>
<path d="M15.1167 15.8536C15.1167 15.8536 14.731 16.1028 14.4875 16.7047C14.2439 17.3066 13.4754 18.4395 13.2953 18.7319C13.1153 19.0244 13.2407 20.6172 13.2407 20.6172C13.2407 20.6172 13.015 19.6515 12.9147 19.2754C12.8144 18.8992 13.2386 17.9696 13.3024 17.92C13.3661 17.8704 13.6921 17.9607 13.6294 17.5835C13.5667 17.2063 14.4415 15.5797 14.675 15.5339C14.6751 15.5341 15.0489 15.6043 15.1167 15.8536Z" fill="#6097B2"/>
<path d="M13.9239 15.9349C13.9171 15.948 13.9093 15.9606 13.9006 15.9726C13.831 16.0617 13.7465 16.1381 13.6508 16.1982C13.6508 16.1982 13.3566 16.6106 13.3536 16.658C13.3506 16.6986 12.8427 17.0673 12.617 17.0598H12.6163C12.5891 17.0606 12.5626 17.0515 12.5417 17.0342C12.4078 16.9078 12.9977 15.8469 13.1279 15.6182C13.1361 15.6031 13.1429 15.5919 13.1474 15.5843C13.1504 15.5782 13.1527 15.5744 13.1527 15.5744C13.1527 15.5744 13.0488 15.1878 13.4823 15.2599C13.8427 15.3194 13.9141 15.6061 13.9518 15.7979C13.9588 15.8454 13.949 15.8939 13.9239 15.9349V15.9349Z" fill="#6097B2"/>
<path d="M12.4111 16.3358C12.7088 15.9445 13.7563 15.1855 14.3081 14.9608L14.4461 15.2173C14.4461 15.2173 13.3798 16.1546 13.1294 16.5556C12.8789 16.9566 12.5686 17.1225 12.2722 16.9889C11.9758 16.8553 12.3485 16.4181 12.4111 16.3358Z" fill="#BF745C"/>
<path d="M13.8204 15.8545L13.764 15.9192L13.7354 15.9523L13.6421 16.0591C13.6421 16.0591 13.4073 16.3437 13.4164 16.4579C13.4232 16.5399 12.971 16.9071 12.6173 17.0598C12.4736 17.1222 12.3457 17.1493 12.2712 17.1064C12.0154 16.959 12.0726 16.5158 12.2178 16.2156C12.3442 15.9538 12.9033 15.616 13.0469 15.5332C13.0576 15.5261 13.0687 15.5196 13.0801 15.5136L13.0808 15.5129L13.1342 15.3053C13.1342 15.3053 13.3291 15.1879 13.4826 15.2601C13.4826 15.2601 13.1438 15.2744 13.1997 15.406C13.2569 15.5384 13.7264 15.85 13.8204 15.8545Z" fill="#8BBDDB"/>
<path d="M15.0498 14.7687C14.709 14.9087 14.7578 15.2172 14.4456 15.2172C14.2522 15.2172 14.2267 14.9959 14.2267 14.9959C14.3099 14.7831 14.3621 14.5595 14.3817 14.3318C14.3945 14.1783 14.4456 14.2377 14.4456 14.2377C14.4456 14.2234 14.4449 14.2099 14.4441 14.1963C14.4396 14.0933 14.4208 14.018 14.4885 14.0624C14.5652 14.1121 14.5916 14.404 14.5916 14.404C14.6548 13.9782 14.5608 13.915 14.6345 13.9526C14.7353 14.0037 14.7362 14.3799 14.7362 14.3912C14.8175 14.1437 14.7957 14.0022 14.852 14.0587C14.9084 14.1151 14.8234 14.5703 14.7896 14.7373C14.7821 14.7749 14.7768 14.7983 14.7768 14.7983C15.0468 14.6656 15.0498 14.7687 15.0498 14.7687Z" fill="#BF745C"/>
<path d="M14.7895 14.7372C14.782 14.7748 14.7767 14.7982 14.7767 14.7982C14.7331 14.798 14.6903 14.8092 14.6524 14.8307C14.6145 14.8522 14.5829 14.8833 14.5608 14.9208C14.5702 14.8677 14.5986 14.8198 14.6407 14.786C14.6827 14.7522 14.7356 14.7349 14.7895 14.7372V14.7372Z" fill="#874538"/>
<path d="M14.4645 14.543C14.4668 14.5069 14.4818 14.3 14.4457 14.2376C14.4457 14.2233 14.445 14.2097 14.4442 14.1961C14.5224 14.2127 14.4729 14.4994 14.4645 14.543Z" fill="#874538"/>
<path d="M14.6761 16.338C14.6761 16.338 14.9066 15.7137 14.9797 15.5743C15.0529 15.4349 15.4347 15.4591 15.7235 15.5127C16.0123 15.5663 16.0713 15.9532 16.0713 15.9532C16.0713 15.9532 15.1924 15.5387 14.6761 16.338Z" fill="#8BBDDB"/>
<path d="M16.1591 15.1094C15.9897 15.4429 15.8969 15.81 15.8876 16.1839C15.8876 16.1839 15.4393 16.4886 15.2789 16.107C15.3884 15.7256 15.4184 15.3259 15.367 14.9324C15.3118 14.4805 16.1591 15.1094 16.1591 15.1094Z" fill="#A66550"/>
<path d="M15.2789 14.4024C15.2789 14.4024 15.1969 14.1103 15.0509 14.3156C14.8819 14.5535 15.0542 14.7847 15.1444 14.7295C15.2346 14.6744 15.2789 14.4024 15.2789 14.4024Z" fill="#BF745C"/>
<path d="M16.5818 15.1534C16.5818 15.1534 16.8741 15.0721 16.7742 15.3034C16.6585 15.5712 16.3714 15.5438 16.3718 15.4381C16.3722 15.3324 16.5818 15.1534 16.5818 15.1534Z" fill="#BF745C"/>
<path d="M15.3986 15.6763C14.9834 15.4425 14.9018 15.0393 15.3598 14.2261C15.596 13.8065 15.9545 13.6694 16.4195 13.9312C16.8845 14.1931 16.9355 14.5607 16.6992 14.9803C16.207 15.8542 15.8275 15.9178 15.3986 15.6763Z" fill="#BF745C"/>
<path d="M16.3982 15.1928C16.3955 15.2161 16.3856 15.2379 16.3699 15.2553C16.3543 15.2726 16.3336 15.2847 16.3107 15.2898C16.2879 15.2949 16.2641 15.2928 16.2425 15.2838C16.2209 15.2747 16.2027 15.2592 16.1903 15.2393C16.1779 15.2195 16.172 15.1962 16.1734 15.1729C16.1748 15.1495 16.1834 15.1272 16.1981 15.1089C16.2127 15.0907 16.2327 15.0775 16.2552 15.071C16.2777 15.0646 16.3016 15.0654 16.3237 15.0732C16.3493 15.0794 16.3714 15.0955 16.3853 15.1178C16.3992 15.1402 16.4039 15.1671 16.3982 15.1928V15.1928Z" fill="#874538"/>
<path d="M15.5314 14.7346C15.5233 14.7566 15.5085 14.7754 15.4892 14.7886C15.4699 14.8017 15.4469 14.8086 15.4236 14.8081C15.4002 14.8077 15.3775 14.8 15.3587 14.7861C15.3399 14.7722 15.3259 14.7528 15.3185 14.7306C15.3112 14.7084 15.311 14.6845 15.3179 14.6621C15.3247 14.6398 15.3384 14.6201 15.3569 14.6059C15.3754 14.5916 15.3979 14.5835 15.4213 14.5826C15.4447 14.5817 15.4677 14.588 15.4873 14.6008C15.5107 14.6129 15.5284 14.6337 15.5366 14.6587C15.5449 14.6838 15.543 14.711 15.5314 14.7346Z" fill="#874538"/>
<path d="M16.4577 14.667C16.4524 14.667 16.4472 14.6652 16.443 14.662C16.4388 14.6587 16.4359 14.6542 16.4346 14.649C16.4118 14.5858 16.3665 14.5332 16.3074 14.5013C16.3018 14.4984 16.2975 14.4933 16.2957 14.4873C16.2938 14.4813 16.2943 14.4748 16.2973 14.4692C16.3002 14.4636 16.3052 14.4593 16.3112 14.4575C16.3172 14.4556 16.3238 14.4561 16.3294 14.4591C16.4006 14.4971 16.4547 14.5608 16.4807 14.6373C16.4815 14.6403 16.4816 14.6435 16.4812 14.6466C16.4807 14.6497 16.4797 14.6526 16.4781 14.6553C16.4765 14.658 16.4744 14.6604 16.4719 14.6622C16.4694 14.6641 16.4665 14.6655 16.4635 14.6662C16.4616 14.6667 16.4596 14.667 16.4577 14.667V14.667Z" fill="#1A4850"/>
<path d="M15.8875 14.2611C15.8832 14.2611 15.8789 14.2599 15.8752 14.2577C15.8172 14.2237 15.7488 14.2123 15.6829 14.2255C15.6769 14.227 15.6707 14.2261 15.6654 14.223C15.6601 14.22 15.6562 14.215 15.6544 14.2092C15.6527 14.2033 15.6533 14.197 15.656 14.1916C15.6588 14.1862 15.6636 14.182 15.6693 14.18C15.7482 14.1625 15.8307 14.1757 15.9001 14.217C15.9046 14.2197 15.908 14.2237 15.9099 14.2286C15.9118 14.2334 15.9121 14.2387 15.9107 14.2437C15.9093 14.2487 15.9063 14.2531 15.9022 14.2562C15.898 14.2594 15.893 14.2611 15.8878 14.2611H15.8875Z" fill="#1A4850"/>
<path d="M16.2862 14.8642C16.2571 14.9157 16.2104 14.9445 16.1818 14.9284C16.1532 14.9122 16.1535 14.8573 16.1825 14.8058C16.2115 14.7542 16.2583 14.7255 16.2869 14.7416C16.3155 14.7578 16.3153 14.8124 16.2862 14.8642Z" fill="#1A4850"/>
<path d="M15.7039 14.5518C15.6749 14.6033 15.6281 14.6321 15.5995 14.6159C15.5709 14.5998 15.5712 14.5449 15.6002 14.4934C15.6292 14.4418 15.676 14.4131 15.7047 14.4292C15.7334 14.4454 15.7333 14.5002 15.7039 14.5518Z" fill="#1A4850"/>
<path d="M15.5023 15.0811C15.5023 15.0811 15.7405 15.2628 15.9126 15.2684C15.9126 15.2684 15.7297 15.4175 15.598 15.3208C15.5606 15.2943 15.5317 15.2576 15.5147 15.2151C15.4977 15.1726 15.4934 15.126 15.5023 15.0811Z" fill="#1A4850"/>
<path d="M16.161 14.7598C16.161 14.7598 16.2704 14.6541 16.3151 14.6913C16.3598 14.7285 16.3365 14.8586 16.3365 14.8586L16.4321 14.8611L16.353 14.8292C16.353 14.8292 16.3785 14.6941 16.3293 14.6661C16.2593 14.6262 16.161 14.7598 16.161 14.7598Z" fill="#1A4850"/>
<path d="M15.7491 14.5483C15.7491 14.5483 15.7829 14.4 15.7277 14.381C15.6725 14.3621 15.5737 14.4496 15.5737 14.4496L15.522 14.369L15.5902 14.4201C15.5902 14.4201 15.6925 14.3283 15.7419 14.3558C15.8124 14.3951 15.7491 14.5483 15.7491 14.5483Z" fill="#1A4850"/>
<path d="M16.5298 14.1052C16.5107 14.0774 16.4859 14.054 16.457 14.0365C16.4281 14.0191 16.3958 14.008 16.3623 14.0039C16.3288 13.9999 16.2949 14.0031 16.2627 14.0132C16.2305 14.0233 16.2008 14.0402 16.1756 14.0627C15.9702 14.2268 15.5069 14.4896 15.279 14.4026C15.0511 14.3157 15.7776 13.3448 16.4085 13.6292C17.0393 13.9135 16.9826 14.8393 16.7202 15.1336C16.4579 15.4279 16.582 15.1539 16.582 15.1539C16.5923 14.9194 16.6275 14.6867 16.6872 14.4596C16.7748 14.1824 16.5298 14.1052 16.5298 14.1052Z" fill="#A74047"/>
<path d="M15.8305 14.9862C15.8184 14.9861 15.8063 14.9846 15.7946 14.9815L15.8072 14.9317C15.8203 14.9371 15.8349 14.9375 15.8484 14.933C15.8619 14.9285 15.8732 14.9193 15.8805 14.9071C15.8869 14.8971 15.8904 14.8855 15.8906 14.8736C15.8907 14.8617 15.8876 14.85 15.8814 14.8398C15.8747 14.8331 15.8637 14.8337 15.848 14.8419L15.8241 14.7964C15.8383 14.7864 15.8555 14.7818 15.8728 14.7832C15.8901 14.7847 15.9063 14.7922 15.9186 14.8044C15.9327 14.8227 15.9408 14.8448 15.9419 14.8678C15.943 14.8908 15.9371 14.9136 15.9249 14.9332C15.9154 14.9497 15.9016 14.9634 15.885 14.9727C15.8684 14.9821 15.8496 14.9867 15.8305 14.9862V14.9862Z" fill="#874538"/>
<path d="M18.8711 18.5624C18.8463 18.9272 17.9434 20.1152 17.7929 20.1574C17.7512 20.1702 17.7118 20.1898 17.6763 20.2153C17.6605 20.2267 17.6447 20.2386 17.6297 20.2507C17.575 20.2956 17.5246 20.3455 17.4792 20.3998C17.2158 20.3825 16.4762 20.0402 16.714 19.9649C16.731 19.959 16.747 19.9507 16.7614 19.9401C16.7723 19.9328 16.7826 19.9247 16.7923 19.916C17.0722 19.6813 17.6169 18.7287 17.6207 18.6565C17.6237 18.5775 17.7177 18.5625 17.7177 18.5625C17.7177 18.5625 17.2038 17.8078 16.9059 17.7168C16.6079 17.6257 16.4574 17.2654 16.4574 17.2654C16.1633 16.0201 17.0188 16.2158 17.0188 16.2158C17.6495 16.5911 18.8961 18.1967 18.8711 18.5624Z" fill="#8BBDDB"/>
<path d="M17.6765 20.2153C17.6607 20.2266 17.6449 20.2386 17.6298 20.2506C17.3191 20.2206 17.0208 20.1138 16.7616 19.9399C16.7724 19.9326 16.7827 19.9245 16.7924 19.9158C17.0563 20.0903 17.3609 20.1935 17.6765 20.2153V20.2153Z" fill="#3E6575"/>
<path d="M13.924 15.9349C13.9172 15.9481 13.9094 15.9607 13.9007 15.9726C13.845 15.9706 13.7896 15.9638 13.7351 15.9523C13.5052 15.9007 13.2946 15.7848 13.128 15.6182C13.0971 15.5881 13.07 15.5595 13.0466 15.5332C13.0573 15.5261 13.0684 15.5196 13.0798 15.5136C13.0993 15.5354 13.1219 15.5595 13.1475 15.5844C13.3149 15.7549 13.5295 15.8715 13.7637 15.9191C13.8166 15.9291 13.8702 15.9344 13.924 15.9349V15.9349Z" fill="#3E6575"/>
<path d="M17.9615 21.2973C17.8836 21.4365 17.7753 21.5563 17.6446 21.6478C17.5139 21.7393 17.3643 21.8002 17.2069 21.8258C17.2001 21.8153 17.1926 21.8033 17.1858 21.7913C17.3453 21.767 17.497 21.7057 17.6286 21.6123C17.7601 21.5189 17.868 21.3959 17.9435 21.2533C17.9493 21.2687 17.9555 21.2838 17.9615 21.2973Z" fill="#3E6575"/>
<path d="M11.1141 28.1432C11.0396 28.2225 10.9752 28.3107 10.9222 28.4058C10.8244 28.5758 10.932 28.7324 10.4587 29.1266C10.4587 29.1266 9.50394 28.5676 9.07288 27.849C9.07665 27.7891 9.09972 27.7321 9.13864 27.6864C9.17756 27.6407 9.23024 27.6088 9.28878 27.5955C9.40087 27.5699 9.70935 27.7144 10.0058 27.7701C10.0474 27.778 10.0893 27.7838 10.1315 27.7874C10.182 27.7924 10.2329 27.7922 10.2834 27.7866C10.3273 27.7827 10.3704 27.7723 10.4113 27.7558H10.4121C10.4677 27.7321 10.5168 27.6955 10.5554 27.6491C10.594 27.6026 10.6209 27.5476 10.634 27.4887C10.634 27.4887 10.8876 27.6331 10.7183 27.8776C10.7186 27.8776 11.0193 27.746 11.1141 28.1432Z" fill="#CFD8DC"/>
<path d="M10.4587 29.1266C10.4587 29.1266 9.50394 28.5675 9.07288 27.849C9.07288 27.849 9.23308 27.8151 9.36549 28.0529C9.49791 28.2907 10.5362 28.8324 10.4587 29.1266Z" fill="#ADBEC4"/>
<path d="M10.4626 27.9966C10.385 28.1192 10.3866 27.8927 10.2834 27.7865C10.3274 27.7826 10.3705 27.7722 10.4114 27.7557H10.4121C10.458 27.8054 10.5235 27.901 10.4626 27.9966Z" fill="#ADBEC4"/>
<path d="M10.1623 28.0033C10.0803 28.0808 10.0539 27.8784 10.0059 27.7701C10.0474 27.778 10.0893 27.7838 10.1315 27.7874C10.1796 27.8528 10.2248 27.9438 10.1623 28.0033Z" fill="#ADBEC4"/>
<path d="M16.988 30.6239H15.6375C15.6042 30.4944 15.6042 30.3585 15.6375 30.2289C15.6616 30.1394 15.8016 30.0558 15.9317 29.9392C15.9685 29.9068 16.0029 29.8719 16.0347 29.8346C16.0608 29.8041 16.0837 29.7711 16.1033 29.7361C16.129 29.6923 16.1477 29.6449 16.1589 29.5953C16.1817 29.4712 16.166 29.3431 16.1138 29.2283C16.1138 29.2283 16.5735 29.1319 16.7372 29.3825C16.7372 29.3825 16.753 29.2666 16.899 29.3441C16.8872 29.4864 16.8898 29.6296 16.9065 29.7714C16.9354 29.9656 17.1167 30.022 16.988 30.6239Z" fill="#CFD8DC"/>
<path d="M16.6366 29.8105C16.6309 29.817 16.624 29.8221 16.6162 29.8256C16.6084 29.8291 16.6 29.8309 16.5914 29.8309C16.577 29.8309 16.563 29.8261 16.5516 29.8173C16.4889 29.7687 16.4154 29.7359 16.3373 29.7217C16.2593 29.7076 16.1789 29.7125 16.1031 29.736C16.1289 29.6922 16.1476 29.6448 16.1588 29.5953C16.2491 29.5622 16.4192 29.5426 16.629 29.7217C16.6355 29.7269 16.6409 29.7334 16.6448 29.7408C16.6487 29.7481 16.651 29.7562 16.6518 29.7645C16.6525 29.7728 16.6515 29.7812 16.6489 29.7891C16.6462 29.797 16.6421 29.8043 16.6366 29.8105V29.8105Z" fill="#ADBEC4"/>
<path d="M16.523 30.0347L16.5155 30.046C16.507 30.0594 16.4936 30.069 16.4782 30.0728C16.4628 30.0766 16.4465 30.0743 16.4327 30.0664C16.3409 30.0122 16.1346 29.9098 15.9313 29.9392C15.9681 29.9068 16.0025 29.8719 16.0343 29.8346C16.1172 29.8153 16.2034 29.8159 16.286 29.8365C16.3685 29.857 16.445 29.8969 16.5091 29.9527C16.521 29.9624 16.529 29.976 16.5315 29.9911C16.5341 30.0062 16.5311 30.0217 16.523 30.0347V30.0347Z" fill="#ADBEC4"/>
<path d="M18.9967 12.3432C19.1121 12.3432 19.2056 12.2497 19.2056 12.1344C19.2056 12.019 19.1121 11.9255 18.9967 11.9255C18.8814 11.9255 18.7878 12.019 18.7878 12.1344C18.7878 12.2497 18.8814 12.3432 18.9967 12.3432Z" stroke="#1A4850" stroke-width="0.1" stroke-miterlimit="10"/>
<path d="M18.3401 12.3432C18.4554 12.3432 18.549 12.2497 18.549 12.1344C18.549 12.019 18.4554 11.9255 18.3401 11.9255C18.2247 11.9255 18.1312 12.019 18.1312 12.1344C18.1312 12.2497 18.2247 12.3432 18.3401 12.3432Z" stroke="#1A4850" stroke-width="0.1" stroke-miterlimit="10"/>
<path d="M19.2056 12.1045C19.2056 12.1045 19.458 12.1045 19.5039 12.1045" stroke="#1A4850" stroke-width="0.1" stroke-miterlimit="10" stroke-linecap="round"/>
<path d="M17.7732 12.1642C17.7732 12.1642 18.0761 12.1642 18.1313 12.1642" stroke="#1A4850" stroke-width="0.1" stroke-miterlimit="10" stroke-linecap="round"/>
<path d="M18.7878 12.1642C18.7878 12.1642 18.6983 12.0448 18.5491 12.1642" stroke="#1A4850" stroke-width="0.1" stroke-miterlimit="10" stroke-linecap="round"/>
<rect x="0.1" y="0.1" width="39.8" height="39.8" rx="9.9" stroke="#E8E8E8" stroke-width="0.2"/>
</svg>
