<svg width="53" height="29" viewBox="0 0 53 29" fill="none" xmlns="http://www.w3.org/2000/svg">
<path d="M0.40625 26.292L1.91504 24.0654C3.53613 25.1494 5.03027 25.6914 6.39746 25.6914C7.65723 25.6914 8.64844 25.4717 9.37109 25.0322C10.1035 24.6025 10.4697 24.0654 10.4697 23.4209C10.4697 22.1514 9.55176 21.5166 7.71582 21.5166C7.40332 21.5166 6.83691 21.5947 6.0166 21.751C5.19629 21.9072 4.55664 21.9854 4.09766 21.9854C1.87109 21.9854 0.757812 21.1455 0.757812 19.4658C0.757812 18.9482 1.0166 18.4795 1.53418 18.0596C2.06152 17.6396 2.71094 17.3369 3.48242 17.1514C1.27539 16.1162 0.171875 14.3193 0.171875 11.7607C0.171875 10.1201 0.743164 8.75293 1.88574 7.65918C3.02832 6.56543 4.43945 6.01855 6.11914 6.01855C7.66211 6.01855 8.86816 6.33594 9.7373 6.9707L11.1289 5.30078L12.9453 7.01465L11.2754 8.27441C11.9883 9.20215 12.3447 10.4131 12.3447 11.9072C12.3447 13.4893 11.8516 14.8174 10.8652 15.8916C9.87891 16.9658 8.58496 17.5811 6.9834 17.7373L4.68359 17.9717C4.41016 18.001 4.04395 18.1084 3.58496 18.2939C3.12598 18.4697 2.89648 18.7041 2.89648 18.9971C2.89648 19.3975 3.375 19.5977 4.33203 19.5977C4.75195 19.5977 5.40625 19.5244 6.29492 19.3779C7.18359 19.2217 7.84277 19.1436 8.27246 19.1436C9.81543 19.1436 11.0166 19.5146 11.876 20.2568C12.7451 20.9893 13.1797 22.0098 13.1797 23.3184C13.1797 24.7637 12.5303 25.9307 11.2314 26.8193C9.94238 27.708 8.30664 28.1523 6.32422 28.1523C5.30859 28.1523 4.23926 27.9717 3.11621 27.6104C1.99316 27.249 1.08984 26.8096 0.40625 26.292ZM6.30957 8.25977C5.34277 8.25977 4.55176 8.60156 3.93652 9.28516C3.33105 9.96875 3.02832 10.7988 3.02832 11.7754C3.02832 12.8691 3.32129 13.7773 3.90723 14.5C4.50293 15.2129 5.30371 15.5693 6.30957 15.5693C7.2959 15.5693 8.06738 15.2227 8.62402 14.5293C9.18066 13.8262 9.45898 12.9082 9.45898 11.7754C9.45898 10.7988 9.15625 9.96875 8.55078 9.28516C7.95508 8.60156 7.20801 8.25977 6.30957 8.25977ZM16.0107 14.1191C16.0107 11.6973 16.6602 9.74414 17.959 8.25977C19.2676 6.76562 20.9863 6.01855 23.1152 6.01855C25.3613 6.01855 27.1045 6.73633 28.3447 8.17188C29.585 9.59766 30.2051 11.5801 30.2051 14.1191C30.2051 16.6484 29.5703 18.6455 28.3008 20.1104C27.0312 21.5654 25.3027 22.293 23.1152 22.293C20.8789 22.293 19.1357 21.5557 17.8857 20.0811C16.6357 18.6064 16.0107 16.6191 16.0107 14.1191ZM18.9404 14.1191C18.9404 18.0547 20.332 20.0225 23.1152 20.0225C24.4141 20.0225 25.4297 19.4951 26.1621 18.4404C26.9043 17.3857 27.2754 15.9453 27.2754 14.1191C27.2754 10.2324 25.8887 8.28906 23.1152 8.28906C21.8457 8.28906 20.8301 8.80664 20.0684 9.8418C19.3164 10.877 18.9404 12.3027 18.9404 14.1191ZM37.0205 0.378906C37.499 0.378906 37.9043 0.549805 38.2363 0.891602C38.5781 1.22363 38.749 1.62402 38.749 2.09277C38.749 2.57129 38.5781 2.98145 38.2363 3.32324C37.9043 3.65527 37.499 3.82129 37.0205 3.82129C36.5518 3.82129 36.1465 3.65527 35.8047 3.32324C35.4727 2.98145 35.3066 2.57129 35.3066 2.09277C35.3066 1.61426 35.4727 1.20898 35.8047 0.876953C36.1367 0.544922 36.542 0.378906 37.0205 0.378906ZM35.4971 22V8.65527H33.3438V6.31152H38.2803V22H35.4971ZM42.6787 21.0625L43.6602 18.4258C45.2129 19.4414 46.4629 19.9492 47.4102 19.9492C49.1289 19.9492 49.9883 19.2266 49.9883 17.7812C49.9883 16.7461 49.1582 15.8574 47.498 15.1152C46.2188 14.5293 45.3545 14.085 44.9053 13.7822C44.4658 13.4795 44.0801 13.1377 43.748 12.7568C43.4258 12.3662 43.1816 11.9561 43.0156 11.5264C42.8594 11.0869 42.7812 10.6182 42.7812 10.1201C42.7812 8.83105 43.25 7.8252 44.1875 7.10254C45.125 6.37988 46.3506 6.01855 47.8643 6.01855C49.0068 6.01855 50.4473 6.37988 52.1855 7.10254L51.3945 9.68066C50.291 8.80176 49.1826 8.3623 48.0693 8.3623C47.4053 8.3623 46.8438 8.51855 46.3848 8.83105C45.9355 9.14355 45.7109 9.53906 45.7109 10.0176C45.7109 11.0234 46.2822 11.7852 47.4248 12.3027L49.417 13.2109C50.6377 13.7676 51.5264 14.4023 52.083 15.1152C52.6396 15.8281 52.918 16.7217 52.918 17.7959C52.918 19.2021 52.4248 20.3057 51.4385 21.1064C50.4521 21.8975 49.085 22.293 47.3369 22.293C45.6865 22.293 44.1338 21.8828 42.6787 21.0625Z" fill="#CCC0AF"/>
</svg>
